<svg xmlns="http://www.w3.org/2000/svg" xmlns:xlink="http://www.w3.org/1999/xlink" x="0" y="0" width="662" height="497.328125" style="
        width:662px;
        height:497.328125px;
        background: transparent;
        fill: none;
">
        
        
        <svg xmlns="http://www.w3.org/2000/svg" class="role-diagram-draw-area"><g class="shapes-region" style="stroke: black; fill: none;"><g class="composite-shape"><path class="real" d=" M231.06,322.18 L238.65,314.59 L256.36,314.59 L256.36,332.82 L248.77,340.41 L231.06,340.41 Z" style="stroke-width: 1; stroke: rgb(0, 0, 0); fill: rgb(255, 255, 255); fill-opacity: 1;"/><path class="real" d=" M256.36,314.59 L248.77,322.18 L231.06,322.18" style="stroke-width: 1; stroke: rgb(0, 0, 0); fill: none; fill-opacity: 1;"/><path class="real" d=" M248.77,322.18 L248.77,340.41" style="stroke-width: 1; stroke: rgb(0, 0, 0); fill: none; fill-opacity: 1;"/></g><g class="composite-shape"><path class="real" d=" M172.9,322.18 L180.49,314.59 L198.19,314.59 L198.19,332.82 L190.6,340.41 L172.9,340.41 Z" style="stroke-width: 1; stroke: rgb(0, 0, 0); fill: rgb(255, 255, 255); fill-opacity: 1;"/><path class="real" d=" M198.19,314.59 L190.6,322.18 L172.9,322.18" style="stroke-width: 1; stroke: rgb(0, 0, 0); fill: none; fill-opacity: 1;"/><path class="real" d=" M190.6,322.18 L190.6,340.41" style="stroke-width: 1; stroke: rgb(0, 0, 0); fill: none; fill-opacity: 1;"/></g><g class="composite-shape"><path class="real" d=" M138.91,321.39 L146.5,313.8 L164.2,313.8 L164.2,332.03 L156.62,339.62 L138.91,339.62 Z" style="stroke-width: 1; stroke: rgb(0, 0, 0); fill: rgb(128, 128, 128); fill-opacity: 1;"/><path class="real" d=" M164.2,313.8 L156.62,321.39 L138.91,321.39" style="stroke-width: 1; stroke: rgb(0, 0, 0); fill: none; fill-opacity: 1;"/><path class="real" d=" M156.62,321.39 L156.62,339.62" style="stroke-width: 1; stroke: rgb(0, 0, 0); fill: none; fill-opacity: 1;"/></g><g class="composite-shape"><path class="real" d=" M169.74,266.69 L162.15,274.28 L144.44,274.28 L144.44,202.56 L152.03,194.98 L169.74,194.98 Z" style="stroke-width: 1; stroke: rgb(0, 0, 0); fill: rgb(144, 19, 254); fill-opacity: 1;"/><path class="real" d=" M144.44,274.28 L152.03,266.69 L169.74,266.69" style="stroke-width: 1; stroke: rgb(0, 0, 0); fill: none; fill-opacity: 1;"/><path class="real" d=" M152.03,266.69 L152.03,194.98" style="stroke-width: 1; stroke: rgb(0, 0, 0); fill: none; fill-opacity: 1;"/></g><g class="composite-shape"><defs><!-- react-text: 41595 --> <!-- /react-text --><filter id="_bsdnii1w6v7h" height="150%" width="150%" filterUnits="userSpaceOnUse"><feGaussianBlur in="SourceGraphic" stdDeviation="6"/><feOffset dx="4" dy="0" result="offsetblur"/><feFlood flood-color="rgb(0,0,0)" flood-opacity="0.8"/><feComposite in2="offsetblur" operator="in"/><feMerge><feMergeNode/><feMergeNode in="SourceGraphic"/></feMerge></filter></defs><path class="real" d=" M296.97,79.57 L269.64,170.66 L151.71,170.66 L124.38,79.57 Z" style="stroke-width: 1; stroke: rgb(0, 0, 0); fill: rgb(184, 233, 134); fill-opacity: 1; filter: url(&quot;#_bsdnii1w6v7h&quot;);"/></g><g class="composite-shape"><path class="real" d=" M135.48,35.79 L148.61,22.67 L294.36,22.67 L294.36,53.28 L281.24,66.4 L135.48,66.4 Z" style="stroke-width: 1; stroke: rgb(0, 0, 0); fill: rgb(74, 144, 226); fill-opacity: 0.68;"/><path class="real" d=" M294.36,22.67 L281.24,35.79 L135.48,35.79" style="stroke-width: 1; stroke: rgb(0, 0, 0); fill: none; fill-opacity: 0.68;"/><path class="real" d=" M281.24,35.79 L281.24,66.4" style="stroke-width: 1; stroke: rgb(0, 0, 0); fill: none; fill-opacity: 0.68;"/></g><g class="composite-shape"><path class="real" d=" M201.35,282.5 L193.76,290.09 L176.06,290.09 L176.06,203.35 L183.65,195.77 L201.35,195.77 Z" style="stroke-width: 1; stroke: rgb(0, 0, 0); fill: rgb(144, 19, 254); fill-opacity: 1;"/><path class="real" d=" M176.06,290.09 L183.65,282.5 L201.35,282.5" style="stroke-width: 1; stroke: rgb(0, 0, 0); fill: none; fill-opacity: 1;"/><path class="real" d=" M183.65,282.5 L183.65,195.77" style="stroke-width: 1; stroke: rgb(0, 0, 0); fill: none; fill-opacity: 1;"/></g><g class="composite-shape"><path class="real" d=" M266.63,261.95 L259.04,269.54 L241.34,269.54 L241.34,204.93 L248.93,197.35 L266.63,197.35 Z" style="stroke-width: 1; stroke: rgb(0, 0, 0); fill: rgb(144, 19, 254); fill-opacity: 1;"/><path class="real" d=" M241.34,269.54 L248.93,261.95 L266.63,261.95" style="stroke-width: 1; stroke: rgb(0, 0, 0); fill: none; fill-opacity: 1;"/><path class="real" d=" M248.93,261.95 L248.93,197.35" style="stroke-width: 1; stroke: rgb(0, 0, 0); fill: none; fill-opacity: 1;"/></g><g class="composite-shape"><path class="real" d=" M193.45,452.44 L185.86,460.03 L168.16,460.03 L168.16,373.29 L175.74,365.7 L193.45,365.7 Z" style="stroke-width: 1; stroke: rgb(0, 0, 0); fill: rgb(144, 19, 254); fill-opacity: 1;"/><path class="real" d=" M168.16,460.03 L175.74,452.44 L193.45,452.44" style="stroke-width: 1; stroke: rgb(0, 0, 0); fill: none; fill-opacity: 1;"/><path class="real" d=" M175.74,452.44 L175.74,365.7" style="stroke-width: 1; stroke: rgb(0, 0, 0); fill: none; fill-opacity: 1;"/></g><g class="composite-shape"><path class="real" d=" M256.73,430.89 L249.14,438.47 L231.44,438.47 L231.44,373.87 L239.02,366.28 L256.73,366.28 Z" style="stroke-width: 1; stroke: rgb(0, 0, 0); fill: rgb(144, 19, 254); fill-opacity: 1;"/><path class="real" d=" M231.44,438.47 L239.02,430.89 L256.73,430.89" style="stroke-width: 1; stroke: rgb(0, 0, 0); fill: none; fill-opacity: 1;"/><path class="real" d=" M239.02,430.89 L239.02,366.28" style="stroke-width: 1; stroke: rgb(0, 0, 0); fill: none; fill-opacity: 1;"/></g><g class="composite-shape"><path class="real" d=" M133.38,374.9 L135.99,372.29 L158.67,372.29 L158.67,378.38 L156.06,380.98 L133.38,380.98 Z" style="stroke-width: 1; stroke: rgb(0, 0, 0); fill: rgb(128, 128, 128); fill-opacity: 1;"/><path class="real" d=" M158.67,372.29 L156.06,374.9 L133.38,374.9" style="stroke-width: 1; stroke: rgb(0, 0, 0); fill: none; fill-opacity: 1;"/><path class="real" d=" M156.06,374.9 L156.06,380.98" style="stroke-width: 1; stroke: rgb(0, 0, 0); fill: none; fill-opacity: 1;"/></g><g class="composite-shape"><path class="real" d=" M512.06,467.43 L514.67,464.82 L537.35,464.82 L537.35,470.91 L534.74,473.52 L512.06,473.52 Z" style="stroke-width: 1; stroke: rgb(0, 0, 0); fill: rgb(128, 128, 128); fill-opacity: 1;"/><path class="real" d=" M537.35,464.82 L534.74,467.43 L512.06,467.43" style="stroke-width: 1; stroke: rgb(0, 0, 0); fill: none; fill-opacity: 1;"/><path class="real" d=" M534.74,467.43 L534.74,473.52" style="stroke-width: 1; stroke: rgb(0, 0, 0); fill: none; fill-opacity: 1;"/></g><g/></g><g/><g/><g/></svg>
        <svg xmlns="http://www.w3.org/2000/svg" xmlns:xlink="http://www.w3.org/1999/xlink" width="660" height="495.328125" style="width:660px;height:495.328125px;font-family:Asana-Math, Asana;background:transparent;"><g><g><g><text x="195.0625" y="306.75" style="white-space:pre;stroke:none;fill:rgb(0,0,0);fill-opacity:1;font-size:37.35px;font-family:Arial, Helvetica, sans-serif;font-weight:400;font-style:normal;dominant-baseline:text-before-edge;text-decoration:none solid rgb(0, 0, 0);">...</text></g></g></g><g><g><g><text x="203.765625" y="173.171875" style="white-space:pre;stroke:none;fill:rgb(0,0,0);fill-opacity:1;font-size:37.35px;font-family:Arial, Helvetica, sans-serif;font-weight:400;font-style:normal;dominant-baseline:text-before-edge;text-decoration:none solid rgb(0, 0, 0);">...</text></g></g></g><g><g><g><g transform="matrix(1,0,0,1,179.4765625,58.95)"><path transform="matrix(0.02595,0,0,-0.02595,0,0)" d="M56 2C56 -15 56 -22 67 -22C74 -22 75 -20 82 -9C82 -8 85 -5 118 48C149 14 213 -22 302 -22C419 -22 499 76 499 186C499 286 433 368 349 388L221 419C159 434 120 488 120 546C120 616 174 677 252 677C419 677 441 513 447 468C448 462 448 456 459 456C472 456 472 461 472 480L472 681C472 698 472 705 461 705C454 705 453 704 446 692L411 635C381 664 340 705 251 705C140 705 56 617 56 511C56 428 109 355 187 328C198 324 249 312 319 295C346 288 376 281 404 244C425 218 435 185 435 152C435 81 385 9 301 9C272 9 196 14 143 63C85 117 82 181 81 217C80 227 72 227 69 227C56 227 56 220 56 202ZM574 400L659 400L659 124C659 1 752 -11 788 -11C859 -11 887 60 887 124L887 181L862 181L862 126C862 52 832 14 795 14C728 14 728 105 728 122L728 400L871 400L871 431L728 431L728 615L703 615C702 533 672 426 574 422ZM985 95C985 14 1082 -11 1145 -11C1211 -11 1257 29 1276 76C1280 36 1307 -6 1354 -6C1375 -6 1436 8 1436 89L1436 145L1411 145L1411 89C1411 31 1386 25 1375 25C1342 25 1338 70 1338 75L1338 275C1338 317 1338 356 1302 393C1263 432 1213 448 1165 448C1083 448 1014 401 1014 335C1014 305 1034 288 1060 288C1088 288 1106 308 1106 334C1106 346 1101 379 1055 380C1082 415 1131 426 1163 426C1212 426 1269 387 1269 298L1269 261C1218 258 1148 255 1085 225C1010 191 985 139 985 95ZM1062 96C1062 151 1104 234 1269 240L1269 140C1269 45 1197 11 1152 11C1103 11 1062 46 1062 96ZM1462 400L1547 400L1547 124C1547 1 1640 -11 1676 -11C1747 -11 1775 60 1775 124L1775 181L1750 181L1750 126C1750 52 1720 14 1683 14C1616 14 1616 105 1616 122L1616 400L1759 400L1759 431L1616 431L1616 615L1591 615C1590 533 1560 426 1462 422ZM1859 220C1859 86 1964 -11 2079 -11C2201 -11 2246 100 2246 119C2246 129 2238 131 2233 131C2224 131 2222 125 2220 117C2185 14 2095 14 2085 14C2035 14 1995 44 1972 81C1942 129 1942 195 1942 231L2221 231C2243 231 2246 231 2246 252C2246 351 2192 448 2067 448C1951 448 1859 345 1859 220ZM1943 252C1949 401 2033 426 2067 426C2170 426 2180 291 2180 252Z" stroke="rgb(0,0,0)" stroke-opacity="1" stroke-width="8" fill="rgb(0,0,0)" fill-opacity="1"></path></g></g></g></g><g><g><g><g transform="matrix(1,0,0,1,170.390625,105.7625)"><path transform="matrix(0.02595,0,0,-0.02595,0,0)" d="M33 0C68 1 117 3 150 3C183 3 232 1 267 0L267 31C164 31 164 78 164 105L164 625C169 620 170 619 174 613L582 13C591 1 592 0 599 0C613 0 613 7 613 26L613 578C613 605 613 652 716 652L716 683C681 682 632 680 599 680C566 680 517 682 482 683L482 652C585 652 585 605 585 578L585 151L232 670C223 682 222 683 203 683L33 683L33 652L62 652C77 652 97 651 112 650C135 647 136 646 136 627L136 105C136 78 136 31 33 31ZM778 220C778 86 883 -11 998 -11C1120 -11 1165 100 1165 119C1165 129 1157 131 1152 131C1143 131 1141 125 1139 117C1104 14 1014 14 1004 14C954 14 914 44 891 81C861 129 861 195 861 231L1140 231C1162 231 1165 231 1165 252C1165 351 1111 448 986 448C870 448 778 345 778 220ZM862 252C868 401 952 426 986 426C1089 426 1099 291 1099 252ZM1226 400C1304 400 1304 397 1304 308L1304 158C1304 80 1304 -11 1456 -11C1512 -11 1556 17 1585 79L1585 -11L1729 0L1729 31C1659 31 1651 38 1651 87L1651 442L1504 431L1504 400C1574 400 1582 393 1582 344L1582 166C1582 79 1534 11 1461 11C1377 11 1373 58 1373 110L1373 442L1226 431ZM1777 0C1816 1 1863 3 1891 3C1931 3 1978 3 2018 0L2018 31L1997 31C1923 31 1921 42 1921 78L1921 232C1921 331 1963 420 2039 420C2046 420 2048 420 2050 419C2047 418 2027 406 2027 380C2027 352 2048 337 2070 337C2088 337 2113 349 2113 381C2113 413 2082 442 2039 442C1966 442 1930 375 1916 332L1916 442L1777 431L1777 400C1847 400 1855 393 1855 344L1855 76C1855 31 1844 31 1777 31ZM2182 95C2182 14 2279 -11 2342 -11C2408 -11 2454 29 2473 76C2477 36 2504 -6 2551 -6C2572 -6 2633 8 2633 89L2633 145L2608 145L2608 89C2608 31 2583 25 2572 25C2539 25 2535 70 2535 75L2535 275C2535 317 2535 356 2499 393C2460 432 2410 448 2362 448C2280 448 2211 401 2211 335C2211 305 2231 288 2257 288C2285 288 2303 308 2303 334C2303 346 2298 379 2252 380C2279 415 2328 426 2360 426C2409 426 2466 387 2466 298L2466 261C2415 258 2345 255 2282 225C2207 191 2182 139 2182 95ZM2259 96C2259 151 2301 234 2466 240L2466 140C2466 45 2394 11 2349 11C2300 11 2259 46 2259 96ZM2673 0C2706 1 2759 3 2784 3C2809 3 2858 1 2895 0L2895 31C2828 31 2817 31 2817 76L2817 694L2673 683L2673 652C2743 652 2751 645 2751 596L2751 76C2751 31 2740 31 2673 31Z" stroke="rgb(0,0,0)" stroke-opacity="1" stroke-width="8" fill="rgb(0,0,0)" fill-opacity="1"></path></g></g></g><g><g><g transform="matrix(1,0,0,1,160.6875,141.7625)"><path transform="matrix(0.02595,0,0,-0.02595,0,0)" d="M33 0C68 1 117 3 150 3C183 3 232 1 267 0L267 31C164 31 164 78 164 105L164 625C169 620 170 619 174 613L582 13C591 1 592 0 599 0C613 0 613 7 613 26L613 578C613 605 613 652 716 652L716 683C681 682 632 680 599 680C566 680 517 682 482 683L482 652C585 652 585 605 585 578L585 151L232 670C223 682 222 683 203 683L33 683L33 652L62 652C77 652 97 651 112 650C135 647 136 646 136 627L136 105C136 78 136 31 33 31ZM778 220C778 86 883 -11 998 -11C1120 -11 1165 100 1165 119C1165 129 1157 131 1152 131C1143 131 1141 125 1139 117C1104 14 1014 14 1004 14C954 14 914 44 891 81C861 129 861 195 861 231L1140 231C1162 231 1165 231 1165 252C1165 351 1111 448 986 448C870 448 778 345 778 220ZM862 252C868 401 952 426 986 426C1089 426 1099 291 1099 252ZM1213 400L1298 400L1298 124C1298 1 1391 -11 1427 -11C1498 -11 1526 60 1526 124L1526 181L1501 181L1501 126C1501 52 1471 14 1434 14C1367 14 1367 105 1367 122L1367 400L1510 400L1510 431L1367 431L1367 615L1342 615C1341 533 1311 426 1213 422ZM1572 400C1622 400 1634 397 1646 365L1772 11C1777 -3 1780 -11 1793 -11C1806 -11 1808 -5 1813 9L1914 292L2016 8C2020 -3 2023 -11 2036 -11C2049 -11 2052 -2 2056 8L2173 336C2191 386 2222 399 2257 400L2257 431C2235 429 2206 428 2184 428C2155 428 2110 430 2091 431L2091 400C2127 399 2149 381 2149 352C2149 346 2149 344 2144 331L2053 75L1954 354C1950 366 1949 368 1949 373C1949 400 1988 400 2008 400L2008 431C1979 430 1928 428 1904 428C1874 428 1845 429 1815 431L1815 400C1852 400 1868 398 1878 385C1883 379 1894 349 1901 330L1815 88L1720 355C1715 367 1715 369 1715 373C1715 400 1754 400 1774 400L1774 431C1744 430 1688 428 1665 428C1661 428 1608 429 1572 431ZM2276 214C2276 85 2380 -11 2497 -11C2618 -11 2719 87 2719 214C2719 342 2619 448 2498 448C2373 448 2276 339 2276 214ZM2359 222C2359 261 2359 315 2383 359C2410 405 2457 426 2497 426C2541 426 2584 404 2610 361C2636 318 2636 260 2636 222C2636 186 2636 132 2614 88C2592 43 2548 14 2498 14C2455 14 2411 35 2384 81C2359 125 2359 186 2359 222ZM2776 0C2815 1 2862 3 2890 3C2930 3 2977 3 3017 0L3017 31L2996 31C2922 31 2920 42 2920 78L2920 232C2920 331 2962 420 3038 420C3045 420 3047 420 3049 419C3046 418 3026 406 3026 380C3026 352 3047 337 3069 337C3087 337 3112 349 3112 381C3112 413 3081 442 3038 442C2965 442 2929 375 2915 332L2915 442L2776 431L2776 400C2846 400 2854 393 2854 344L2854 76C2854 31 2843 31 2776 31ZM3167 0C3200 1 3247 3 3276 3C3306 3 3346 2 3386 0L3386 31C3319 31 3308 31 3308 76L3308 179L3372 234C3449 128 3491 72 3491 54C3491 35 3474 31 3455 31L3455 0C3483 1 3542 3 3563 3C3592 3 3621 2 3650 0L3650 31C3613 31 3591 31 3553 84L3426 263C3425 265 3420 271 3420 274C3420 278 3491 338 3501 346C3564 397 3606 399 3627 400L3627 431C3598 428 3585 428 3557 428C3521 428 3459 430 3445 431L3445 400C3464 399 3474 388 3474 375C3474 355 3460 343 3452 336L3311 214L3311 694L3167 683L3167 652C3237 652 3245 645 3245 596L3245 76C3245 31 3234 31 3167 31Z" stroke="rgb(0,0,0)" stroke-opacity="1" stroke-width="8" fill="rgb(0,0,0)" fill-opacity="1"></path></g></g></g></g><g><g><g><g transform="matrix(1,0,0,1,281.109375,258.59375)"><path transform="matrix(0.09,0,0,-0.09,0,0)" d="M73 -239C73 -244 75 -250 91 -250C127 -250 190 -242 236 -208C285 -172 284 -130 284 -104L284 114C284 124 284 133 286 143C295 195 342 226 386 235C410 240 425 236 425 250C425 262 407 261 393 263C370 267 284 287 284 383L284 602C284 612 284 621 283 631C273 715 173 750 90 750C81 750 73 746 73 738C73 726 89 727 97 726C160 719 203 680 212 637C214 625 214 613 214 601L214 378C214 352 221 278 333 250C210 219 214 138 214 115L214 -110C214 -133 209 -194 129 -220C97 -230 73 -224 73 -239Z" stroke="rgb(0,0,0)" stroke-opacity="1" stroke-width="8" fill="rgb(0,0,0)" fill-opacity="1"></path></g></g></g></g><g><g><g><g transform="matrix(1,0,0,1,286.734375,336.7495)"><path transform="matrix(0.049999499999999995,0,0,-0.049999499999999995,0,0)" d="M73 -239C73 -244 75 -250 91 -250C127 -250 190 -242 236 -208C285 -172 284 -130 284 -104L284 114C284 124 284 133 286 143C295 195 342 226 386 235C410 240 425 236 425 250C425 262 407 261 393 263C370 267 284 287 284 383L284 602C284 612 284 621 283 631C273 715 173 750 90 750C81 750 73 746 73 738C73 726 89 727 97 726C160 719 203 680 212 637C214 625 214 613 214 601L214 378C214 352 221 278 333 250C210 219 214 138 214 115L214 -110C214 -133 209 -194 129 -220C97 -230 73 -224 73 -239Z" stroke="rgb(0,0,0)" stroke-opacity="1" stroke-width="8" fill="rgb(0,0,0)" fill-opacity="1"></path></g></g></g></g><g><g><g><text x="195.859375" y="343.109375" style="white-space:pre;stroke:none;fill:rgb(0,0,0);fill-opacity:1;font-size:37.35px;font-family:Arial, Helvetica, sans-serif;font-weight:400;font-style:normal;dominant-baseline:text-before-edge;text-decoration:none solid rgb(0, 0, 0);">...</text></g></g></g><g><g><g><g transform="matrix(1,0,0,1,271.84375,430.40625)"><path transform="matrix(0.09,0,0,-0.09,0,0)" d="M73 -239C73 -244 75 -250 91 -250C127 -250 190 -242 236 -208C285 -172 284 -130 284 -104L284 114C284 124 284 133 286 143C295 195 342 226 386 235C410 240 425 236 425 250C425 262 407 261 393 263C370 267 284 287 284 383L284 602C284 612 284 621 283 631C273 715 173 750 90 750C81 750 73 746 73 738C73 726 89 727 97 726C160 719 203 680 212 637C214 625 214 613 214 601L214 378C214 352 221 278 333 250C210 219 214 138 214 115L214 -110C214 -133 209 -194 129 -220C97 -230 73 -224 73 -239Z" stroke="rgb(0,0,0)" stroke-opacity="1" stroke-width="8" fill="rgb(0,0,0)" fill-opacity="1"></path></g></g></g></g><g><g><g><g transform="matrix(1,0,0,1,334.25,214.303125)"><path transform="matrix(0.0216,0,0,-0.0216,0,0)" d="M32 0C55 1 98 3 134 3C165 3 217 1 249 0L249 31C199 31 174 56 174 82C174 85 175 95 176 97L222 228L469 228L522 75C523 71 525 65 525 61C525 31 469 31 442 31L442 0C478 3 548 3 586 3C629 3 675 2 717 0L717 31L699 31C639 31 625 38 614 71L398 696C393 709 391 716 375 716C359 716 356 710 351 696L144 98C126 47 86 32 32 31ZM233 259L345 584L458 259ZM756 216C756 88 855 -11 971 -11C1105 -11 1137 109 1137 119C1137 129 1127 129 1124 129C1115 129 1113 125 1111 119C1082 26 1017 14 980 14C927 14 839 57 839 218C839 381 921 423 974 423C983 423 1046 422 1081 386C1040 383 1034 353 1034 340C1034 314 1052 294 1080 294C1106 294 1126 311 1126 341C1126 409 1050 448 973 448C848 448 756 340 756 216ZM1185 400L1270 400L1270 124C1270 1 1363 -11 1399 -11C1470 -11 1498 60 1498 124L1498 181L1473 181L1473 126C1473 52 1443 14 1406 14C1339 14 1339 105 1339 122L1339 400L1482 400L1482 431L1339 431L1339 615L1314 615C1313 533 1283 426 1185 422ZM1629 616C1629 589 1651 563 1682 563C1710 563 1735 584 1735 616C1735 648 1710 669 1682 669C1651 669 1629 642 1629 616ZM1587 0C1619 1 1673 3 1697 3C1732 3 1767 1 1801 0L1801 31C1735 31 1731 36 1731 75L1731 442L1591 431L1591 400C1656 400 1665 394 1665 345L1665 76C1665 31 1654 31 1587 31ZM1859 214C1859 85 1963 -11 2080 -11C2201 -11 2302 87 2302 214C2302 342 2202 448 2081 448C1956 448 1859 339 1859 214ZM1942 222C1942 261 1942 315 1966 359C1993 405 2040 426 2080 426C2124 426 2167 404 2193 361C2219 318 2219 260 2219 222C2219 186 2219 132 2197 88C2175 43 2131 14 2081 14C2038 14 1994 35 1967 81C1942 125 1942 186 1942 222ZM2363 0C2398 1 2449 3 2476 3C2502 3 2554 1 2588 0L2588 31C2521 31 2510 31 2510 76L2510 260C2510 364 2581 420 2645 420C2708 420 2719 366 2719 309L2719 76C2719 31 2708 31 2641 31L2641 0C2676 1 2727 3 2754 3C2780 3 2832 1 2866 0L2866 31C2814 31 2789 31 2788 61L2788 252C2788 338 2788 369 2757 405C2743 422 2710 442 2652 442C2579 442 2532 399 2504 337L2504 442L2363 431L2363 400C2433 400 2441 393 2441 344L2441 76C2441 31 2430 31 2363 31ZM3252 0C3285 1 3338 3 3363 3C3388 3 3437 1 3474 0L3474 31C3407 31 3396 31 3396 76L3396 694L3252 683L3252 652C3322 652 3330 645 3330 596L3330 76C3330 31 3319 31 3252 31ZM3524 214C3524 85 3628 -11 3745 -11C3866 -11 3967 87 3967 214C3967 342 3867 448 3746 448C3621 448 3524 339 3524 214ZM3607 222C3607 261 3607 315 3631 359C3658 405 3705 426 3745 426C3789 426 3832 404 3858 361C3884 318 3884 260 3884 222C3884 186 3884 132 3862 88C3840 43 3796 14 3746 14C3703 14 3659 35 3632 81C3607 125 3607 186 3607 222ZM4024 -79C4024 -151 4123 -206 4245 -206C4363 -206 4467 -155 4467 -77C4467 -42 4453 9 4402 37C4349 65 4291 65 4230 65C4205 65 4162 65 4155 66C4123 70 4102 101 4102 133C4102 137 4102 160 4119 180C4158 152 4199 149 4218 149C4311 149 4380 218 4380 295C4380 332 4364 369 4339 392C4375 426 4411 431 4429 431C4431 431 4436 431 4439 430C4428 426 4423 415 4423 403C4423 386 4436 374 4452 374C4462 374 4481 381 4481 404C4481 421 4469 453 4430 453C4410 453 4366 447 4324 406C4282 439 4240 442 4218 442C4125 442 4056 373 4056 296C4056 252 4078 214 4103 193C4090 178 4072 145 4072 110C4072 79 4085 41 4116 21C4056 4 4024 -39 4024 -79ZM4076 -79C4076 -33 4114 4 4158 7L4217 7C4303 7 4415 7 4415 -79C4415 -133 4344 -183 4246 -183C4145 -183 4076 -132 4076 -79ZM4131 295C4131 322 4132 354 4147 379C4155 391 4178 419 4218 419C4305 419 4305 319 4305 296C4305 269 4304 237 4289 212C4281 200 4258 172 4218 172C4131 172 4131 272 4131 295ZM4571 616C4571 589 4593 563 4624 563C4652 563 4677 584 4677 616C4677 648 4652 669 4624 669C4593 669 4571 642 4571 616ZM4529 0C4561 1 4615 3 4639 3C4674 3 4709 1 4743 0L4743 31C4677 31 4673 36 4673 75L4673 442L4533 431L4533 400C4598 400 4607 394 4607 345L4607 76C4607 31 4596 31 4529 31ZM4792 400L4877 400L4877 124C4877 1 4970 -11 5006 -11C5077 -11 5105 60 5105 124L5105 181L5080 181L5080 126C5080 52 5050 14 5013 14C4946 14 4946 105 4946 122L4946 400L5089 400L5089 431L4946 431L4946 615L4921 615C4920 533 4890 426 4792 422ZM5194 13C5194 -4 5194 -11 5205 -11C5210 -11 5211 -10 5230 9C5232 11 5232 13 5250 32C5294 -10 5339 -11 5360 -11C5475 -11 5521 56 5521 128C5521 181 5491 211 5479 223C5446 255 5407 263 5365 271C5309 282 5242 295 5242 353C5242 388 5268 429 5354 429C5464 429 5469 339 5471 308C5472 299 5481 299 5483 299C5496 299 5496 304 5496 323L5496 424C5496 441 5496 448 5485 448C5480 448 5478 448 5465 436C5462 432 5452 423 5448 420C5410 448 5369 448 5354 448C5232 448 5194 381 5194 325C5194 290 5210 262 5237 240C5269 214 5297 208 5369 194C5391 190 5473 174 5473 102C5473 51 5438 11 5360 11C5276 11 5240 68 5221 153C5218 166 5217 170 5207 170C5194 170 5194 163 5194 145Z" stroke="rgb(0,0,0)" stroke-opacity="1" stroke-width="8" fill="rgb(0,0,0)" fill-opacity="1"></path></g></g></g><g><g><g transform="matrix(1,0,0,1,384.609375,244.303125)"><path transform="matrix(0.0216,0,0,-0.0216,0,0)" d="M28 214C28 85 132 -11 249 -11C370 -11 471 87 471 214C471 342 371 448 250 448C125 448 28 339 28 214ZM111 222C111 261 111 315 135 359C162 405 209 426 249 426C293 426 336 404 362 361C388 318 388 260 388 222C388 186 388 132 366 88C344 43 300 14 250 14C207 14 163 35 136 81C111 125 111 186 111 222ZM528 0C567 1 614 3 642 3C682 3 729 3 769 0L769 31L748 31C674 31 672 42 672 78L672 232C672 331 714 420 790 420C797 420 799 420 801 419C798 418 778 406 778 380C778 352 799 337 821 337C839 337 864 349 864 381C864 413 833 442 790 442C717 442 681 375 667 332L667 442L528 431L528 400C598 400 606 393 606 344L606 76C606 31 595 31 528 31Z" stroke="rgb(0,0,0)" stroke-opacity="1" stroke-width="8" fill="rgb(0,0,0)" fill-opacity="1"></path></g></g></g><g><g><g transform="matrix(1,0,0,1,353.421875,274.303125)"><path transform="matrix(0.0216,0,0,-0.0216,0,0)" d="M56 339C56 137 207 -22 389 -22C420 -22 455 -16 484 -7C499 -102 513 -194 606 -194C708 -194 727 -61 727 -10C727 0 727 11 716 11C707 11 706 3 705 -7C699 -61 657 -91 614 -91C567 -91 542 -57 518 7C636 60 721 188 721 339C721 543 570 705 388 705C209 705 56 545 56 339ZM156 339C156 599 296 680 388 680C485 680 621 594 621 339C621 261 609 120 503 42C481 98 449 148 390 148C339 148 308 105 308 64C308 37 321 18 322 16C268 36 156 109 156 339ZM330 64C330 93 351 126 390 126C444 126 466 84 477 26C443 7 411 3 389 3C338 3 330 49 330 64ZM1129 400C1192 400 1196 394 1209 363L1353 8C1359 -6 1361 -11 1374 -11C1387 -11 1391 -2 1395 8L1526 333C1535 356 1552 399 1618 400L1618 431C1595 429 1566 428 1543 428C1519 428 1473 430 1456 431L1456 400C1493 399 1504 376 1504 357C1504 348 1502 344 1498 333L1396 78L1284 357C1278 370 1278 372 1278 374C1278 400 1317 400 1335 400L1335 431C1305 430 1249 428 1226 428C1199 428 1159 429 1129 431ZM1651 95C1651 14 1748 -11 1811 -11C1877 -11 1923 29 1942 76C1946 36 1973 -6 2020 -6C2041 -6 2102 8 2102 89L2102 145L2077 145L2077 89C2077 31 2052 25 2041 25C2008 25 2004 70 2004 75L2004 275C2004 317 2004 356 1968 393C1929 432 1879 448 1831 448C1749 448 1680 401 1680 335C1680 305 1700 288 1726 288C1754 288 1772 308 1772 334C1772 346 1767 379 1721 380C1748 415 1797 426 1829 426C1878 426 1935 387 1935 298L1935 261C1884 258 1814 255 1751 225C1676 191 1651 139 1651 95ZM1728 96C1728 151 1770 234 1935 240L1935 140C1935 45 1863 11 1818 11C1769 11 1728 46 1728 96ZM2142 0C2175 1 2228 3 2253 3C2278 3 2327 1 2364 0L2364 31C2297 31 2286 31 2286 76L2286 694L2142 683L2142 652C2212 652 2220 645 2220 596L2220 76C2220 31 2209 31 2142 31ZM2418 400C2496 400 2496 397 2496 308L2496 158C2496 80 2496 -11 2648 -11C2704 -11 2748 17 2777 79L2777 -11L2921 0L2921 31C2851 31 2843 38 2843 87L2843 442L2696 431L2696 400C2766 400 2774 393 2774 344L2774 166C2774 79 2726 11 2653 11C2569 11 2565 58 2565 110L2565 442L2418 431ZM2969 220C2969 86 3074 -11 3189 -11C3311 -11 3356 100 3356 119C3356 129 3348 131 3343 131C3334 131 3332 125 3330 117C3295 14 3205 14 3195 14C3145 14 3105 44 3082 81C3052 129 3052 195 3052 231L3331 231C3353 231 3356 231 3356 252C3356 351 3302 448 3177 448C3061 448 2969 345 2969 220ZM3053 252C3059 401 3143 426 3177 426C3280 426 3290 291 3290 252ZM3418 13C3418 -4 3418 -11 3429 -11C3434 -11 3435 -10 3454 9C3456 11 3456 13 3474 32C3518 -10 3563 -11 3584 -11C3699 -11 3745 56 3745 128C3745 181 3715 211 3703 223C3670 255 3631 263 3589 271C3533 282 3466 295 3466 353C3466 388 3492 429 3578 429C3688 429 3693 339 3695 308C3696 299 3705 299 3707 299C3720 299 3720 304 3720 323L3720 424C3720 441 3720 448 3709 448C3704 448 3702 448 3689 436C3686 432 3676 423 3672 420C3634 448 3593 448 3578 448C3456 448 3418 381 3418 325C3418 290 3434 262 3461 240C3493 214 3521 208 3593 194C3615 190 3697 174 3697 102C3697 51 3662 11 3584 11C3500 11 3464 68 3445 153C3442 166 3441 170 3431 170C3418 170 3418 163 3418 145Z" stroke="rgb(0,0,0)" stroke-opacity="1" stroke-width="8" fill="rgb(0,0,0)" fill-opacity="1"></path></g></g></g></g><g><g><g><g transform="matrix(1,0,0,1,331.4453125,388.709375)"><path transform="matrix(0.0216,0,0,-0.0216,0,0)" d="M37 0C72 1 121 3 154 3C187 3 236 1 271 0L271 31C168 31 168 78 168 105L168 644L169 644L410 22C415 9 420 0 430 0C441 0 444 8 448 19L694 652L695 652L695 78C695 42 693 31 616 31L592 31L592 0C629 3 697 3 736 3C775 3 842 3 879 0L879 31L855 31C778 31 776 42 776 78L776 605C776 641 778 652 855 652L879 652L879 683L710 683C684 683 684 682 677 664L458 101L241 661C232 683 229 683 206 683L37 683L37 652L61 652C138 652 140 641 140 605L140 105C140 78 140 31 37 31ZM958 95C958 14 1055 -11 1118 -11C1184 -11 1230 29 1249 76C1253 36 1280 -6 1327 -6C1348 -6 1409 8 1409 89L1409 145L1384 145L1384 89C1384 31 1359 25 1348 25C1315 25 1311 70 1311 75L1311 275C1311 317 1311 356 1275 393C1236 432 1186 448 1138 448C1056 448 987 401 987 335C987 305 1007 288 1033 288C1061 288 1079 308 1079 334C1079 346 1074 379 1028 380C1055 415 1104 426 1136 426C1185 426 1242 387 1242 298L1242 261C1191 258 1121 255 1058 225C983 191 958 139 958 95ZM1035 96C1035 151 1077 234 1242 240L1242 140C1242 45 1170 11 1125 11C1076 11 1035 46 1035 96ZM1449 13C1449 -4 1449 -11 1460 -11C1465 -11 1466 -10 1485 9C1487 11 1487 13 1505 32C1549 -10 1594 -11 1615 -11C1730 -11 1776 56 1776 128C1776 181 1746 211 1734 223C1701 255 1662 263 1620 271C1564 282 1497 295 1497 353C1497 388 1523 429 1609 429C1719 429 1724 339 1726 308C1727 299 1736 299 1738 299C1751 299 1751 304 1751 323L1751 424C1751 441 1751 448 1740 448C1735 448 1733 448 1720 436C1717 432 1707 423 1703 420C1665 448 1624 448 1609 448C1487 448 1449 381 1449 325C1449 290 1465 262 1492 240C1524 214 1552 208 1624 194C1646 190 1728 174 1728 102C1728 51 1693 11 1615 11C1531 11 1495 68 1476 153C1473 166 1472 170 1462 170C1449 170 1449 163 1449 145ZM1838 0C1871 1 1918 3 1947 3C1977 3 2017 2 2057 0L2057 31C1990 31 1979 31 1979 76L1979 179L2043 234C2120 128 2162 72 2162 54C2162 35 2145 31 2126 31L2126 0C2154 1 2213 3 2234 3C2263 3 2292 2 2321 0L2321 31C2284 31 2262 31 2224 84L2097 263C2096 265 2091 271 2091 274C2091 278 2162 338 2172 346C2235 397 2277 399 2298 400L2298 431C2269 428 2256 428 2228 428C2192 428 2130 430 2116 431L2116 400C2135 399 2145 388 2145 375C2145 355 2131 343 2123 336L1982 214L1982 694L1838 683L1838 652C1908 652 1916 645 1916 596L1916 76C1916 31 1905 31 1838 31ZM2337 220C2337 86 2442 -11 2557 -11C2679 -11 2724 100 2724 119C2724 129 2716 131 2711 131C2702 131 2700 125 2698 117C2663 14 2573 14 2563 14C2513 14 2473 44 2450 81C2420 129 2420 195 2420 231L2699 231C2721 231 2724 231 2724 252C2724 351 2670 448 2545 448C2429 448 2337 345 2337 220ZM2421 252C2427 401 2511 426 2545 426C2648 426 2658 291 2658 252ZM2787 215C2787 88 2885 -11 2999 -11C3063 -11 3108 23 3133 55L3133 -11L3280 0L3280 31C3210 31 3202 38 3202 87L3202 694L3058 683L3058 652C3128 652 3136 645 3136 596L3136 380C3107 416 3064 442 3010 442C2892 442 2787 344 2787 215ZM2870 214C2870 251 2872 311 2901 356C2922 387 2960 420 3014 420C3049 420 3091 405 3122 360C3133 343 3133 341 3133 323L3133 118C3133 100 3133 98 3122 81C3092 33 3047 11 3004 11C2959 11 2923 37 2899 75C2873 116 2870 173 2870 214ZM3673 0C3696 1 3739 3 3775 3C3806 3 3858 1 3890 0L3890 31C3840 31 3815 56 3815 82C3815 85 3816 95 3817 97L3863 228L4110 228L4163 75C4164 71 4166 65 4166 61C4166 31 4110 31 4083 31L4083 0C4119 3 4189 3 4227 3C4270 3 4316 2 4358 0L4358 31L4340 31C4280 31 4266 38 4255 71L4039 696C4034 709 4032 716 4016 716C4000 716 3997 710 3992 696L3785 98C3767 47 3727 32 3673 31ZM3874 259L3986 584L4099 259ZM4397 216C4397 88 4496 -11 4612 -11C4746 -11 4778 109 4778 119C4778 129 4768 129 4765 129C4756 129 4754 125 4752 119C4723 26 4658 14 4621 14C4568 14 4480 57 4480 218C4480 381 4562 423 4615 423C4624 423 4687 422 4722 386C4681 383 4675 353 4675 340C4675 314 4693 294 4721 294C4747 294 4767 311 4767 341C4767 409 4691 448 4614 448C4489 448 4397 340 4397 216ZM4826 400L4911 400L4911 124C4911 1 5004 -11 5040 -11C5111 -11 5139 60 5139 124L5139 181L5114 181L5114 126C5114 52 5084 14 5047 14C4980 14 4980 105 4980 122L4980 400L5123 400L5123 431L4980 431L4980 615L4955 615C4954 533 4924 426 4826 422ZM5270 616C5270 589 5292 563 5323 563C5351 563 5376 584 5376 616C5376 648 5351 669 5323 669C5292 669 5270 642 5270 616ZM5228 0C5260 1 5314 3 5338 3C5373 3 5408 1 5442 0L5442 31C5376 31 5372 36 5372 75L5372 442L5232 431L5232 400C5297 400 5306 394 5306 345L5306 76C5306 31 5295 31 5228 31ZM5500 214C5500 85 5604 -11 5721 -11C5842 -11 5943 87 5943 214C5943 342 5843 448 5722 448C5597 448 5500 339 5500 214ZM5583 222C5583 261 5583 315 5607 359C5634 405 5681 426 5721 426C5765 426 5808 404 5834 361C5860 318 5860 260 5860 222C5860 186 5860 132 5838 88C5816 43 5772 14 5722 14C5679 14 5635 35 5608 81C5583 125 5583 186 5583 222ZM6004 0C6039 1 6090 3 6117 3C6143 3 6195 1 6229 0L6229 31C6162 31 6151 31 6151 76L6151 260C6151 364 6222 420 6286 420C6349 420 6360 366 6360 309L6360 76C6360 31 6349 31 6282 31L6282 0C6317 1 6368 3 6395 3C6421 3 6473 1 6507 0L6507 31C6455 31 6430 31 6429 61L6429 252C6429 338 6429 369 6398 405C6384 422 6351 442 6293 442C6220 442 6173 399 6145 337L6145 442L6004 431L6004 400C6074 400 6082 393 6082 344L6082 76C6082 31 6071 31 6004 31ZM6893 0C6926 1 6979 3 7004 3C7029 3 7078 1 7115 0L7115 31C7048 31 7037 31 7037 76L7037 694L6893 683L6893 652C6963 652 6971 645 6971 596L6971 76C6971 31 6960 31 6893 31ZM7165 214C7165 85 7269 -11 7386 -11C7507 -11 7608 87 7608 214C7608 342 7508 448 7387 448C7262 448 7165 339 7165 214ZM7248 222C7248 261 7248 315 7272 359C7299 405 7346 426 7386 426C7430 426 7473 404 7499 361C7525 318 7525 260 7525 222C7525 186 7525 132 7503 88C7481 43 7437 14 7387 14C7344 14 7300 35 7273 81C7248 125 7248 186 7248 222ZM7665 -79C7665 -151 7764 -206 7886 -206C8004 -206 8108 -155 8108 -77C8108 -42 8094 9 8043 37C7990 65 7932 65 7871 65C7846 65 7803 65 7796 66C7764 70 7743 101 7743 133C7743 137 7743 160 7760 180C7799 152 7840 149 7859 149C7952 149 8021 218 8021 295C8021 332 8005 369 7980 392C8016 426 8052 431 8070 431C8072 431 8077 431 8080 430C8069 426 8064 415 8064 403C8064 386 8077 374 8093 374C8103 374 8122 381 8122 404C8122 421 8110 453 8071 453C8051 453 8007 447 7965 406C7923 439 7881 442 7859 442C7766 442 7697 373 7697 296C7697 252 7719 214 7744 193C7731 178 7713 145 7713 110C7713 79 7726 41 7757 21C7697 4 7665 -39 7665 -79ZM7717 -79C7717 -33 7755 4 7799 7L7858 7C7944 7 8056 7 8056 -79C8056 -133 7985 -183 7887 -183C7786 -183 7717 -132 7717 -79ZM7772 295C7772 322 7773 354 7788 379C7796 391 7819 419 7859 419C7946 419 7946 319 7946 296C7946 269 7945 237 7930 212C7922 200 7899 172 7859 172C7772 172 7772 272 7772 295ZM8212 616C8212 589 8234 563 8265 563C8293 563 8318 584 8318 616C8318 648 8293 669 8265 669C8234 669 8212 642 8212 616ZM8170 0C8202 1 8256 3 8280 3C8315 3 8350 1 8384 0L8384 31C8318 31 8314 36 8314 75L8314 442L8174 431L8174 400C8239 400 8248 394 8248 345L8248 76C8248 31 8237 31 8170 31ZM8433 400L8518 400L8518 124C8518 1 8611 -11 8647 -11C8718 -11 8746 60 8746 124L8746 181L8721 181L8721 126C8721 52 8691 14 8654 14C8587 14 8587 105 8587 122L8587 400L8730 400L8730 431L8587 431L8587 615L8562 615C8561 533 8531 426 8433 422ZM8835 13C8835 -4 8835 -11 8846 -11C8851 -11 8852 -10 8871 9C8873 11 8873 13 8891 32C8935 -10 8980 -11 9001 -11C9116 -11 9162 56 9162 128C9162 181 9132 211 9120 223C9087 255 9048 263 9006 271C8950 282 8883 295 8883 353C8883 388 8909 429 8995 429C9105 429 9110 339 9112 308C9113 299 9122 299 9124 299C9137 299 9137 304 9137 323L9137 424C9137 441 9137 448 9126 448C9121 448 9119 448 9106 436C9103 432 9093 423 9089 420C9051 448 9010 448 8995 448C8873 448 8835 381 8835 325C8835 290 8851 262 8878 240C8910 214 8938 208 9010 194C9032 190 9114 174 9114 102C9114 51 9079 11 9001 11C8917 11 8881 68 8862 153C8859 166 8858 170 8848 170C8835 170 8835 163 8835 145Z" stroke="rgb(0,0,0)" stroke-opacity="1" stroke-width="8" fill="rgb(0,0,0)" fill-opacity="1"></path></g></g></g><g><g><g transform="matrix(1,0,0,1,421.1015625,418.709375)"><path transform="matrix(0.0216,0,0,-0.0216,0,0)" d="M28 214C28 85 132 -11 249 -11C370 -11 471 87 471 214C471 342 371 448 250 448C125 448 28 339 28 214ZM111 222C111 261 111 315 135 359C162 405 209 426 249 426C293 426 336 404 362 361C388 318 388 260 388 222C388 186 388 132 366 88C344 43 300 14 250 14C207 14 163 35 136 81C111 125 111 186 111 222ZM528 0C567 1 614 3 642 3C682 3 729 3 769 0L769 31L748 31C674 31 672 42 672 78L672 232C672 331 714 420 790 420C797 420 799 420 801 419C798 418 778 406 778 380C778 352 799 337 821 337C839 337 864 349 864 381C864 413 833 442 790 442C717 442 681 375 667 332L667 442L528 431L528 400C598 400 606 393 606 344L606 76C606 31 595 31 528 31Z" stroke="rgb(0,0,0)" stroke-opacity="1" stroke-width="8" fill="rgb(0,0,0)" fill-opacity="1"></path></g></g></g><g><g><g transform="matrix(1,0,0,1,350.6171875,448.709375)"><path transform="matrix(0.0216,0,0,-0.0216,0,0)" d="M37 0C72 1 121 3 154 3C187 3 236 1 271 0L271 31C168 31 168 78 168 105L168 644L169 644L410 22C415 9 420 0 430 0C441 0 444 8 448 19L694 652L695 652L695 78C695 42 693 31 616 31L592 31L592 0C629 3 697 3 736 3C775 3 842 3 879 0L879 31L855 31C778 31 776 42 776 78L776 605C776 641 778 652 855 652L879 652L879 683L710 683C684 683 684 682 677 664L458 101L241 661C232 683 229 683 206 683L37 683L37 652L61 652C138 652 140 641 140 605L140 105C140 78 140 31 37 31ZM958 95C958 14 1055 -11 1118 -11C1184 -11 1230 29 1249 76C1253 36 1280 -6 1327 -6C1348 -6 1409 8 1409 89L1409 145L1384 145L1384 89C1384 31 1359 25 1348 25C1315 25 1311 70 1311 75L1311 275C1311 317 1311 356 1275 393C1236 432 1186 448 1138 448C1056 448 987 401 987 335C987 305 1007 288 1033 288C1061 288 1079 308 1079 334C1079 346 1074 379 1028 380C1055 415 1104 426 1136 426C1185 426 1242 387 1242 298L1242 261C1191 258 1121 255 1058 225C983 191 958 139 958 95ZM1035 96C1035 151 1077 234 1242 240L1242 140C1242 45 1170 11 1125 11C1076 11 1035 46 1035 96ZM1449 13C1449 -4 1449 -11 1460 -11C1465 -11 1466 -10 1485 9C1487 11 1487 13 1505 32C1549 -10 1594 -11 1615 -11C1730 -11 1776 56 1776 128C1776 181 1746 211 1734 223C1701 255 1662 263 1620 271C1564 282 1497 295 1497 353C1497 388 1523 429 1609 429C1719 429 1724 339 1726 308C1727 299 1736 299 1738 299C1751 299 1751 304 1751 323L1751 424C1751 441 1751 448 1740 448C1735 448 1733 448 1720 436C1717 432 1707 423 1703 420C1665 448 1624 448 1609 448C1487 448 1449 381 1449 325C1449 290 1465 262 1492 240C1524 214 1552 208 1624 194C1646 190 1728 174 1728 102C1728 51 1693 11 1615 11C1531 11 1495 68 1476 153C1473 166 1472 170 1462 170C1449 170 1449 163 1449 145ZM1838 0C1871 1 1918 3 1947 3C1977 3 2017 2 2057 0L2057 31C1990 31 1979 31 1979 76L1979 179L2043 234C2120 128 2162 72 2162 54C2162 35 2145 31 2126 31L2126 0C2154 1 2213 3 2234 3C2263 3 2292 2 2321 0L2321 31C2284 31 2262 31 2224 84L2097 263C2096 265 2091 271 2091 274C2091 278 2162 338 2172 346C2235 397 2277 399 2298 400L2298 431C2269 428 2256 428 2228 428C2192 428 2130 430 2116 431L2116 400C2135 399 2145 388 2145 375C2145 355 2131 343 2123 336L1982 214L1982 694L1838 683L1838 652C1908 652 1916 645 1916 596L1916 76C1916 31 1905 31 1838 31ZM2337 220C2337 86 2442 -11 2557 -11C2679 -11 2724 100 2724 119C2724 129 2716 131 2711 131C2702 131 2700 125 2698 117C2663 14 2573 14 2563 14C2513 14 2473 44 2450 81C2420 129 2420 195 2420 231L2699 231C2721 231 2724 231 2724 252C2724 351 2670 448 2545 448C2429 448 2337 345 2337 220ZM2421 252C2427 401 2511 426 2545 426C2648 426 2658 291 2658 252ZM2787 215C2787 88 2885 -11 2999 -11C3063 -11 3108 23 3133 55L3133 -11L3280 0L3280 31C3210 31 3202 38 3202 87L3202 694L3058 683L3058 652C3128 652 3136 645 3136 596L3136 380C3107 416 3064 442 3010 442C2892 442 2787 344 2787 215ZM2870 214C2870 251 2872 311 2901 356C2922 387 2960 420 3014 420C3049 420 3091 405 3122 360C3133 343 3133 341 3133 323L3133 118C3133 100 3133 98 3122 81C3092 33 3047 11 3004 11C2959 11 2923 37 2899 75C2873 116 2870 173 2870 214ZM3697 339C3697 137 3848 -22 4030 -22C4061 -22 4096 -16 4125 -7C4140 -102 4154 -194 4247 -194C4349 -194 4368 -61 4368 -10C4368 0 4368 11 4357 11C4348 11 4347 3 4346 -7C4340 -61 4298 -91 4255 -91C4208 -91 4183 -57 4159 7C4277 60 4362 188 4362 339C4362 543 4211 705 4029 705C3850 705 3697 545 3697 339ZM3797 339C3797 599 3937 680 4029 680C4126 680 4262 594 4262 339C4262 261 4250 120 4144 42C4122 98 4090 148 4031 148C3980 148 3949 105 3949 64C3949 37 3962 18 3963 16C3909 36 3797 109 3797 339ZM3971 64C3971 93 3992 126 4031 126C4085 126 4107 84 4118 26C4084 7 4052 3 4030 3C3979 3 3971 49 3971 64ZM4770 400C4833 400 4837 394 4850 363L4994 8C5000 -6 5002 -11 5015 -11C5028 -11 5032 -2 5036 8L5167 333C5176 356 5193 399 5259 400L5259 431C5236 429 5207 428 5184 428C5160 428 5114 430 5097 431L5097 400C5134 399 5145 376 5145 357C5145 348 5143 344 5139 333L5037 78L4925 357C4919 370 4919 372 4919 374C4919 400 4958 400 4976 400L4976 431C4946 430 4890 428 4867 428C4840 428 4800 429 4770 431ZM5292 95C5292 14 5389 -11 5452 -11C5518 -11 5564 29 5583 76C5587 36 5614 -6 5661 -6C5682 -6 5743 8 5743 89L5743 145L5718 145L5718 89C5718 31 5693 25 5682 25C5649 25 5645 70 5645 75L5645 275C5645 317 5645 356 5609 393C5570 432 5520 448 5472 448C5390 448 5321 401 5321 335C5321 305 5341 288 5367 288C5395 288 5413 308 5413 334C5413 346 5408 379 5362 380C5389 415 5438 426 5470 426C5519 426 5576 387 5576 298L5576 261C5525 258 5455 255 5392 225C5317 191 5292 139 5292 95ZM5369 96C5369 151 5411 234 5576 240L5576 140C5576 45 5504 11 5459 11C5410 11 5369 46 5369 96ZM5783 0C5816 1 5869 3 5894 3C5919 3 5968 1 6005 0L6005 31C5938 31 5927 31 5927 76L5927 694L5783 683L5783 652C5853 652 5861 645 5861 596L5861 76C5861 31 5850 31 5783 31ZM6059 400C6137 400 6137 397 6137 308L6137 158C6137 80 6137 -11 6289 -11C6345 -11 6389 17 6418 79L6418 -11L6562 0L6562 31C6492 31 6484 38 6484 87L6484 442L6337 431L6337 400C6407 400 6415 393 6415 344L6415 166C6415 79 6367 11 6294 11C6210 11 6206 58 6206 110L6206 442L6059 431ZM6610 220C6610 86 6715 -11 6830 -11C6952 -11 6997 100 6997 119C6997 129 6989 131 6984 131C6975 131 6973 125 6971 117C6936 14 6846 14 6836 14C6786 14 6746 44 6723 81C6693 129 6693 195 6693 231L6972 231C6994 231 6997 231 6997 252C6997 351 6943 448 6818 448C6702 448 6610 345 6610 220ZM6694 252C6700 401 6784 426 6818 426C6921 426 6931 291 6931 252ZM7059 13C7059 -4 7059 -11 7070 -11C7075 -11 7076 -10 7095 9C7097 11 7097 13 7115 32C7159 -10 7204 -11 7225 -11C7340 -11 7386 56 7386 128C7386 181 7356 211 7344 223C7311 255 7272 263 7230 271C7174 282 7107 295 7107 353C7107 388 7133 429 7219 429C7329 429 7334 339 7336 308C7337 299 7346 299 7348 299C7361 299 7361 304 7361 323L7361 424C7361 441 7361 448 7350 448C7345 448 7343 448 7330 436C7327 432 7317 423 7313 420C7275 448 7234 448 7219 448C7097 448 7059 381 7059 325C7059 290 7075 262 7102 240C7134 214 7162 208 7234 194C7256 190 7338 174 7338 102C7338 51 7303 11 7225 11C7141 11 7105 68 7086 153C7083 166 7082 170 7072 170C7059 170 7059 163 7059 145Z" stroke="rgb(0,0,0)" stroke-opacity="1" stroke-width="8" fill="rgb(0,0,0)" fill-opacity="1"></path></g></g></g></g><g><g><g><g transform="matrix(1,0,0,1,335.96875,328.303125)"><path transform="matrix(0.0216,0,0,-0.0216,0,0)" d="M32 0C55 1 98 3 134 3C165 3 217 1 249 0L249 31C199 31 174 56 174 82C174 85 175 95 176 97L222 228L469 228L522 75C523 71 525 65 525 61C525 31 469 31 442 31L442 0C478 3 548 3 586 3C629 3 675 2 717 0L717 31L699 31C639 31 625 38 614 71L398 696C393 709 391 716 375 716C359 716 356 710 351 696L144 98C126 47 86 32 32 31ZM233 259L345 584L458 259ZM756 216C756 88 855 -11 971 -11C1105 -11 1137 109 1137 119C1137 129 1127 129 1124 129C1115 129 1113 125 1111 119C1082 26 1017 14 980 14C927 14 839 57 839 218C839 381 921 423 974 423C983 423 1046 422 1081 386C1040 383 1034 353 1034 340C1034 314 1052 294 1080 294C1106 294 1126 311 1126 341C1126 409 1050 448 973 448C848 448 756 340 756 216ZM1185 400L1270 400L1270 124C1270 1 1363 -11 1399 -11C1470 -11 1498 60 1498 124L1498 181L1473 181L1473 126C1473 52 1443 14 1406 14C1339 14 1339 105 1339 122L1339 400L1482 400L1482 431L1339 431L1339 615L1314 615C1313 533 1283 426 1185 422ZM1629 616C1629 589 1651 563 1682 563C1710 563 1735 584 1735 616C1735 648 1710 669 1682 669C1651 669 1629 642 1629 616ZM1587 0C1619 1 1673 3 1697 3C1732 3 1767 1 1801 0L1801 31C1735 31 1731 36 1731 75L1731 442L1591 431L1591 400C1656 400 1665 394 1665 345L1665 76C1665 31 1654 31 1587 31ZM1859 214C1859 85 1963 -11 2080 -11C2201 -11 2302 87 2302 214C2302 342 2202 448 2081 448C1956 448 1859 339 1859 214ZM1942 222C1942 261 1942 315 1966 359C1993 405 2040 426 2080 426C2124 426 2167 404 2193 361C2219 318 2219 260 2219 222C2219 186 2219 132 2197 88C2175 43 2131 14 2081 14C2038 14 1994 35 1967 81C1942 125 1942 186 1942 222ZM2363 0C2398 1 2449 3 2476 3C2502 3 2554 1 2588 0L2588 31C2521 31 2510 31 2510 76L2510 260C2510 364 2581 420 2645 420C2708 420 2719 366 2719 309L2719 76C2719 31 2708 31 2641 31L2641 0C2676 1 2727 3 2754 3C2780 3 2832 1 2866 0L2866 31C2814 31 2789 31 2788 61L2788 252C2788 338 2788 369 2757 405C2743 422 2710 442 2652 442C2579 442 2532 399 2504 337L2504 442L2363 431L2363 400C2433 400 2441 393 2441 344L2441 76C2441 31 2430 31 2363 31ZM3251 0C3286 1 3337 3 3364 3C3390 3 3442 1 3476 0L3476 31C3409 31 3398 31 3398 76L3398 260C3398 364 3469 420 3533 420C3596 420 3607 366 3607 309L3607 76C3607 31 3596 31 3529 31L3529 0C3564 1 3615 3 3642 3C3668 3 3720 1 3754 0L3754 31C3687 31 3676 31 3676 76L3676 260C3676 364 3747 420 3811 420C3874 420 3885 366 3885 309L3885 76C3885 31 3874 31 3807 31L3807 0C3842 1 3893 3 3920 3C3946 3 3998 1 4032 0L4032 31C3980 31 3955 31 3954 61L3954 252C3954 338 3954 369 3923 405C3909 422 3876 442 3818 442C3734 442 3690 382 3673 344C3659 431 3585 442 3540 442C3467 442 3420 399 3392 337L3392 442L3251 431L3251 400C3321 400 3329 393 3329 344L3329 76C3329 31 3318 31 3251 31ZM4094 95C4094 14 4191 -11 4254 -11C4320 -11 4366 29 4385 76C4389 36 4416 -6 4463 -6C4484 -6 4545 8 4545 89L4545 145L4520 145L4520 89C4520 31 4495 25 4484 25C4451 25 4447 70 4447 75L4447 275C4447 317 4447 356 4411 393C4372 432 4322 448 4274 448C4192 448 4123 401 4123 335C4123 305 4143 288 4169 288C4197 288 4215 308 4215 334C4215 346 4210 379 4164 380C4191 415 4240 426 4272 426C4321 426 4378 387 4378 298L4378 261C4327 258 4257 255 4194 225C4119 191 4094 139 4094 95ZM4171 96C4171 151 4213 234 4378 240L4378 140C4378 45 4306 11 4261 11C4212 11 4171 46 4171 96ZM4585 13C4585 -4 4585 -11 4596 -11C4601 -11 4602 -10 4621 9C4623 11 4623 13 4641 32C4685 -10 4730 -11 4751 -11C4866 -11 4912 56 4912 128C4912 181 4882 211 4870 223C4837 255 4798 263 4756 271C4700 282 4633 295 4633 353C4633 388 4659 429 4745 429C4855 429 4860 339 4862 308C4863 299 4872 299 4874 299C4887 299 4887 304 4887 323L4887 424C4887 441 4887 448 4876 448C4871 448 4869 448 4856 436C4853 432 4843 423 4839 420C4801 448 4760 448 4745 448C4623 448 4585 381 4585 325C4585 290 4601 262 4628 240C4660 214 4688 208 4760 194C4782 190 4864 174 4864 102C4864 51 4829 11 4751 11C4667 11 4631 68 4612 153C4609 166 4608 170 4598 170C4585 170 4585 163 4585 145ZM4974 0C5007 1 5054 3 5083 3C5113 3 5153 2 5193 0L5193 31C5126 31 5115 31 5115 76L5115 179L5179 234C5256 128 5298 72 5298 54C5298 35 5281 31 5262 31L5262 0C5290 1 5349 3 5370 3C5399 3 5428 2 5457 0L5457 31C5420 31 5398 31 5360 84L5233 263C5232 265 5227 271 5227 274C5227 278 5298 338 5308 346C5371 397 5413 399 5434 400L5434 431C5405 428 5392 428 5364 428C5328 428 5266 430 5252 431L5252 400C5271 399 5281 388 5281 375C5281 355 5267 343 5259 336L5118 214L5118 694L4974 683L4974 652C5044 652 5052 645 5052 596L5052 76C5052 31 5041 31 4974 31Z" stroke="rgb(0,0,0)" stroke-opacity="1" stroke-width="8" fill="rgb(0,0,0)" fill-opacity="1"></path></g></g></g><g></g></g><g><g><g><g><g transform="matrix(1,0,0,1,541.5625,480.580625)"><path transform="matrix(0.03519,0,0,-0.03519,0,0)" d="M949 272L743 486L711 452L836 300L65 300L65 241L836 241L711 89L743 55Z" stroke="rgb(0,0,0)" stroke-opacity="1" stroke-width="8" fill="rgb(0,0,0)" fill-opacity="1"></path></g></g></g><g><g transform="matrix(1,0,0,1,584.234375,480.580625)"><path transform="matrix(0.03519,0,0,-0.03519,0,0)" d="" stroke="rgb(0,0,0)" stroke-opacity="1" stroke-width="8" fill="rgb(0,0,0)" fill-opacity="1"></path></g></g><g><g transform="matrix(1,0,0,1,593,480.580625)"><path transform="matrix(0.03519,0,0,-0.03519,0,0)" d="M555 243L555 299L51 299L51 243Z" stroke="rgb(0,0,0)" stroke-opacity="1" stroke-width="8" fill="rgb(0,0,0)" fill-opacity="1"></path></g></g><g><g transform="matrix(1,0,0,1,614.28125,480.580625)"><path transform="matrix(0.03519,0,0,-0.03519,0,0)" d="M843 284C843 380 792 461 687 461C600 461 516 378 463 315C419 387 334 463 245 463C129 463 55 352 55 244C55 148 109 66 213 66C296 66 389 152 436 216C485 143 561 65 655 65C771 65 843 179 843 284ZM783 236C783 166 748 108 673 108C594 108 522 226 481 284C513 332 597 409 656 409C740 409 783 307 783 236ZM418 245C387 198 301 122 243 122C159 122 117 224 117 296C117 366 153 424 229 424C300 424 387 304 418 245Z" stroke="rgb(0,0,0)" stroke-opacity="1" stroke-width="8" fill="rgb(0,0,0)" fill-opacity="1"></path></g></g></g></g></svg>
</svg>
