<svg id="Calque_1" data-name="Calque 1" xmlns="http://www.w3.org/2000/svg" viewBox="0 0 420.9671 214.86273"><defs><style>.cls-1{fill:#ed4c5c;}.cls-2{fill:#fff;}.cls-3{fill:#64892f;}.cls-4{fill:#8cc63e;}.cls-11,.cls-5{fill:#3e4347;}.cls-6{fill:#6b6b6d;}.cls-7{fill:#fcfcfa;}.cls-8{fill:#c94747;}.cls-9{fill:#f55;}.cls-10{fill:#ceff80;}.cls-11{fill-rule:evenodd;}.cls-12{fill:#555e63;}.cls-13{fill:#d1dbe3;}.cls-14{fill:#e4eef7;}.cls-15{fill:#42ade2;}</style></defs><path class="cls-1" d="M445.493,274.51794c-.95669.40873-1.493,1.28836-2.46188.438-.962-.84347-1.30481-.71591-1.71247-.59314a1.47127,1.47127,0,0,1,1.24155.53946c.62347.61121.919,1.22458,2.26312.71646a4.81716,4.81716,0,0,1,2.43427-.38958C447.73325,275.35666,447.73538,273.46347,445.493,274.51794Z" transform="translate(-80.55599 -163.23736)"/><polygon class="cls-2" points="358.6 112.023 358.95 111.336 361.323 110.628 358.006 110.628 358.6 112.023"/><polygon class="cls-2" points="361.916 112.9 359.407 112.152 359.194 111.735 358.6 112.9 361.916 112.9"/><path class="cls-3" d="M455.19226,296.80783c-1.62158-.13608-2.19031.58676-3.01041.47833a2.65923,2.65923,0,0,0,1.11667.36728,5.27833,5.27833,0,0,1-3.24264.29392,3.78908,3.78908,0,0,0,3.09543.93863,1.88,1.88,0,0,1-.625.73718,2.36706,2.36706,0,0,0,1.92825-.37473s.12277.25034-.48685.67182C457.88269,299.66461,456.91165,296.95187,455.19226,296.80783Z" transform="translate(-80.55599 -163.23736)"/><path class="cls-3" d="M452.564,287.61243c-.26151-.784-1.79276-.74836-1.79276-.74836.00321,1.10444-2.50812,1.92667-2.50812,1.92667a1.69165,1.69165,0,0,0-.98806-1.553c-1.25379,2.05106-1.8714.81479-1.8714.81479a1.42236,1.42236,0,0,0,.37683-1.64551c-2.45764.47357-.69785-1.37869-.69785-1.37869.25723,1.17087,1.70239.64789,1.70239.64789-.43212-1.73587,1.98459-1.51157,1.98459-1.51157a1.055,1.055,0,0,0,.40714,1.43662c.96359-.82224,3.51639-.72443,3.51639-.72443a3.178,3.178,0,0,0-1.18314,1.46375,11.39479,11.39479,0,0,0,3.28305-.33219A4.0793,4.0793,0,0,1,452.564,287.61243Zm16.92389-9.97937a7.52158,7.52158,0,0,0-2.55863-3.30646,2.67959,2.67959,0,0,1,1.52805-.09992c-1.2623-1.76083-4.16162-2.23281-4.16162-2.23281a4.96145,4.96145,0,0,1,1.59289-.4693,7.36223,7.36223,0,0,0-4.50177-.7526,1.82709,1.82709,0,0,1,.81479-.93011,8.8015,8.8015,0,0,0-5.16031.30877c.06644-.57452.83075-1.08422.83075-1.08422-1.14593-.31147-4.454.565-4.454.565a1.49554,1.49554,0,0,0-.32687-1.4393,6.95462,6.95462,0,0,1-3.45737.76907,3.28627,3.28627,0,0,1,.65161-.93118c-5.51266,0-4.8313,3.05929-4.83023,3.05984,0,0,17.643-1.27029,17.643,7.29691,0,8.969-20.1081-1.62427-20.1081,8.101,0,10.67246,21.45862-1.70874,21.45862,6.41944,0,4.54162-6.78506,5.25912-6.78506,5.25912-.98011.29074-.573.98807-.573.98807.74728-.69574,3.06992-.69681,3.06992-.69681a3.23429,3.23429,0,0,1-.54374.73294,6.70166,6.70166,0,0,0,3.33356-.97369c.08609.33963-.45389.81265-.45389.81265a3.255,3.255,0,0,0,2.9567-1.76086.59577.59577,0,0,1,.38214.62292,3.56929,3.56929,0,0,0,1.99045-2.81427,3.53136,3.53136,0,0,1,.94128.47568,4.07966,4.07966,0,0,0-.6091-3.56473c.15521.15891.92429.19824.92429.19824a3.019,3.019,0,0,0-1.51157-2.62454c.46506-.53574,1.44513-.05,1.44513-.05a3.6142,3.6142,0,0,0-3.60406-2.20889,3.86869,3.86869,0,0,1,1.47808-.76428c-1.24585-.83551-4.29342-.4151-4.29342-.4151a4.67743,4.67743,0,0,0,3.30908-2.44278,6.04371,6.04371,0,0,1,.04623,1.45419,3.78252,3.78252,0,0,0,1.48661-3.55359c.6314.18973.93863,1.04544.93863,1.04544a3.96857,3.96857,0,0,0-.135-4.44543A1.81113,1.81113,0,0,0,469.48792,277.63306Z" transform="translate(-80.55599 -163.23736)"/><path class="cls-4" d="M453.54251,288.19971c-8.03464,2.99179-9.965.91577-9.965-1.95591,0-4.55917,7.00882-2.514,9.965-1.95376,4.16376.78662,13.95178,1.70981,13.95178-5.86347,0-9.77261-18.93454-7.81829-18.93454-7.81829v5.864c3.67478-.67233,13.95175-1.83527,13.95175,1.95483,0,2.97214-3.36328,3.66468-8.969,1.9538-5.60568-1.70984-13.95123-3.42285-13.95123,5.86346,0,9.28788,7.5361,8.12391,13.95126,5.86292,6.41513-2.25885,10.46408-.97794,10.46408.978,0,2.53149-4.8887,4.02926-7.98361,4.77706a1.58766,1.58766,0,0,0-1.77945-.30294,1.12435,1.12435,0,0,1,.29657.25937,4.61056,4.61056,0,0,1-1.764.53363,2.03127,2.03127,0,0,0,2.12174.3258,1.37666,1.37666,0,0,1-.08716.67871,1.40247,1.40247,0,0,0,1.18735-.79724c8.61236-.21792,11.49679-1.90753,11.49679-5.96393C467.49426,288.07748,461.57712,285.20581,453.54251,288.19971Z" transform="translate(-80.55599 -163.23736)"/><path class="cls-3" d="M449.40109,269.5878c2.90143,0,4.12653,1.78583,5.91287,1.3399a1.96729,1.96729,0,0,1-2.25885,1.19587,3.69166,3.69166,0,0,0,3.32132.96359,2.36676,2.36676,0,0,1-3.28836,1.0412,2.7831,2.7831,0,0,0,1.39518,2.23654,2.93919,2.93919,0,0,1-2.7457-.04413s-.43.42947.09991,1.28412a2.60419,2.60419,0,0,1-1.74969-1.03006Z" transform="translate(-80.55599 -163.23736)"/><path class="cls-4" d="M447.56317,269.14346c-2.68194,0-4.235,1.44675-4.235,2.4433a1.20971,1.20971,0,0,0,.06271.36511c-.06433.16211-1.11987-.36566-1.80655-.36566a1.99359,1.99359,0,0,0-1.14166.35611,1.48581,1.48581,0,1,0-1.34946,2.08664h6.97534a.97735.97735,0,1,1,0,1.95432h-7.4739a.97761.97761,0,1,0,0,1.95486h8.96847a4.39819,4.39819,0,1,0,0-8.79468Z" transform="translate(-80.55599 -163.23736)"/><ellipse class="cls-2" cx="364.32472" cy="108.43177" rx="0.99655" ry="0.9769"/><path class="cls-5" d="M444.88071,271.18069a.48855.48855,0,1,1-.49854.48844A.49357.49357,0,0,1,444.88071,271.18069Z" transform="translate(-80.55599 -163.23736)"/><path class="cls-3" d="M443.50732,271.51978c.73877.34335,1.48661-1.15442,4.34339-1.071a3.303,3.303,0,0,0-2.691-.39065s-.19931-.515.58945-.91523c0,0-1.45313-.17276-1.78531,1.07309a.76776.76776,0,0,1-.515-.62878C443.4494,269.5878,442.43637,271.02176,443.50732,271.51978Z" transform="translate(-80.55599 -163.23736)"/><path class="cls-3" d="M440.44165,272.60562a2.3258,2.3258,0,0,1,2.50974.04041c2.48208,1.34839,3.17248-.877,4.79992.05313-1.49508-.29071-1.96014,1.69443-4.4013.89718-.99762-.3258-1.54294-.89718-2.27109-.43212C440.52563,273.51715,440.08768,272.90112,440.44165,272.60562Z" transform="translate(-80.55599 -163.23736)"/><path class="cls-5" d="M438.69357,272.49509c-.28753-.13874.31092-1.01569.59793-.87592C440.03824,271.98325,439.43713,272.86075,438.69357,272.49509Z" transform="translate(-80.55599 -163.23736)"/><path class="cls-3" d="M440.53891,278.13266c.48,1.14908,1.06671,1.23148,1.06671,1.23148a1.8786,1.8786,0,0,1-1.90646-.56394,4.27564,4.27564,0,0,0,1.61575,1.67529,1.88953,1.88953,0,0,1-2.44488-1.11721,2.13379,2.13379,0,0,0,.33535,1.48925C435.55029,278.95914,439.0704,274.62106,440.53891,278.13266Z" transform="translate(-80.55599 -163.23736)"/><path class="cls-5" d="M350.437,281.95837a2.473,2.473,0,0,0-.20886-1.56155,5.16144,5.16144,0,0,0,.39062-5.60513,2.66858,2.66858,0,0,0-.2312-3.49036s-.084-2.69788-1.865-2.90036l-4.109,2.43317a3.43955,3.43955,0,0,0,2.94077-.14136,3.049,3.049,0,0,0,.82114,1.63965,1.936,1.936,0,0,0,.05529,1.71567s-1.6062,1.511-1.98568,1.98886a6.41392,6.41392,0,0,0-1.248,3.12945l-9.31766,5.96869-5.37555.10471,1.485,1.55624s.41614-.04254.59207-.034l4.93707,3.77149-2.1531,1.81027c.86422.46506,9.3974-1.59662,9.3974-1.59662a1.40539,1.40539,0,0,0,.20782-2.14456l.1435-1.85175Z" transform="translate(-80.55599 -163.23736)"/><path class="cls-6" d="M347.91022,270.30957c-.82117.46985.60324,1.31653.59475,2.05264.8812.60376,1.78583-.52884,1.88309-1.0614.15518-.852-.03137-2.4433-1.257-2.70849C349.20175,268.8942,349.02423,269.67072,347.91022,270.30957Z" transform="translate(-80.55599 -163.23736)"/><path class="cls-6" d="M340.61066,289.57523c-2.6543,1.04971-6.32108,3.31228-3.51374,7.22836l-.01541-.02393c.01062.01648.01914.03241.03189.04889a2.61084,2.61084,0,0,1,.67554-3.07788c.67023-.7308,1.29419-1.36224,1.29419-1.36224a2.19511,2.19511,0,0,1,.86261,2.23388,20.65491,20.65491,0,0,1-2.35611,5.29743s11.69821-3.02368,6.708-9.55469A3.19722,3.19722,0,0,0,340.61066,289.57523Z" transform="translate(-80.55599 -163.23736)"/><path class="cls-6" d="M347.68912,280.721c-1.7417-.89505-3.91873-.85889-3.31443-.96518C346.74942,279.33545,349.4303,281.61716,347.68912,280.721Zm-1.35318,1.52646c-2.00321-1.03-4.50711-.988-3.81244-1.11081C345.25485,280.65353,348.33914,283.277,346.33594,282.2475Zm-2.18872,2.0282c-2.12543-1.207-4.8313-1.06141-4.076-1.23945C343.03851,282.33255,346.27267,285.48325,344.14722,284.2757Zm-6.77179-.60645c-.47888.06644-.91205.25247-1.32608.3476.38427-.414,1.08267-1.05927,1.41272-1.51636.22906.12225.49057.28488.69839.41775A3.38,3.38,0,0,0,337.37543,283.66925Zm4.008-2.894a2.06052,2.06052,0,0,0-.57986.99866c-.21527.05529-.63675.17486-.83444.23758a11.49875,11.49875,0,0,0-1.75183-.78766c.87112-.53415,1.105-.78876,1.19958-1.07416A7.09323,7.09323,0,0,1,341.38345,280.77527Zm4.19724-3.04495c2.17435-1.41751,5.19165,1.17672,3.35107.38427S345.02686,278.09067,345.58069,277.73032Zm.78393-1.70771c1.81293-1.182,4.328.98114,2.793.32C347.62375,275.68195,345.90381,276.32346,346.36462,276.02261Zm8.87174,12.4636a1.07636,1.07636,0,0,0,.18231-.96732c-.29977-1.29474.40976-2.55969-.26681-2.85257.10363-.43634-1.73322-2.42361-2.85575-2.5517-.55435-.73187-1.54239-.29126-2.0824-.29019.186-1.79486-1.94793-2.91687-1.98089-2.93969a2.43929,2.43929,0,0,1,1.76459,1.06829c1.27291-2.04519.97476-5.09121-.30509-5.76407,1.31653-.06964,1.442-1.53445.81586-2.514.03293,1.35531-.85361,1.95059-1.67157,1.317-.72867-.56393-1.037.33857-.7829.91895a7.6087,7.6087,0,0,0-3.25275,5.18155,8.35177,8.35177,0,0,0-2.34176.87326,4.08211,4.08211,0,0,0-2.74253-.94659c-1.6333-.92588-1.69973,1.38772-3.05346,2.19665-1.17352-.27158-1.31226,1.90915-2.08716,2.76431a2.07171,2.07171,0,0,0-1.56314.83072c-2.94873-1.10656-3.70136.64472-3.70136.64472-8.47577,1.79593-3.8273,9.23156-3.8273,9.23156a11.33018,11.33018,0,0,1,2.40769-4.18661,3.76227,3.76227,0,0,1,2.80044-1.32874c-1.27984,3.239.987,1.65454,1.26868.68085.49112-1.70239.168-3.3819-1.21286-4.25409.86154-.09781,1.03482.94873,1.42175.878.109-.76.57721-.72656.57721-.72656a2.28534,2.28534,0,0,0,.05,2.61072,1.84064,1.84064,0,0,0-.46613,2.26523c.59156,1.62478.83231,1.63064.76111.6968-.076-.96414.00052-1.029,2.03351-.743,2.03241.2854.31305,1.25806-.01968,1.66944-.04145.05209-.01224.08184.05954.09567,2.84774-.88867,2.87271-2.50284,1.8836-3.44251.81586.11109,1.09543,1.282,1.0141,1.5849a11.51927,11.51927,0,0,1,2.96149-1.40951,3.19578,3.19578,0,0,1,.06378-1.18842c.13553.30826.55383,1.19373.911,1.1847,1.81241-.04465,1.94211.91363,2.29022.49536.59049-.71222.085-1.38456-.55115-2.06913a3.63445,3.63445,0,0,1,1.03162,1.1034,11.64491,11.64491,0,0,1,1.56314-.1265c-.1196.785,1.36487,1.603,2.27426,2.03986-.574.68512.43265,2.312.20462,3.08215a.415.415,0,0,0,.34443.58731c-.01755.633,2.93173.66651.84188-.33749a1.07482,1.07482,0,0,0,.18283-.96735c-.28646-1.23944.35025-2.28488-.18762-2.591a.96906.96906,0,0,0-.68243-1.1055c-1.2283-.52408-1.51636-1.77307-2.12811-1.64447-.61707-.96625-2.28278-.161-2.92429-.42041.49747-1.05661-.56766-2.27747-2.06595-2.945,1.73056.50543,2.59638,1.046,2.71967,2.57614a2.11108,2.11108,0,0,0,2.126-1.012,7.55972,7.55972,0,0,0,2.03031-.36142c.08291.89185,1.61947,1.70557,2.52566,2.14035-.60589.675.42041,2.32208.18973,3.0986a.41737.41737,0,0,0,.34442.58945c-.0744.523,3.25488.60641.84244-.33752a1.07783,1.07783,0,0,0,.18228-.96839c-.29974-1.29577.4151-2.38321-.2652-2.63037.07651-.97476-1.8948-2.768-3.01785-2.92111a2.03629,2.03629,0,0,0-1.54825-.21045,1.52906,1.52906,0,0,0,.78131-.76962c.67606.27743,1.45789-.18708,2.27054-.25034.12915.80255,1.50043,1.49564,2.40289,1.91074-.4475.78872.49112,2.46347.27,3.20651a.41671.41671,0,0,0,.34549.58835C354.37747,289.30841,357.59833,289.6438,355.23636,288.48621Z" transform="translate(-80.55599 -163.23736)"/><path class="cls-7" d="M334.57657,284.29056a1.66527,1.66527,0,1,1-1.60352,1.66412A1.63467,1.63467,0,0,1,334.57657,284.29056Z" transform="translate(-80.55599 -163.23736)"/><path class="cls-5" d="M334.57657,284.81091a1.14453,1.14453,0,1,1-1.10285,1.14377A1.12388,1.12388,0,0,1,334.57657,284.81091Z" transform="translate(-80.55599 -163.23736)"/><ellipse class="cls-7" cx="257.75224" cy="123.30888" rx="1.83313" ry="1.9017"/><path class="cls-5" d="M338.30823,285.23822a1.30894,1.30894,0,1,1-1.25968,1.308A1.28452,1.28452,0,0,1,338.30823,285.23822Z" transform="translate(-80.55599 -163.23736)"/><path class="cls-8" d="M344.11481,273.15414l-3.1608-.13287c-.5448,2.23013,2.95935,1.83151,2.95935,2.77014,0,.3407-.50226.67023-.06857.52567A1.75611,1.75611,0,0,0,344.11481,273.15414Z" transform="translate(-80.55599 -163.23736)"/><path class="cls-6" d="M344.29019,269.65l.00266.00214c-2.66278.40927-3.78638,3.1911-3.05716,3.90012.55063.53576,1.37124.43637,2.61761-.52564a5.82118,5.82118,0,0,0,1.75235-2.33646,3.50182,3.50182,0,0,0,3.1778-1.98407C348.18076,267.53516,345.223,267.90775,344.29019,269.65Z" transform="translate(-80.55599 -163.23736)"/><path class="cls-5" d="M341.05872,272.53442c-.59317,1.34095,1.46957,2.0691,2.9046.76108,1.06512-.97156,2.00375-2.17593,1.66464-3.46695C343.55566,273.79831,341.17191,273.47623,341.05872,272.53442Z" transform="translate(-80.55599 -163.23736)"/><path class="cls-5" d="M338.03607,298.62024a2.78919,2.78919,0,0,0-.44644,1.2995c1.12518-1.12836,1.76032-1.05341,1.60672-2.17383-.15256-1.12091.35025-1.58224,1.15439-2.37311.80469-.78982-.607-1.64657-.608-2.50387-.00052-.85627-.853-1.58121-1.02845-.66333-.17324.9147-.61386.53256-1.53921,1.982a2.39583,2.39583,0,0,0-.10364,2.57883c.016.02179.025.04037.04093.06216,0,0-.2652-.71219.19293-.953.456-.244-.27213-.72125.16583-.93011.43475-.20252-.08929-.76908.58252-1.2501a1.874,1.874,0,0,0,.78607-.93756s.83658.47837.236,1.1677c-.60113.6968.033.65905.56925.82437.53573.16-1.12308.37362-.54959.86154.57455.47729-.78235.40182-.44165,1.01517.33749.62079-.76963.29709-.37314,1.0162C338.67761,298.36246,338.46448,297.95056,338.03607,298.62024Z" transform="translate(-80.55599 -163.23736)"/><path class="cls-5" d="M326.2305,293.63852c.26627-.62186-.17328-.44113.6091-.74835.7829-.30612-.10736-.55966.56445-.82117.67234-.25723-.17169-.78607.53574-.86047.70529-.076-.093-.9195.34494-.79831.43582.11746.77438.413.95883-.296.18442-.71219,1.04279-.67661,1.04279-.67661a1.51417,1.51417,0,0,0-.2732.95828c.02127.599-.71911.74625-.62344,1.063.09409.32685-.701.33322-.62027.67978.08026.36035-.62451.71539-.62451.71539,2.60489-.46719,3.48929-1.7752,3.81668-3.00189-.4693.97156-1.62372,1.08371-1.13422.195.607-1.10443-.6532-2.1366-1.32715-1.25272-.675.88547-1.64975.86579-2.31146,2.13553s-1.27933.19824-1.38986,1.57376a14.69115,14.69115,0,0,1-.31412,2.18286A3.43549,3.43549,0,0,0,326.2305,293.63852Z" transform="translate(-80.55599 -163.23736)"/><path class="cls-9" d="M97.493,293.69327c8.60014,8.30569,23.152,8.30569,31.78665-.03348L113.36826,268.03Z" transform="translate(-80.55599 -163.23736)"/><path class="cls-10" d="M99.54459,290.37726l-.59794.82434c6.2977,5.527,19.60742,7.70776,28.87352-.03934l-.59474-.81106A23.26109,23.26109,0,0,1,99.54459,290.37726Z" transform="translate(-80.55599 -163.23736)"/><path class="cls-4" d="M98.95675,291.19205,97.44092,293.646c8.60971,8.37,23.24444,8.37,31.88977-.034l-1.51051-2.44913A23.49313,23.49313,0,0,1,98.95675,291.19205Z" transform="translate(-80.55599 -163.23736)"/><path class="cls-11" d="M104.88559,287.45349a7.71063,7.71063,0,0,1,1.25008-2.44754,8.40966,8.40966,0,0,1,1.31332,2.50867,1.20939,1.20939,0,0,1-1.26549,1.21606A1.32211,1.32211,0,0,1,104.88559,287.45349Z" transform="translate(-80.55599 -163.23736)"/><path class="cls-11" d="M111.48411,289.8851a7.71063,7.71063,0,0,1,1.25008-2.44754,8.41,8.41,0,0,1,1.31333,2.50864,1.20907,1.20907,0,0,1-1.2655,1.21606A1.32137,1.32137,0,0,1,111.48411,289.8851Z" transform="translate(-80.55599 -163.23736)"/><path class="cls-11" d="M115.785,283.72824a7.70871,7.70871,0,0,1,1.25115-2.44754,8.40966,8.40966,0,0,1,1.31332,2.50867,1.20909,1.20909,0,0,1-1.26549,1.21606A1.322,1.322,0,0,1,115.785,283.72824Z" transform="translate(-80.55599 -163.23736)"/><path class="cls-11" d="M120.15015,289.54016a7.71084,7.71084,0,0,1,1.25008-2.44754,8.40539,8.40539,0,0,1,1.31332,2.50812,1.20981,1.20981,0,0,1-1.26549,1.21658A1.321,1.321,0,0,1,120.15015,289.54016Z" transform="translate(-80.55599 -163.23736)"/><path class="cls-11" d="M110.81974,278.06357a7.71052,7.71052,0,0,1,1.25008-2.44754,8.41007,8.41007,0,0,1,1.31333,2.50863,1.20971,1.20971,0,0,1-1.2655,1.21607A1.32138,1.32138,0,0,1,110.81974,278.06357Z" transform="translate(-80.55599 -163.23736)"/><path class="cls-3" d="M111.38047,296.05151v3.78531a24.182,24.182,0,0,0,4.0112-.00479v-3.78479A24.06651,24.06651,0,0,1,111.38047,296.05151Z" transform="translate(-80.55599 -163.23736)"/><path class="cls-3" d="M101.98627,293.22556l-1.15972,3.09967a22.25751,22.25751,0,0,0,3.57643,1.84909l1.24264-3.31867A22.50044,22.50044,0,0,1,101.98627,293.22556Z" transform="translate(-80.55599 -163.23736)"/><path class="cls-3" d="M124.779,293.20746a22.61962,22.61962,0,0,1-3.65722,1.63382l1.24051,3.31335a22.38056,22.38056,0,0,0,3.57537-1.85385Z" transform="translate(-80.55599 -163.23736)"/><path class="cls-5" d="M243.77953,273.2593a6.80315,6.80315,0,1,1-6.8026-6.80257A6.80493,6.80493,0,0,1,243.77953,273.2593Z" transform="translate(-80.55599 -163.23736)"/><ellipse class="cls-12" cx="156.42095" cy="110.02252" rx="4.09039" ry="4.10796"/><path class="cls-5" d="M223.37008,273.2593a6.80315,6.80315,0,1,1-6.80257-6.80257A6.80455,6.80455,0,0,1,223.37008,273.2593Z" transform="translate(-80.55599 -163.23736)"/><ellipse class="cls-12" cx="136.01151" cy="110.02195" rx="4.09038" ry="4.10798"/><path class="cls-13" d="M226.70021,269.85831a15.72653,15.72653,0,0,0-15.80257,16.111c0,4.35912,1.41845,5.08365,2.98147,8.0986,4.42263,8.53852,21.21959,8.5402,25.64335,0,1.56245-3.01495,3.12321-3.74118,3.12321-8.09632A15.8399,15.8399,0,0,0,226.70021,269.85831Z" transform="translate(-80.55599 -163.23736)"/><path class="cls-14" d="M219.37832,293.77874c0-3.84663,4.96347-5.30589,7.36443-5.30589,2.40036,0,7.3644,1.45926,7.3644,5.30589,0,4.89657-2.69746,6.02476-7.3644,6.02476C222.07636,299.8035,219.37832,298.67531,219.37832,293.77874Z" transform="translate(-80.55599 -163.23736)"/><rect class="cls-5" x="145.62719" y="130.49375" width="1.11799" height="2.84486"/><path class="cls-5" d="M226.74275,297.64123c-2.34087,0-4.47366-.733-4.47366-1.53809a.30291.30291,0,0,1,.09867-.22676.50867.50867,0,0,1,.34978-.12416,1.79318,1.79318,0,0,1,.59016.1559,9.99371,9.99371,0,0,0,6.87,0,1.78973,1.78973,0,0,1,.58961-.1559c.22337,0,.44731.12074.44731.35318C231.213,296.90818,229.08189,297.64123,226.74275,297.64123Z" transform="translate(-80.55599 -163.23736)"/><path class="cls-5" d="M222.243,293.43574c0-1.42923,2.00409-1.70646,4.4725-1.70646,2.469,0,4.47137.27553,4.47137,1.70646,0,1.14066-3.55862,1.5755-4.47137,1.5755C225.8022,295.01124,222.243,294.5764,222.243,293.43574Z" transform="translate(-80.55599 -163.23736)"/><path class="cls-5" d="M230.29738,281.1538c2.02338-2.02338,5.59956-1.72517,7.99143.66557,2.38961,2.3879,2.68726,5.96579.66444,7.98746C234.85494,293.90629,226.19963,285.25042,230.29738,281.1538Z" transform="translate(-80.55599 -163.23736)"/><circle class="cls-15" cx="153.41282" cy="121.58845" r="2.83465"/><circle class="cls-5" cx="153.41282" cy="121.58845" r="1.41732"/><path class="cls-5" d="M215.25618,281.81824c2.38961-2.39019,5.9675-2.68782,7.98861-.665,4.09831,4.09833-4.55642,12.75307-8.65305,8.65531C212.56837,287.784,212.86657,284.209,215.25618,281.81824Z" transform="translate(-80.55599 -163.23736)"/><circle class="cls-15" cx="139.0185" cy="121.58845" r="2.83465"/><circle class="cls-5" cx="139.0185" cy="121.58845" r="1.41732"/><path d="M465.82931,302.96479a8.92026,8.92026,0,0,0,4.747,7.75652c3.10942,1.76857,6.8829,2.09152,10.38941,1.8984a17.52275,17.52275,0,0,0,10.0034-3.58567,27.863,27.863,0,0,0,6.47025-7.54517c3.26751-5.42365,4.99683-12.137,3.59148-18.41481a15.60244,15.60244,0,0,0-4.40829-8.17853,8.42082,8.42082,0,0,0-8.4631-1.62945c-3.38144,1.06989-5.73275,3.72325-7.63224,6.59922-.53683.8128-2.2927,3.19113-.26582,3.27548.57917.0241,3.62255-.67763,2.64248-1.6845-.51534-.52944-3.17645.52892-2.73036.98722l.52633-.22378,1.44061-.26236c-.29482-.0179,1.49694-2.98132,1.66358-3.2219a18.757,18.757,0,0,1,2.62753-3.12138,5.861,5.861,0,0,1,2.623-1.63631,5.36339,5.36339,0,0,1,3.6772,1.00651c4.10139,2.65932,5.77406,8.216,5.88148,12.86075a26.54,26.54,0,0,1-3.93476,13.99018,28.73088,28.73088,0,0,1-4.76966,6.05116,11.51429,11.51429,0,0,1-7.68816,3.56678c-5.79789.31438-13.68812-2.17752-13.4936-9.26482.01207-.43985-2.87459-.06848-2.89778.77646Z" transform="translate(-80.55599 -163.23736)"/><path d="M476.61676,276.22674l-6.39916,8.66915c-.28134.38115.04045.62544.42395.676a70.2386,70.2386,0,0,0,16.27476.219c.46681-.04731,1.555-.34133,1.66853-.90216.12178-.60169-.9-.50829-1.21233-.47664a64.44118,64.44118,0,0,1-14.91228-.249l.42395.676,6.39916-8.66915c.39083-.52948-.33932-.69817-.74266-.69246a2.65051,2.65051,0,0,0-1.92392.74926Z" transform="translate(-80.55599 -163.23736)"/><path d="M350.68382,301.98531a8.92027,8.92027,0,0,0,4.747,7.75652c3.10943,1.76858,6.8829,2.09152,10.38941,1.8984a17.52278,17.52278,0,0,0,10.00341-3.58567,27.86292,27.86292,0,0,0,6.47024-7.54516c3.26752-5.42365,4.99684-12.137,3.59148-18.41482a15.60239,15.60239,0,0,0-4.40828-8.17853,8.42086,8.42086,0,0,0-8.46311-1.62945c-3.38143,1.0699-5.73274,3.72325-7.63224,6.59923-.53682.81279-2.29269,3.19113-.26581,3.27547.57917.0241,3.62255-.67762,2.64248-1.6845-.51534-.52943-3.17645.52893-2.73036.98722l.52633-.22378,1.4406-.26236c-.29481-.0179,1.497-2.98131,1.66359-3.22189a18.757,18.757,0,0,1,2.62752-3.12139,5.86119,5.86119,0,0,1,2.623-1.63631,5.36346,5.36346,0,0,1,3.67721,1.00651c4.10138,2.65933,5.77406,8.216,5.88147,12.86075a26.54009,26.54009,0,0,1-3.93475,13.99018,28.73034,28.73034,0,0,1-4.76967,6.05116,11.51425,11.51425,0,0,1-7.68815,3.56678c-5.79789.31438-13.68813-2.17752-13.49361-9.26481.01208-.43986-2.87458-.06849-2.89777.77645Z" transform="translate(-80.55599 -163.23736)"/><path d="M235.53832,301.13912a8.92029,8.92029,0,0,0,4.747,7.75652c3.10942,1.76857,6.8829,2.09152,10.38941,1.8984a17.52266,17.52266,0,0,0,10.0034-3.58568,27.8628,27.8628,0,0,0,6.47025-7.54516c3.26752-5.42365,4.99683-12.137,3.59148-18.41481a15.6025,15.6025,0,0,0-4.40829-8.17854,8.42085,8.42085,0,0,0-8.4631-1.62945c-3.38144,1.0699-5.73274,3.72326-7.63224,6.59923-.53683.8128-2.29269,3.19113-.26582,3.27548.57918.0241,3.62256-.67763,2.64249-1.68451-.51534-.52943-3.17646.52893-2.73036.98722l.52633-.22377,1.4406-.26237c-.29481-.01789,1.49695-2.98131,1.66358-3.22189a18.75791,18.75791,0,0,1,2.62753-3.12139,5.86117,5.86117,0,0,1,2.623-1.63631,5.36349,5.36349,0,0,1,3.6772,1.00651c4.10139,2.65933,5.77406,8.216,5.88148,12.86075a26.54007,26.54007,0,0,1-3.93476,13.99019,28.73055,28.73055,0,0,1-4.76966,6.05116,11.51432,11.51432,0,0,1-7.68816,3.56678c-5.79789.31437-13.68812-2.17753-13.4936-9.26482.01207-.43985-2.87459-.06849-2.89778.77646Z" transform="translate(-80.55599 -163.23736)"/><path d="M117.636,302.96479a8.92026,8.92026,0,0,0,4.747,7.75652c3.10942,1.76857,6.8829,2.09152,10.38941,1.8984a17.52272,17.52272,0,0,0,10.0034-3.58567,27.86285,27.86285,0,0,0,6.47025-7.54517c3.26752-5.42365,4.99683-12.137,3.59148-18.41481a15.60244,15.60244,0,0,0-4.40829-8.17853,8.42082,8.42082,0,0,0-8.4631-1.62945c-3.38144,1.06989-5.73274,3.72325-7.63224,6.59922-.53683.8128-2.29269,3.19113-.26582,3.27548.57917.0241,3.62256-.67763,2.64248-1.6845-.51533-.52944-3.17645.52892-2.73036.98722l.52634-.22378,1.4406-.26236c-.29482-.0179,1.49694-2.98132,1.66358-3.2219a18.757,18.757,0,0,1,2.62753-3.12138,5.861,5.861,0,0,1,2.623-1.63631,5.36339,5.36339,0,0,1,3.6772,1.00651c4.10139,2.65932,5.77406,8.216,5.88148,12.86075a26.54,26.54,0,0,1-3.93476,13.99018,28.73055,28.73055,0,0,1-4.76966,6.05116,11.51427,11.51427,0,0,1-7.68816,3.56678c-5.79789.31438-13.68812-2.17752-13.4936-9.26482.01207-.43985-2.87459-.06848-2.89778.77646Z" transform="translate(-80.55599 -163.23736)"/><path d="M364.00281,275.22674l-6.39915,8.66915c-.28135.38115.04044.62544.42394.676a70.2386,70.2386,0,0,0,16.27476.219c.46681-.04731,1.555-.34133,1.66854-.90216.12177-.60169-.9-.50829-1.21234-.47664a64.44119,64.44119,0,0,1-14.91228-.249l.424.676,6.39916-8.66915c.39083-.52948-.33932-.69817-.74266-.69246a2.65051,2.65051,0,0,0-1.92392.74926Z" transform="translate(-80.55599 -163.23736)"/><path d="M249.71154,274.21215l-6.39916,8.66914c-.28135.38115.04045.62545.424.676a70.23914,70.23914,0,0,0,16.27476.219c.46681-.04731,1.555-.34134,1.66853-.90216.12178-.60169-.9-.5083-1.21233-.47665a64.44173,64.44173,0,0,1-14.91228-.249l.42395.676,6.39915-8.66914c.39084-.52948-.33931-.69818-.74265-.69246a2.65051,2.65051,0,0,0-1.92392.74926Z" transform="translate(-80.55599 -163.23736)"/><path d="M131.2893,275.464l-6.39916,8.66914c-.28135.38116.04045.62545.42395.676a70.23859,70.23859,0,0,0,16.27476.219c.46681-.04731,1.555-.34134,1.66853-.90216.12178-.60169-.9-.5083-1.21233-.47665a64.44118,64.44118,0,0,1-14.91228-.249l.42394.676,6.39916-8.66914c.39084-.52948-.33931-.69817-.74265-.69246a2.65051,2.65051,0,0,0-1.92392.74926Z" transform="translate(-80.55599 -163.23736)"/><path d="M115.76585,257.04277c-1.45166-7.17739,4.57836-12.51986,10.43472-15.24829a75.28892,75.28892,0,0,1,21.077-6.102c13.66107-1.93323,27.79137-.01586,39.96666,6.65728a53.83621,53.83621,0,0,1,16.371,13.6977c.73086.9214,3.50956-.15719,2.66873-1.21723-8.60819-10.85238-21.39462-17.97035-34.92426-20.56259a77.6228,77.6228,0,0,0-46.19409,5.945c-6.77426,3.11642-13.98118,9.28182-12.29747,17.60652.242,1.19631,3.14848.46308,2.89778-.77646Z" transform="translate(-80.55599 -163.23736)"/><path d="M195.81855,260.16087a47.4229,47.4229,0,0,0,7.0125,3.22268c2.20179.80024,4.929,1.77575,6.97336.05479a4.89511,4.89511,0,0,0,1.40637-2.8162q.46833-1.94469.85616-3.90778.77859-3.925,1.24381-7.90207c.16082-1.35866-2.78108-.90759-2.9211.27538q-.38632,3.26388-.97574,6.49862-.30973,1.68639-.67675,3.36158a20.84657,20.84657,0,0,1-.72016,2.95263,4.78264,4.78264,0,0,1-.23054.469c-.08948.17513-.2434.13154-.05606.09984a2.39048,2.39048,0,0,1-.92485-.14634,30.6758,30.6758,0,0,1-2.90719-.98763,43.58376,43.58376,0,0,1-5.81847-2.74367,2.05667,2.05667,0,0,0-2.06794.21178c-.435.30657-.8204,1.00529-.1934,1.35735Z" transform="translate(-80.55599 -163.23736)"/><path d="M93.47771,260.35325c-4.289-5.23884-5.29271-12.3004-3.81945-18.79469,1.54772-6.82257,5.79339-12.74762,10.56378-17.71637,10.02456-10.44141,22.869-17.73628,35.92909-23.69266A390.92076,390.92076,0,0,1,224.758,172.43744c30.29626-5.79132,61.621-8.60167,92.4264-6.11909,28.75444,2.31729,57.41817,9.63311,82.32321,24.52276,21.61436,12.9223,40.36195,31.20824,51.78485,53.82058,1.46168,2.89346,2.78111,5.85439,3.98642,8.86326.52963,1.32216,3.41142.50579,2.89777-.77646-9.71412-24.2499-27.59554-44.39367-49.10836-58.93806-24.13168-16.31494-52.40107-25.19567-81.16973-28.66375-31.59945-3.80934-63.86412-1.585-95.15825,3.723a408.56459,408.56459,0,0,0-92.09125,26.97292c-13.40655,5.72835-26.65729,12.49827-37.68008,22.17756-9.9014,8.69458-19.48307,21.0565-16.29257,35.085a20.68472,20.68472,0,0,0,4.15175,8.537c.85075,1.03916,3.602-.1255,2.64953-1.28888Z" transform="translate(-80.55599 -163.23736)"/><path d="M460.87136,252.66924l2.40757,8.1825,2.39358-.96067a53.315,53.315,0,0,1-9.91176-1.7842,28.42941,28.42941,0,0,1-4.49812-1.50351,2.71825,2.71825,0,0,1-1.4939-1.35607,1.38023,1.38023,0,0,1,.30987-1.63982c.5315-.40664-.472-.45272-.67425-.43718a3.77432,3.77432,0,0,0-1.94186.68232,2.01587,2.01587,0,0,0,.23825,3.23024,7.1689,7.1689,0,0,0,2.10729.98988q1.33295.4722,2.68815.8773a55.69691,55.69691,0,0,0,11.287,2.08592c.36122.03,2.57529-.34311,2.39358-.96067l-2.40757-8.1825c-.18175-.6177-3.07285.18146-2.89778.77646Z" transform="translate(-80.55599 -163.23736)"/><path d="M237.6846,256.38341c5.0333-11.01978,16.7433-16.50021,27.482-20.52136a175.69856,175.69856,0,0,1,41.3767-9.97993,170.15717,170.15717,0,0,1,42.2.18026,77.08961,77.08961,0,0,1,20.946,5.65882,133.08835,133.08835,0,0,1,18.58938,10.60928,392.89634,392.89634,0,0,1,38.71007,28.80043c.62315.52574,3.22673-.58808,2.72357-1.01258A393.04916,393.04916,0,0,0,393.743,243.1218a163.36448,163.36448,0,0,0-19.01265-11.33736,75.80422,75.80422,0,0,0-20.837-6.4792,166.878,166.878,0,0,0-43.82385-.92193,185.39367,185.39367,0,0,0-42.67758,9.54649c-12.36048,4.35586-26.76043,10.21435-32.5722,22.93847-.24149.52873,2.51046.2913,2.865-.48486Z" transform="translate(-80.55599 -163.23736)"/><path d="M431.22451,270.283a12.50055,12.50055,0,0,1,2.60953,6.62543l2.27639-1.398L424.17911,270.92a1.91152,1.91152,0,0,0-2.049.549.9.9,0,0,0,.394,1.47055L434.45542,277.53c.96038.3695,2.38026-.27123,2.2764-1.398a13.70145,13.70145,0,0,0-2.86119-7.15055,1.649,1.649,0,0,0-1.9769-.24869c-.51731.256-1.12795.96422-.66922,1.55027Z" transform="translate(-80.55599 -163.23736)"/><path d="M213.53615,308.26874c.94655,8.3117-5.12207,14.98287-11.33155,19.5981a83.61115,83.61115,0,0,1-11.247,6.77273,100.21763,100.21763,0,0,1-13.40369,5.86926,60.02228,60.02228,0,0,1-28.80371,3.01771c-9.22673-1.38991-18.8849-4.34206-26.73738-9.49959-8.22558-5.4026-14.73283-14.7467-13.31167-24.97993.15259-1.09872-2.76075-.58292-2.894.37652-1.30135,9.37049,3.80009,18.28173,11.01258,23.9281,7.75243,6.06906,17.77821,9.39183,27.34306,11.23268a64.215,64.215,0,0,0,30.96774-1.76732,101.62975,101.62975,0,0,0,27.10008-12.88567c7.45028-5.0415,15.32122-12.62279,14.20333-22.439-.10513-.92317-3.0192-.2898-2.89778.77645Z" transform="translate(-80.55599 -163.23736)"/><path d="M101.78547,311.72078a15.09738,15.09738,0,0,1,2.92824-5.29078,3.72719,3.72719,0,0,1,4.34859-1.02409,16.449,16.449,0,0,1,3.3592,2.87172,7.78108,7.78108,0,0,0,4.04939,2.191,1.80138,1.80138,0,0,0,1.8797-.91428c.28019-.68562-.26348-1.2172-.9113-1.32183-1.58439-.25591-2.76652-1.66436-3.86131-2.72478a8.4299,8.4299,0,0,0-4.65636-2.69453,7.894,7.894,0,0,0-6.35134,2.34779,17.16956,17.16956,0,0,0-3.5758,6.15221c-.6397,1.59326,2.27242,1.69912,2.791.40755Z" transform="translate(-80.55599 -163.23736)"/><path d="M335.44414,312.27093c-3.12069,9.02083-.51189,18.9518,5.11328,26.4063,6.01242,7.96768,15.45162,12.6584,24.96839,14.992,10.2712,2.51864,21.5798,3.07857,31.71841-.29678,9.15618-3.04829,16.40827-9.6192,21.83057-17.44708a93.88433,93.88433,0,0,0,7.94727-14.63712c2.43419-5.32538,4.93151-10.70853,8.97312-15.03189.45105-.4825-.39668-.56019-.70459-.5504a3.03362,3.03362,0,0,0-1.9339.712c-6.58851,7.04782-9.22684,16.633-13.92891,24.8649-4.48181,7.84629-10.56145,15.29586-18.74339,19.46452-9.25394,4.71484-20.45033,4.32414-30.37913,2.28552-9.30878-1.91132-18.54823-5.90012-25.06592-13.016-6.81248-7.43777-10.30848-18.45813-6.92912-28.22668.21866-.63207-2.59385-.30622-2.86608.48071Z" transform="translate(-80.55599 -163.23736)"/><path d="M429.105,304.78858a8.92212,8.92212,0,0,0,2.207-.29989c.29462-.07885.585-.17291.87364-.2711.223-.07587.44519-.15479.66738-.233.04979-.01752.45713-.15975.19885-.07032.28107-.09732.56289-.19319.849-.275.13754-.03932.27632-.07269.41491-.10794.27809-.07072-.086.00121.0807-.01327.04869-.00423.42137-.026.27638-.028-.22744-.00312.33721.05624.16055.02043a1.40216,1.40216,0,0,1,.45683.232,3.0728,3.0728,0,0,1,.87695,1.41525c.28467.75292.54717,1.51485.81981,2.27221l1.69579,4.71074c.22541.62617,1.15311.56916,1.66842.43108.42057-.11269,1.45265-.58724,1.22936-1.20754l-1.83711-5.1033c-.499-1.38625-.86571-3.14871-2.17268-4.01593a5.00476,5.00476,0,0,0-4.109-.24433c-.286.08207-.5678.17779-.849.275-.246.085-.49114.17275-.73678.2589q-.1521.05372.0157-.00554-.145.05037-.29052.099c-.28843.09585-.57895.18613-.87391.25984-.055.01374-.44931.0856-.18792.04589-.05233.00795-.57313.05114-.35091.048a2.199,2.199,0,0,0-1.9036.8251c-.331.57819.28344.98919.82016.98169Z" transform="translate(-80.55599 -163.23736)"/><path d="M234.3712,305.49894a16.38907,16.38907,0,0,0-5.84861-2.95135,2.34185,2.34185,0,0,0-1.4628.17953c-.31475.1372-.81389.41825-.86773.80943a23.048,23.048,0,0,1-2.24,7.26371c-.29613.58547.2614.90454.80233.91516.59118.0116,1.60341-.20493,1.90827-.80766a24.47331,24.47331,0,0,0,2.43344-7.71018l-2.33053.989a14.04277,14.04277,0,0,1,4.92114,2.47088,1.91883,1.91883,0,0,0,1.92653.06071c.28739-.13376,1.30172-.79182.75794-1.21919Z" transform="translate(-80.55599 -163.23736)"/><path d="M316.988,302.33383a64.53356,64.53356,0,0,1-67.41289,18.62455c-7.01128-2.3048-13.89846-6.04845-17.86119-12.50206-.64662-1.05306-3.42448.00494-2.65993,1.25007,3.64,5.92808,9.761,9.70207,16.11882,12.16626a62.19158,62.19158,0,0,0,19.19242,4.0192,70.2092,70.2092,0,0,0,37.92191-8.91575,65.16635,65.16635,0,0,0,17.10722-13.85779c1.18767-1.36365-1.585-1.72749-2.40636-.78448Z" transform="translate(-80.55599 -163.23736)"/><path d="M328.74008,312.66269c1.58648,10.49885-4.24486,20.41339-10.67663,28.21234a86.43175,86.43175,0,0,1-21.14237,18.26058c-17.35225,10.78613-37.51073,15.69378-57.72464,17.16989a265.62337,265.62337,0,0,1-34.24733.00257,335.24222,335.24222,0,0,1-35.27095-3.41527,269.24979,269.24979,0,0,1-33.34627-8.151c-5.44853-1.6243-10.95422-3.16334-16.30744-5.08387a48.25581,48.25581,0,0,1-14.16568-7.82934c-14.73408-11.8732-28.03506-32.30146-20.11421-51.6988a26.98487,26.98487,0,0,1,3.47408-6.11939c.58785-.77442-2.1925-.39917-2.63319.18139C80.66623,301.98961,79.325,312.353,81.60354,321.734c2.415,9.943,8.57744,18.59315,15.68152,25.77092a55.43418,55.43418,0,0,0,12.77524,9.99627c5.03972,2.72988,10.56958,4.3586,16.02653,6.02053,11.40771,3.47426,22.847,6.92822,34.54428,9.304,11.77528,2.39159,23.762,3.44835,35.733,4.28958a314.71919,314.71919,0,0,0,35.37616.77515c21.25543-.901,42.64563-5.0823,61.52682-15.2196a94.296,94.296,0,0,0,22.998-17.04092c6.99441-7.17208,13.83178-16.1757,15.35657-26.33367a24.78034,24.78034,0,0,0,.01616-7.41c-.09528-.63054-3.01661-.00994-2.89777.77646Z" transform="translate(-80.55599 -163.23736)"/><path d="M87.85155,286.663l3.567,2.432,1.73255,1.18126c.2696.18381,1.01041.47957.99569.86421-.00738.19254-.25556.46521-.36224.61657q-.31549.44759-.63053.8955l-1.191,1.69151-2.52209,3.582c-1.06363,1.51062,1.64915,2.00258,2.434.88783l2.80232-3.98,1.40117-1.99a4.37763,4.37763,0,0,0,1.01546-1.99572c.1311-1.49908-1.81093-2.333-2.83657-3.03229l-4.1785-2.84891a1.87419,1.87419,0,0,0-2.08.16667c-.48422.37359-.75223,1.117-.14732,1.52938Z" transform="translate(-80.55599 -163.23736)"/></svg>