<svg xmlns="http://www.w3.org/2000/svg" xmlns:xlink="http://www.w3.org/1999/xlink" x="0" y="0" width="562" height="492.328125" style="
        width:562px;
        height:492.328125px;
        background: transparent;
        fill: none;
">
        
        
        <svg xmlns="http://www.w3.org/2000/svg" class="role-diagram-draw-area"><g class="shapes-region" style="stroke: black; fill: none;"><g class="composite-shape"><path class="real" d=" M315,249 L435.5,249 L435.5,330 L315,330 Z" style="stroke-width: 1; stroke: none; fill: rgb(255, 255, 255); fill-opacity: 1;"/><path class="real" d=" M315,249 L315,330 M335,249 L335,330 M355,249 L355,330 M375,249 L375,330 M395,249 L395,330 M415,249 L415,330 M435,249 L435,330" style="stroke-width: 1; stroke: rgb(0, 0, 0); fill: none; fill-opacity: 1;"/><path class="real" d=" M315,249 L435.5,249 M315,269 L435.5,269 M315,289 L435.5,289 M315,309 L435.5,309 M315,329 L435.5,329" style="stroke-width: 1; stroke: rgb(0, 0, 0); fill: none; fill-opacity: 1;"/><path class="real" d=" " style="stroke-width: 1; stroke: rgb(0, 0, 0); fill: none; fill-opacity: 1;"/></g><g class="composite-shape"><path class="real" d=" M315,249 L335,249 L335,269 L315,269 Z" style="stroke-width: 1; stroke: none; stroke-opacity: 1; fill: rgb(128, 128, 128); fill-opacity: 1;"/></g><g class="composite-shape"><path class="real" d=" M335,289 L355,289 L355,309 L335,309 Z" style="stroke-width: 1; stroke: none; stroke-opacity: 1; fill: rgb(128, 128, 128); fill-opacity: 1;"/></g><g class="composite-shape"><path class="real" d=" M375,309 L395,309 L395,329 L375,329 Z" style="stroke-width: 1; stroke: none; stroke-opacity: 1; fill: rgb(128, 128, 128); fill-opacity: 1;"/></g><g class="composite-shape"><path class="real" d=" M395,269 L415,269 L415,289 L395,289 Z" style="stroke-width: 1; stroke: none; stroke-opacity: 1; fill: rgb(128, 128, 128); fill-opacity: 1;"/></g><g class="composite-shape"><path class="real" d=" M134,248 L254.5,248 L254.5,329 L134,329 Z" style="stroke-width: 1; stroke: none; fill: rgb(184, 233, 134); fill-opacity: 1;"/><path class="real" d=" M134,248 L134,329 M154,248 L154,329 M174,248 L174,329 M194,248 L194,329 M214,248 L214,329 M234,248 L234,329 M254,248 L254,329" style="stroke-width: 1; stroke: rgb(0, 0, 0); fill: none; fill-opacity: 1;"/><path class="real" d=" M134,248 L254.5,248 M134,268 L254.5,268 M134,288 L254.5,288 M134,308 L254.5,308 M134,328 L254.5,328" style="stroke-width: 1; stroke: rgb(0, 0, 0); fill: none; fill-opacity: 1;"/><path class="real" d=" " style="stroke-width: 1; stroke: rgb(0, 0, 0); fill: none; fill-opacity: 1;"/></g><g class="composite-shape"><path class="real" d=" M223,365 L343.5,365 L343.5,446 L223,446 Z" style="stroke-width: 1; stroke: none; fill: rgb(184, 233, 134); fill-opacity: 1;"/><path class="real" d=" M223,365 L223,446 M243,365 L243,446 M263,365 L263,446 M283,365 L283,446 M303,365 L303,446 M323,365 L323,446 M343,365 L343,446" style="stroke-width: 1; stroke: rgb(0, 0, 0); fill: none; fill-opacity: 1;"/><path class="real" d=" M223,365 L343.5,365 M223,385 L343.5,385 M223,405 L343.5,405 M223,425 L343.5,425 M223,445 L343.5,445" style="stroke-width: 1; stroke: rgb(0, 0, 0); fill: none; fill-opacity: 1;"/><path class="real" d=" " style="stroke-width: 1; stroke: rgb(0, 0, 0); fill: none; fill-opacity: 1;"/></g><g class="composite-shape"><path class="real" d=" M223,365 L243,365 L243,385 L223,385 Z" style="stroke-width: 1; stroke: none; stroke-opacity: 1; fill: rgb(128, 128, 128); fill-opacity: 1;"/></g><g class="composite-shape"><path class="real" d=" M243,405 L263,405 L263,425 L243,425 Z" style="stroke-width: 1; stroke: none; stroke-opacity: 1; fill: rgb(128, 128, 128); fill-opacity: 1;"/></g><g class="composite-shape"><path class="real" d=" M283,425 L303,425 L303,445 L283,445 Z" style="stroke-width: 1; stroke: none; stroke-opacity: 1; fill: rgb(128, 128, 128); fill-opacity: 1;"/></g><g class="composite-shape"><path class="real" d=" M303,385 L323,385 L323,405 L303,405 Z" style="stroke-width: 1; stroke: none; stroke-opacity: 1; fill: rgb(128, 128, 128); fill-opacity: 1;"/></g><g class="arrow-line"><path class="connection real" stroke-dasharray="" d="  M254,288 L315,289" style="stroke: rgb(0, 0, 0); stroke-width: 1; fill: none; fill-opacity: 1;"/></g><g class="arrow-line"><path class="connection real" stroke-dasharray="" d="  M284.5,288.5 L283.04,363" style="stroke: rgb(0, 0, 0); stroke-width: 1; fill: none; fill-opacity: 1;"/><g stroke="#000" transform="matrix(0.019546442744821407,-0.9998089500379677,0.9998089500379677,0.019546442744821407,283,365)" style="stroke: rgb(0, 0, 0); stroke-width: 1;"><path d=" M10.93,-3.29 Q4.96,-0.45 0,0 Q4.96,0.45 10.93,3.29"/></g></g><g class="composite-shape"><path class="real" d=" M380,423 L400,423 L400,443 L380,443 Z" style="stroke-width: 1; stroke: none; stroke-opacity: 1; fill: rgb(128, 128, 128); fill-opacity: 1;"/></g><g class="composite-shape"><path class="real" d=" M380,391 L400,391 L400,411 L380,411 Z" style="stroke-width: 1; stroke: rgb(8, 0, 0); stroke-opacity: 1; fill: none; fill-opacity: 1;"/></g><g class="composite-shape"><path class="real" d=" M243,365 L263,365 L263,385 L243,385 Z" style="stroke-width: 1; stroke: none; stroke-opacity: 1; fill: rgb(128, 128, 128); fill-opacity: 1;"/></g><g class="composite-shape"><path class="real" d=" M335,249 L355,249 L355,269 L335,269 Z" style="stroke-width: 1; stroke: none; stroke-opacity: 1; fill: rgb(128, 128, 128); fill-opacity: 1;"/></g><g class="composite-shape"><path class="real" d=" M355,269 L375,269 L375,289 L355,289 Z" style="stroke-width: 1; stroke: none; stroke-opacity: 1; fill: rgb(128, 128, 128); fill-opacity: 1;"/></g><g class="composite-shape"><path class="real" d=" M375,289 L395,289 L395,309 L375,309 Z" style="stroke-width: 1; stroke: none; stroke-opacity: 1; fill: rgb(128, 128, 128); fill-opacity: 1;"/></g><g class="composite-shape"><path class="real" d=" M395,309 L415,309 L415,329 L395,329 Z" style="stroke-width: 1; stroke: none; stroke-opacity: 1; fill: rgb(128, 128, 128); fill-opacity: 1;"/></g><g class="composite-shape"><path class="real" d=" M315,289 L335,289 L335,309 L315,309 Z" style="stroke-width: 1; stroke: none; stroke-opacity: 1; fill: rgb(128, 128, 128); fill-opacity: 1;"/></g><g class="composite-shape"><path class="real" d=" M355,309 L375,309 L375,329 L355,329 Z" style="stroke-width: 1; stroke: none; stroke-opacity: 1; fill: rgb(128, 128, 128); fill-opacity: 1;"/></g><g class="composite-shape"><path class="real" d=" M415,249 L435,249 L435,269 L415,269 Z" style="stroke-width: 1; stroke: none; stroke-opacity: 1; fill: rgb(128, 128, 128); fill-opacity: 1;"/></g><g class="composite-shape"><path class="real" d=" M415,289 L435,289 L435,309 L415,309 Z" style="stroke-width: 1; stroke: none; stroke-opacity: 1; fill: rgb(128, 128, 128); fill-opacity: 1;"/></g><g class="composite-shape"><path class="real" d=" M375,249 L395,249 L395,269 L375,269 Z" style="stroke-width: 1; stroke: none; stroke-opacity: 1; fill: rgb(128, 128, 128); fill-opacity: 1;"/></g><g class="composite-shape"><path class="real" d=" M323,405 L343,405 L343,425 L323,425 Z" style="stroke-width: 1; stroke: none; stroke-opacity: 1; fill: rgb(128, 128, 128); fill-opacity: 1;"/></g><g class="composite-shape"><path class="real" d=" M323,365 L343,365 L343,385 L323,385 Z" style="stroke-width: 1; stroke: none; stroke-opacity: 1; fill: rgb(128, 128, 128); fill-opacity: 1;"/></g><g class="composite-shape"><path class="real" d=" M263,385 L283,385 L283,405 L263,405 Z" style="stroke-width: 1; stroke: none; stroke-opacity: 1; fill: rgb(128, 128, 128); fill-opacity: 1;"/></g><g class="composite-shape"><path class="real" d=" M283,405 L303,405 L303,425 L283,425 Z" style="stroke-width: 1; stroke: none; stroke-opacity: 1; fill: rgb(128, 128, 128); fill-opacity: 1;"/></g><g class="composite-shape"><path class="real" d=" M303,425 L323,425 L323,445 L303,445 Z" style="stroke-width: 1; stroke: none; stroke-opacity: 1; fill: rgb(128, 128, 128); fill-opacity: 1;"/></g><g class="composite-shape"><path class="real" d=" M263,425 L283,425 L283,445 L263,445 Z" style="stroke-width: 1; stroke: none; stroke-opacity: 1; fill: rgb(128, 128, 128); fill-opacity: 1;"/></g><g class="composite-shape"><path class="real" d=" M223,405 L243,405 L243,425 L223,425 Z" style="stroke-width: 1; stroke: none; stroke-opacity: 1; fill: rgb(128, 128, 128); fill-opacity: 1;"/></g><g class="composite-shape"><path class="real" d=" M283,365 L303,365 L303,385 L283,385 Z" style="stroke-width: 1; stroke: none; stroke-opacity: 1; fill: rgb(128, 128, 128); fill-opacity: 1;"/></g><g class="composite-shape"><path class="real" d=" M136,37 L256.5,37 L256.5,118 L136,118 Z" style="stroke-width: 1; stroke: none; fill: rgb(245, 166, 35); fill-opacity: 0.52;"/><path class="real" d=" M136,37 L136,118 M156,37 L156,118 M176,37 L176,118 M196,37 L196,118 M216,37 L216,118 M236,37 L236,118 M256,37 L256,118" style="stroke-width: 1; stroke: rgb(0, 0, 0); fill: none; fill-opacity: 0.52;"/><path class="real" d=" M136,37 L256.5,37 M136,57 L256.5,57 M136,77 L256.5,77 M136,97 L256.5,97 M136,117 L256.5,117" style="stroke-width: 1; stroke: rgb(0, 0, 0); fill: none; fill-opacity: 0.52;"/><path class="real" d=" " style="stroke-width: 1; stroke: rgb(0, 0, 0); fill: none; fill-opacity: 0.52;"/></g><g class="composite-shape"><path class="real" d=" M157.19,169 L134.5,129 L255.5,129 L232.81,169 Z" style="stroke-width: 1; stroke: rgb(0, 0, 0); fill: rgb(126, 211, 33); fill-opacity: 0.8;"/></g><g class="composite-shape"><path class="real" d=" M233.81,175 L256.5,215 L135.5,215 L158.19,175 Z" style="stroke-width: 1; stroke: rgb(0, 0, 0); fill: rgb(126, 211, 33); fill-opacity: 0.8;"/></g><g/></g><g/><g/><g/></svg>
        <svg xmlns="http://www.w3.org/2000/svg" xmlns:xlink="http://www.w3.org/1999/xlink" width="560" height="490.328125" style="width:560px;height:490.328125px;font-family:Asana-Math, Asana;background:transparent;"><g><g><g><g transform="matrix(1,0,0,1,140,236.6)"><path transform="matrix(0.0216,0,0,-0.0216,0,0)" d="M32 0C55 1 98 3 134 3C165 3 217 1 249 0L249 31C199 31 174 56 174 82C174 85 175 95 176 97L222 228L469 228L522 75C523 71 525 65 525 61C525 31 469 31 442 31L442 0C478 3 548 3 586 3C629 3 675 2 717 0L717 31L699 31C639 31 625 38 614 71L398 696C393 709 391 716 375 716C359 716 356 710 351 696L144 98C126 47 86 32 32 31ZM233 259L345 584L458 259ZM756 216C756 88 855 -11 971 -11C1105 -11 1137 109 1137 119C1137 129 1127 129 1124 129C1115 129 1113 125 1111 119C1082 26 1017 14 980 14C927 14 839 57 839 218C839 381 921 423 974 423C983 423 1046 422 1081 386C1040 383 1034 353 1034 340C1034 314 1052 294 1080 294C1106 294 1126 311 1126 341C1126 409 1050 448 973 448C848 448 756 340 756 216ZM1185 400L1270 400L1270 124C1270 1 1363 -11 1399 -11C1470 -11 1498 60 1498 124L1498 181L1473 181L1473 126C1473 52 1443 14 1406 14C1339 14 1339 105 1339 122L1339 400L1482 400L1482 431L1339 431L1339 615L1314 615C1313 533 1283 426 1185 422ZM1629 616C1629 589 1651 563 1682 563C1710 563 1735 584 1735 616C1735 648 1710 669 1682 669C1651 669 1629 642 1629 616ZM1587 0C1619 1 1673 3 1697 3C1732 3 1767 1 1801 0L1801 31C1735 31 1731 36 1731 75L1731 442L1591 431L1591 400C1656 400 1665 394 1665 345L1665 76C1665 31 1654 31 1587 31ZM1859 214C1859 85 1963 -11 2080 -11C2201 -11 2302 87 2302 214C2302 342 2202 448 2081 448C1956 448 1859 339 1859 214ZM1942 222C1942 261 1942 315 1966 359C1993 405 2040 426 2080 426C2124 426 2167 404 2193 361C2219 318 2219 260 2219 222C2219 186 2219 132 2197 88C2175 43 2131 14 2081 14C2038 14 1994 35 1967 81C1942 125 1942 186 1942 222ZM2363 0C2398 1 2449 3 2476 3C2502 3 2554 1 2588 0L2588 31C2521 31 2510 31 2510 76L2510 260C2510 364 2581 420 2645 420C2708 420 2719 366 2719 309L2719 76C2719 31 2708 31 2641 31L2641 0C2676 1 2727 3 2754 3C2780 3 2832 1 2866 0L2866 31C2814 31 2789 31 2788 61L2788 252C2788 338 2788 369 2757 405C2743 422 2710 442 2652 442C2579 442 2532 399 2504 337L2504 442L2363 431L2363 400C2433 400 2441 393 2441 344L2441 76C2441 31 2430 31 2363 31ZM3251 0C3286 1 3337 3 3364 3C3390 3 3442 1 3476 0L3476 31C3409 31 3398 31 3398 76L3398 260C3398 364 3469 420 3533 420C3596 420 3607 366 3607 309L3607 76C3607 31 3596 31 3529 31L3529 0C3564 1 3615 3 3642 3C3668 3 3720 1 3754 0L3754 31C3687 31 3676 31 3676 76L3676 260C3676 364 3747 420 3811 420C3874 420 3885 366 3885 309L3885 76C3885 31 3874 31 3807 31L3807 0C3842 1 3893 3 3920 3C3946 3 3998 1 4032 0L4032 31C3980 31 3955 31 3954 61L3954 252C3954 338 3954 369 3923 405C3909 422 3876 442 3818 442C3734 442 3690 382 3673 344C3659 431 3585 442 3540 442C3467 442 3420 399 3392 337L3392 442L3251 431L3251 400C3321 400 3329 393 3329 344L3329 76C3329 31 3318 31 3251 31ZM4094 95C4094 14 4191 -11 4254 -11C4320 -11 4366 29 4385 76C4389 36 4416 -6 4463 -6C4484 -6 4545 8 4545 89L4545 145L4520 145L4520 89C4520 31 4495 25 4484 25C4451 25 4447 70 4447 75L4447 275C4447 317 4447 356 4411 393C4372 432 4322 448 4274 448C4192 448 4123 401 4123 335C4123 305 4143 288 4169 288C4197 288 4215 308 4215 334C4215 346 4210 379 4164 380C4191 415 4240 426 4272 426C4321 426 4378 387 4378 298L4378 261C4327 258 4257 255 4194 225C4119 191 4094 139 4094 95ZM4171 96C4171 151 4213 234 4378 240L4378 140C4378 45 4306 11 4261 11C4212 11 4171 46 4171 96ZM4580 -163L4580 -194C4614 -193 4666 -191 4692 -191C4719 -191 4770 -193 4805 -194L4805 -163C4738 -163 4727 -163 4727 -118L4727 50L4727 59C4732 43 4774 -11 4850 -11C4969 -11 5073 87 5073 216C5073 343 4976 442 4864 442C4786 442 4744 398 4724 376L4724 442L4580 431L4580 400C4651 400 4658 394 4658 350L4658 -118C4658 -163 4647 -163 4580 -163ZM4727 114L4727 337C4756 388 4805 417 4856 417C4929 417 4990 329 4990 216C4990 95 4920 11 4846 11C4806 11 4768 31 4741 72C4727 93 4727 94 4727 114Z" stroke="rgb(0,0,0)" stroke-opacity="1" stroke-width="8" fill="rgb(0,0,0)" fill-opacity="1"></path></g></g></g></g><g><g><g><g transform="matrix(1,0,0,1,351,232.6)"><path transform="matrix(0.0216,0,0,-0.0216,0,0)" d="M37 0C72 1 121 3 154 3C187 3 236 1 271 0L271 31C168 31 168 78 168 105L168 644L169 644L410 22C415 9 420 0 430 0C441 0 444 8 448 19L694 652L695 652L695 78C695 42 693 31 616 31L592 31L592 0C629 3 697 3 736 3C775 3 842 3 879 0L879 31L855 31C778 31 776 42 776 78L776 605C776 641 778 652 855 652L879 652L879 683L710 683C684 683 684 682 677 664L458 101L241 661C232 683 229 683 206 683L37 683L37 652L61 652C138 652 140 641 140 605L140 105C140 78 140 31 37 31ZM958 95C958 14 1055 -11 1118 -11C1184 -11 1230 29 1249 76C1253 36 1280 -6 1327 -6C1348 -6 1409 8 1409 89L1409 145L1384 145L1384 89C1384 31 1359 25 1348 25C1315 25 1311 70 1311 75L1311 275C1311 317 1311 356 1275 393C1236 432 1186 448 1138 448C1056 448 987 401 987 335C987 305 1007 288 1033 288C1061 288 1079 308 1079 334C1079 346 1074 379 1028 380C1055 415 1104 426 1136 426C1185 426 1242 387 1242 298L1242 261C1191 258 1121 255 1058 225C983 191 958 139 958 95ZM1035 96C1035 151 1077 234 1242 240L1242 140C1242 45 1170 11 1125 11C1076 11 1035 46 1035 96ZM1449 13C1449 -4 1449 -11 1460 -11C1465 -11 1466 -10 1485 9C1487 11 1487 13 1505 32C1549 -10 1594 -11 1615 -11C1730 -11 1776 56 1776 128C1776 181 1746 211 1734 223C1701 255 1662 263 1620 271C1564 282 1497 295 1497 353C1497 388 1523 429 1609 429C1719 429 1724 339 1726 308C1727 299 1736 299 1738 299C1751 299 1751 304 1751 323L1751 424C1751 441 1751 448 1740 448C1735 448 1733 448 1720 436C1717 432 1707 423 1703 420C1665 448 1624 448 1609 448C1487 448 1449 381 1449 325C1449 290 1465 262 1492 240C1524 214 1552 208 1624 194C1646 190 1728 174 1728 102C1728 51 1693 11 1615 11C1531 11 1495 68 1476 153C1473 166 1472 170 1462 170C1449 170 1449 163 1449 145ZM1838 0C1871 1 1918 3 1947 3C1977 3 2017 2 2057 0L2057 31C1990 31 1979 31 1979 76L1979 179L2043 234C2120 128 2162 72 2162 54C2162 35 2145 31 2126 31L2126 0C2154 1 2213 3 2234 3C2263 3 2292 2 2321 0L2321 31C2284 31 2262 31 2224 84L2097 263C2096 265 2091 271 2091 274C2091 278 2162 338 2172 346C2235 397 2277 399 2298 400L2298 431C2269 428 2256 428 2228 428C2192 428 2130 430 2116 431L2116 400C2135 399 2145 388 2145 375C2145 355 2131 343 2123 336L1982 214L1982 694L1838 683L1838 652C1908 652 1916 645 1916 596L1916 76C1916 31 1905 31 1838 31Z" stroke="rgb(0,0,0)" stroke-opacity="1" stroke-width="8" fill="rgb(0,0,0)" fill-opacity="1"></path></g></g></g></g><g><g><g><g transform="matrix(1,0,0,1,193,474.6)"><path transform="matrix(0.0216,0,0,-0.0216,0,0)" d="M37 0C72 1 121 3 154 3C187 3 236 1 271 0L271 31C168 31 168 78 168 105L168 644L169 644L410 22C415 9 420 0 430 0C441 0 444 8 448 19L694 652L695 652L695 78C695 42 693 31 616 31L592 31L592 0C629 3 697 3 736 3C775 3 842 3 879 0L879 31L855 31C778 31 776 42 776 78L776 605C776 641 778 652 855 652L879 652L879 683L710 683C684 683 684 682 677 664L458 101L241 661C232 683 229 683 206 683L37 683L37 652L61 652C138 652 140 641 140 605L140 105C140 78 140 31 37 31ZM958 95C958 14 1055 -11 1118 -11C1184 -11 1230 29 1249 76C1253 36 1280 -6 1327 -6C1348 -6 1409 8 1409 89L1409 145L1384 145L1384 89C1384 31 1359 25 1348 25C1315 25 1311 70 1311 75L1311 275C1311 317 1311 356 1275 393C1236 432 1186 448 1138 448C1056 448 987 401 987 335C987 305 1007 288 1033 288C1061 288 1079 308 1079 334C1079 346 1074 379 1028 380C1055 415 1104 426 1136 426C1185 426 1242 387 1242 298L1242 261C1191 258 1121 255 1058 225C983 191 958 139 958 95ZM1035 96C1035 151 1077 234 1242 240L1242 140C1242 45 1170 11 1125 11C1076 11 1035 46 1035 96ZM1449 13C1449 -4 1449 -11 1460 -11C1465 -11 1466 -10 1485 9C1487 11 1487 13 1505 32C1549 -10 1594 -11 1615 -11C1730 -11 1776 56 1776 128C1776 181 1746 211 1734 223C1701 255 1662 263 1620 271C1564 282 1497 295 1497 353C1497 388 1523 429 1609 429C1719 429 1724 339 1726 308C1727 299 1736 299 1738 299C1751 299 1751 304 1751 323L1751 424C1751 441 1751 448 1740 448C1735 448 1733 448 1720 436C1717 432 1707 423 1703 420C1665 448 1624 448 1609 448C1487 448 1449 381 1449 325C1449 290 1465 262 1492 240C1524 214 1552 208 1624 194C1646 190 1728 174 1728 102C1728 51 1693 11 1615 11C1531 11 1495 68 1476 153C1473 166 1472 170 1462 170C1449 170 1449 163 1449 145ZM1838 0C1871 1 1918 3 1947 3C1977 3 2017 2 2057 0L2057 31C1990 31 1979 31 1979 76L1979 179L2043 234C2120 128 2162 72 2162 54C2162 35 2145 31 2126 31L2126 0C2154 1 2213 3 2234 3C2263 3 2292 2 2321 0L2321 31C2284 31 2262 31 2224 84L2097 263C2096 265 2091 271 2091 274C2091 278 2162 338 2172 346C2235 397 2277 399 2298 400L2298 431C2269 428 2256 428 2228 428C2192 428 2130 430 2116 431L2116 400C2135 399 2145 388 2145 375C2145 355 2131 343 2123 336L1982 214L1982 694L1838 683L1838 652C1908 652 1916 645 1916 596L1916 76C1916 31 1905 31 1838 31ZM2337 220C2337 86 2442 -11 2557 -11C2679 -11 2724 100 2724 119C2724 129 2716 131 2711 131C2702 131 2700 125 2698 117C2663 14 2573 14 2563 14C2513 14 2473 44 2450 81C2420 129 2420 195 2420 231L2699 231C2721 231 2724 231 2724 252C2724 351 2670 448 2545 448C2429 448 2337 345 2337 220ZM2421 252C2427 401 2511 426 2545 426C2648 426 2658 291 2658 252ZM2787 215C2787 88 2885 -11 2999 -11C3063 -11 3108 23 3133 55L3133 -11L3280 0L3280 31C3210 31 3202 38 3202 87L3202 694L3058 683L3058 652C3128 652 3136 645 3136 596L3136 380C3107 416 3064 442 3010 442C2892 442 2787 344 2787 215ZM2870 214C2870 251 2872 311 2901 356C2922 387 2960 420 3014 420C3049 420 3091 405 3122 360C3133 343 3133 341 3133 323L3133 118C3133 100 3133 98 3122 81C3092 33 3047 11 3004 11C2959 11 2923 37 2899 75C2873 116 2870 173 2870 214ZM3673 0C3696 1 3739 3 3775 3C3806 3 3858 1 3890 0L3890 31C3840 31 3815 56 3815 82C3815 85 3816 95 3817 97L3863 228L4110 228L4163 75C4164 71 4166 65 4166 61C4166 31 4110 31 4083 31L4083 0C4119 3 4189 3 4227 3C4270 3 4316 2 4358 0L4358 31L4340 31C4280 31 4266 38 4255 71L4039 696C4034 709 4032 716 4016 716C4000 716 3997 710 3992 696L3785 98C3767 47 3727 32 3673 31ZM3874 259L3986 584L4099 259ZM4397 216C4397 88 4496 -11 4612 -11C4746 -11 4778 109 4778 119C4778 129 4768 129 4765 129C4756 129 4754 125 4752 119C4723 26 4658 14 4621 14C4568 14 4480 57 4480 218C4480 381 4562 423 4615 423C4624 423 4687 422 4722 386C4681 383 4675 353 4675 340C4675 314 4693 294 4721 294C4747 294 4767 311 4767 341C4767 409 4691 448 4614 448C4489 448 4397 340 4397 216ZM4826 400L4911 400L4911 124C4911 1 5004 -11 5040 -11C5111 -11 5139 60 5139 124L5139 181L5114 181L5114 126C5114 52 5084 14 5047 14C4980 14 4980 105 4980 122L4980 400L5123 400L5123 431L4980 431L4980 615L4955 615C4954 533 4924 426 4826 422ZM5270 616C5270 589 5292 563 5323 563C5351 563 5376 584 5376 616C5376 648 5351 669 5323 669C5292 669 5270 642 5270 616ZM5228 0C5260 1 5314 3 5338 3C5373 3 5408 1 5442 0L5442 31C5376 31 5372 36 5372 75L5372 442L5232 431L5232 400C5297 400 5306 394 5306 345L5306 76C5306 31 5295 31 5228 31ZM5500 214C5500 85 5604 -11 5721 -11C5842 -11 5943 87 5943 214C5943 342 5843 448 5722 448C5597 448 5500 339 5500 214ZM5583 222C5583 261 5583 315 5607 359C5634 405 5681 426 5721 426C5765 426 5808 404 5834 361C5860 318 5860 260 5860 222C5860 186 5860 132 5838 88C5816 43 5772 14 5722 14C5679 14 5635 35 5608 81C5583 125 5583 186 5583 222ZM6004 0C6039 1 6090 3 6117 3C6143 3 6195 1 6229 0L6229 31C6162 31 6151 31 6151 76L6151 260C6151 364 6222 420 6286 420C6349 420 6360 366 6360 309L6360 76C6360 31 6349 31 6282 31L6282 0C6317 1 6368 3 6395 3C6421 3 6473 1 6507 0L6507 31C6455 31 6430 31 6429 61L6429 252C6429 338 6429 369 6398 405C6384 422 6351 442 6293 442C6220 442 6173 399 6145 337L6145 442L6004 431L6004 400C6074 400 6082 393 6082 344L6082 76C6082 31 6071 31 6004 31ZM6892 0C6927 1 6978 3 7005 3C7031 3 7083 1 7117 0L7117 31C7050 31 7039 31 7039 76L7039 260C7039 364 7110 420 7174 420C7237 420 7248 366 7248 309L7248 76C7248 31 7237 31 7170 31L7170 0C7205 1 7256 3 7283 3C7309 3 7361 1 7395 0L7395 31C7328 31 7317 31 7317 76L7317 260C7317 364 7388 420 7452 420C7515 420 7526 366 7526 309L7526 76C7526 31 7515 31 7448 31L7448 0C7483 1 7534 3 7561 3C7587 3 7639 1 7673 0L7673 31C7621 31 7596 31 7595 61L7595 252C7595 338 7595 369 7564 405C7550 422 7517 442 7459 442C7375 442 7331 382 7314 344C7300 431 7226 442 7181 442C7108 442 7061 399 7033 337L7033 442L6892 431L6892 400C6962 400 6970 393 6970 344L6970 76C6970 31 6959 31 6892 31ZM7735 95C7735 14 7832 -11 7895 -11C7961 -11 8007 29 8026 76C8030 36 8057 -6 8104 -6C8125 -6 8186 8 8186 89L8186 145L8161 145L8161 89C8161 31 8136 25 8125 25C8092 25 8088 70 8088 75L8088 275C8088 317 8088 356 8052 393C8013 432 7963 448 7915 448C7833 448 7764 401 7764 335C7764 305 7784 288 7810 288C7838 288 7856 308 7856 334C7856 346 7851 379 7805 380C7832 415 7881 426 7913 426C7962 426 8019 387 8019 298L8019 261C7968 258 7898 255 7835 225C7760 191 7735 139 7735 95ZM7812 96C7812 151 7854 234 8019 240L8019 140C8019 45 7947 11 7902 11C7853 11 7812 46 7812 96ZM8221 -163L8221 -194C8255 -193 8307 -191 8333 -191C8360 -191 8411 -193 8446 -194L8446 -163C8379 -163 8368 -163 8368 -118L8368 50L8368 59C8373 43 8415 -11 8491 -11C8610 -11 8714 87 8714 216C8714 343 8617 442 8505 442C8427 442 8385 398 8365 376L8365 442L8221 431L8221 400C8292 400 8299 394 8299 350L8299 -118C8299 -163 8288 -163 8221 -163ZM8368 114L8368 337C8397 388 8446 417 8497 417C8570 417 8631 329 8631 216C8631 95 8561 11 8487 11C8447 11 8409 31 8382 72C8368 93 8368 94 8368 114Z" stroke="rgb(0,0,0)" stroke-opacity="1" stroke-width="8" fill="rgb(0,0,0)" fill-opacity="1"></path></g></g></g></g><g><g><g><g transform="matrix(1,0,0,1,410,408)"><path transform="matrix(0.018,0,0,-0.018,0,0)" d="M36 452L61 452C75 613 90 646 241 646C259 646 285 646 295 644C316 640 316 629 316 606L316 79C316 45 316 31 211 31L171 31L171 0C212 3 314 3 360 3C406 3 509 3 550 0L550 31L510 31C405 31 405 45 405 79L405 606C405 626 405 640 423 644C434 646 461 646 480 646C631 646 646 613 660 452L685 452L666 677L55 677ZM667 0C706 1 753 3 781 3C821 3 868 3 908 0L908 31L887 31C813 31 811 42 811 78L811 232C811 331 853 420 929 420C936 420 938 420 940 419C937 418 917 406 917 380C917 352 938 337 960 337C978 337 1003 349 1003 381C1003 413 972 442 929 442C856 442 820 375 806 332L806 442L667 431L667 400C737 400 745 393 745 344L745 76C745 31 734 31 667 31ZM1062 400C1140 400 1140 397 1140 308L1140 158C1140 80 1140 -11 1292 -11C1348 -11 1392 17 1421 79L1421 -11L1565 0L1565 31C1495 31 1487 38 1487 87L1487 442L1340 431L1340 400C1410 400 1418 393 1418 344L1418 166C1418 79 1370 11 1297 11C1213 11 1209 58 1209 110L1209 442L1062 431ZM1613 220C1613 86 1718 -11 1833 -11C1955 -11 2000 100 2000 119C2000 129 1992 131 1987 131C1978 131 1976 125 1974 117C1939 14 1849 14 1839 14C1789 14 1749 44 1726 81C1696 129 1696 195 1696 231L1975 231C1997 231 2000 231 2000 252C2000 351 1946 448 1821 448C1705 448 1613 345 1613 220ZM1697 252C1703 401 1787 426 1821 426C1924 426 1934 291 1934 252Z" stroke="rgb(0,0,0)" stroke-opacity="1" stroke-width="8" fill="rgb(0,0,0)" fill-opacity="1"></path></g></g></g></g><g><g><g><g transform="matrix(1,0,0,1,409,440)"><path transform="matrix(0.018,0,0,-0.018,0,0)" d="M33 0C68 3 146 3 185 3C226 3 317 3 353 0L353 31L320 31C225 31 225 44 225 79L225 325L311 325C407 325 417 293 417 208L442 208L442 473L417 473C417 389 407 356 311 356L225 356L225 609C225 642 227 649 274 649L394 649C544 649 569 593 585 455L610 455L582 680L33 680L33 649L57 649C134 649 136 638 136 602L136 78C136 42 134 31 57 31L33 31ZM611 95C611 14 708 -11 771 -11C837 -11 883 29 902 76C906 36 933 -6 980 -6C1001 -6 1062 8 1062 89L1062 145L1037 145L1037 89C1037 31 1012 25 1001 25C968 25 964 70 964 75L964 275C964 317 964 356 928 393C889 432 839 448 791 448C709 448 640 401 640 335C640 305 660 288 686 288C714 288 732 308 732 334C732 346 727 379 681 380C708 415 757 426 789 426C838 426 895 387 895 298L895 261C844 258 774 255 711 225C636 191 611 139 611 95ZM688 96C688 151 730 234 895 240L895 140C895 45 823 11 778 11C729 11 688 46 688 96ZM1102 0C1135 1 1188 3 1213 3C1238 3 1287 1 1324 0L1324 31C1257 31 1246 31 1246 76L1246 694L1102 683L1102 652C1172 652 1180 645 1180 596L1180 76C1180 31 1169 31 1102 31ZM1379 13C1379 -4 1379 -11 1390 -11C1395 -11 1396 -10 1415 9C1417 11 1417 13 1435 32C1479 -10 1524 -11 1545 -11C1660 -11 1706 56 1706 128C1706 181 1676 211 1664 223C1631 255 1592 263 1550 271C1494 282 1427 295 1427 353C1427 388 1453 429 1539 429C1649 429 1654 339 1656 308C1657 299 1666 299 1668 299C1681 299 1681 304 1681 323L1681 424C1681 441 1681 448 1670 448C1665 448 1663 448 1650 436C1647 432 1637 423 1633 420C1595 448 1554 448 1539 448C1417 448 1379 381 1379 325C1379 290 1395 262 1422 240C1454 214 1482 208 1554 194C1576 190 1658 174 1658 102C1658 51 1623 11 1545 11C1461 11 1425 68 1406 153C1403 166 1402 170 1392 170C1379 170 1379 163 1379 145ZM1768 220C1768 86 1873 -11 1988 -11C2110 -11 2155 100 2155 119C2155 129 2147 131 2142 131C2133 131 2131 125 2129 117C2094 14 2004 14 1994 14C1944 14 1904 44 1881 81C1851 129 1851 195 1851 231L2130 231C2152 231 2155 231 2155 252C2155 351 2101 448 1976 448C1860 448 1768 345 1768 220ZM1852 252C1858 401 1942 426 1976 426C2079 426 2089 291 2089 252Z" stroke="rgb(0,0,0)" stroke-opacity="1" stroke-width="8" fill="rgb(0,0,0)" fill-opacity="1"></path></g></g></g></g><g><g><g><g transform="matrix(1,0,0,1,158,152.6)"><path transform="matrix(0.0216,0,0,-0.0216,0,0)" d="M33 0L610 0L652 258L627 258C602 104 579 31 407 31L274 31C227 31 225 38 225 71L225 338L315 338C412 338 423 306 423 221L448 221L448 486L423 486C423 400 412 369 315 369L225 369L225 609C225 642 227 649 274 649L403 649C556 649 583 594 599 455L624 455L596 680L33 680L33 649L57 649C134 649 136 638 136 602L136 78C136 42 134 31 57 31L33 31ZM712 0C747 1 798 3 825 3C851 3 903 1 937 0L937 31C870 31 859 31 859 76L859 260C859 364 930 420 994 420C1057 420 1068 366 1068 309L1068 76C1068 31 1057 31 990 31L990 0C1025 1 1076 3 1103 3C1129 3 1181 1 1215 0L1215 31C1163 31 1138 31 1137 61L1137 252C1137 338 1137 369 1106 405C1092 422 1059 442 1001 442C928 442 881 399 853 337L853 442L712 431L712 400C782 400 790 393 790 344L790 76C790 31 779 31 712 31ZM1269 216C1269 88 1368 -11 1484 -11C1618 -11 1650 109 1650 119C1650 129 1640 129 1637 129C1628 129 1626 125 1624 119C1595 26 1530 14 1493 14C1440 14 1352 57 1352 218C1352 381 1434 423 1487 423C1496 423 1559 422 1594 386C1553 383 1547 353 1547 340C1547 314 1565 294 1593 294C1619 294 1639 311 1639 341C1639 409 1563 448 1486 448C1361 448 1269 340 1269 216ZM1707 214C1707 85 1811 -11 1928 -11C2049 -11 2150 87 2150 214C2150 342 2050 448 1929 448C1804 448 1707 339 1707 214ZM1790 222C1790 261 1790 315 1814 359C1841 405 1888 426 1928 426C1972 426 2015 404 2041 361C2067 318 2067 260 2067 222C2067 186 2067 132 2045 88C2023 43 1979 14 1929 14C1886 14 1842 35 1815 81C1790 125 1790 186 1790 222ZM2241 215C2241 88 2339 -11 2453 -11C2517 -11 2562 23 2587 55L2587 -11L2734 0L2734 31C2664 31 2656 38 2656 87L2656 694L2512 683L2512 652C2582 652 2590 645 2590 596L2590 380C2561 416 2518 442 2464 442C2346 442 2241 344 2241 215ZM2324 214C2324 251 2326 311 2355 356C2376 387 2414 420 2468 420C2503 420 2545 405 2576 360C2587 343 2587 341 2587 323L2587 118C2587 100 2587 98 2576 81C2546 33 2501 11 2458 11C2413 11 2377 37 2353 75C2327 116 2324 173 2324 214ZM2790 220C2790 86 2895 -11 3010 -11C3132 -11 3177 100 3177 119C3177 129 3169 131 3164 131C3155 131 3153 125 3151 117C3116 14 3026 14 3016 14C2966 14 2926 44 2903 81C2873 129 2873 195 2873 231L3152 231C3174 231 3177 231 3177 252C3177 351 3123 448 2998 448C2882 448 2790 345 2790 220ZM2874 252C2880 401 2964 426 2998 426C3101 426 3111 291 3111 252ZM3234 0C3273 1 3320 3 3348 3C3388 3 3435 3 3475 0L3475 31L3454 31C3380 31 3378 42 3378 78L3378 232C3378 331 3420 420 3496 420C3503 420 3505 420 3507 419C3504 418 3484 406 3484 380C3484 352 3505 337 3527 337C3545 337 3570 349 3570 381C3570 413 3539 442 3496 442C3423 442 3387 375 3373 332L3373 442L3234 431L3234 400C3304 400 3312 393 3312 344L3312 76C3312 31 3301 31 3234 31Z" stroke="rgb(0,0,0)" stroke-opacity="1" stroke-width="8" fill="rgb(0,0,0)" fill-opacity="1"></path></g></g></g></g><g><g><g><g transform="matrix(1,0,0,1,161.1796875,199.6)"><path transform="matrix(0.0216,0,0,-0.0216,0,0)" d="M35 0L401 0C569 0 707 148 707 336C707 526 572 683 401 683L35 683L35 652L59 652C136 652 138 641 138 605L138 78C138 42 136 31 59 31L35 31ZM224 71L224 612C224 645 226 652 273 652L373 652C435 652 504 630 555 559C598 500 607 414 607 336C607 225 588 165 552 116C532 89 475 31 374 31L273 31C226 31 224 38 224 71ZM791 220C791 86 896 -11 1011 -11C1133 -11 1178 100 1178 119C1178 129 1170 131 1165 131C1156 131 1154 125 1152 117C1117 14 1027 14 1017 14C967 14 927 44 904 81C874 129 874 195 874 231L1153 231C1175 231 1178 231 1178 252C1178 351 1124 448 999 448C883 448 791 345 791 220ZM875 252C881 401 965 426 999 426C1102 426 1112 291 1112 252ZM1241 216C1241 88 1340 -11 1456 -11C1590 -11 1622 109 1622 119C1622 129 1612 129 1609 129C1600 129 1598 125 1596 119C1567 26 1502 14 1465 14C1412 14 1324 57 1324 218C1324 381 1406 423 1459 423C1468 423 1531 422 1566 386C1525 383 1519 353 1519 340C1519 314 1537 294 1565 294C1591 294 1611 311 1611 341C1611 409 1535 448 1458 448C1333 448 1241 340 1241 216ZM1679 214C1679 85 1783 -11 1900 -11C2021 -11 2122 87 2122 214C2122 342 2022 448 1901 448C1776 448 1679 339 1679 214ZM1762 222C1762 261 1762 315 1786 359C1813 405 1860 426 1900 426C1944 426 1987 404 2013 361C2039 318 2039 260 2039 222C2039 186 2039 132 2017 88C1995 43 1951 14 1901 14C1858 14 1814 35 1787 81C1762 125 1762 186 1762 222ZM2213 215C2213 88 2311 -11 2425 -11C2489 -11 2534 23 2559 55L2559 -11L2706 0L2706 31C2636 31 2628 38 2628 87L2628 694L2484 683L2484 652C2554 652 2562 645 2562 596L2562 380C2533 416 2490 442 2436 442C2318 442 2213 344 2213 215ZM2296 214C2296 251 2298 311 2327 356C2348 387 2386 420 2440 420C2475 420 2517 405 2548 360C2559 343 2559 341 2559 323L2559 118C2559 100 2559 98 2548 81C2518 33 2473 11 2430 11C2385 11 2349 37 2325 75C2299 116 2296 173 2296 214ZM2762 220C2762 86 2867 -11 2982 -11C3104 -11 3149 100 3149 119C3149 129 3141 131 3136 131C3127 131 3125 125 3123 117C3088 14 2998 14 2988 14C2938 14 2898 44 2875 81C2845 129 2845 195 2845 231L3124 231C3146 231 3149 231 3149 252C3149 351 3095 448 2970 448C2854 448 2762 345 2762 220ZM2846 252C2852 401 2936 426 2970 426C3073 426 3083 291 3083 252ZM3206 0C3245 1 3292 3 3320 3C3360 3 3407 3 3447 0L3447 31L3426 31C3352 31 3350 42 3350 78L3350 232C3350 331 3392 420 3468 420C3475 420 3477 420 3479 419C3476 418 3456 406 3456 380C3456 352 3477 337 3499 337C3517 337 3542 349 3542 381C3542 413 3511 442 3468 442C3395 442 3359 375 3345 332L3345 442L3206 431L3206 400C3276 400 3284 393 3284 344L3284 76C3284 31 3273 31 3206 31Z" stroke="rgb(0,0,0)" stroke-opacity="1" stroke-width="8" fill="rgb(0,0,0)" fill-opacity="1"></path></g></g></g></g><g><g><g><g transform="matrix(1,0,0,1,147,25.6)"><path transform="matrix(0.0216,0,0,-0.0216,0,0)" d="M56 2C56 -15 56 -22 67 -22C74 -22 75 -20 82 -9C82 -8 85 -5 118 48C149 14 213 -22 302 -22C419 -22 499 76 499 186C499 286 433 368 349 388L221 419C159 434 120 488 120 546C120 616 174 677 252 677C419 677 441 513 447 468C448 462 448 456 459 456C472 456 472 461 472 480L472 681C472 698 472 705 461 705C454 705 453 704 446 692L411 635C381 664 340 705 251 705C140 705 56 617 56 511C56 428 109 355 187 328C198 324 249 312 319 295C346 288 376 281 404 244C425 218 435 185 435 152C435 81 385 9 301 9C272 9 196 14 143 63C85 117 82 181 81 217C80 227 72 227 69 227C56 227 56 220 56 202ZM574 400L659 400L659 124C659 1 752 -11 788 -11C859 -11 887 60 887 124L887 181L862 181L862 126C862 52 832 14 795 14C728 14 728 105 728 122L728 400L871 400L871 431L728 431L728 615L703 615C702 533 672 426 574 422ZM985 95C985 14 1082 -11 1145 -11C1211 -11 1257 29 1276 76C1280 36 1307 -6 1354 -6C1375 -6 1436 8 1436 89L1436 145L1411 145L1411 89C1411 31 1386 25 1375 25C1342 25 1338 70 1338 75L1338 275C1338 317 1338 356 1302 393C1263 432 1213 448 1165 448C1083 448 1014 401 1014 335C1014 305 1034 288 1060 288C1088 288 1106 308 1106 334C1106 346 1101 379 1055 380C1082 415 1131 426 1163 426C1212 426 1269 387 1269 298L1269 261C1218 258 1148 255 1085 225C1010 191 985 139 985 95ZM1062 96C1062 151 1104 234 1269 240L1269 140C1269 45 1197 11 1152 11C1103 11 1062 46 1062 96ZM1462 400L1547 400L1547 124C1547 1 1640 -11 1676 -11C1747 -11 1775 60 1775 124L1775 181L1750 181L1750 126C1750 52 1720 14 1683 14C1616 14 1616 105 1616 122L1616 400L1759 400L1759 431L1616 431L1616 615L1591 615C1590 533 1560 426 1462 422ZM1859 220C1859 86 1964 -11 2079 -11C2201 -11 2246 100 2246 119C2246 129 2238 131 2233 131C2224 131 2222 125 2220 117C2185 14 2095 14 2085 14C2035 14 1995 44 1972 81C1942 129 1942 195 1942 231L2221 231C2243 231 2246 231 2246 252C2246 351 2192 448 2067 448C1951 448 1859 345 1859 220ZM1943 252C1949 401 2033 426 2067 426C2170 426 2180 291 2180 252ZM2640 0C2675 1 2726 3 2753 3C2779 3 2831 1 2865 0L2865 31C2798 31 2787 31 2787 76L2787 260C2787 364 2858 420 2922 420C2985 420 2996 366 2996 309L2996 76C2996 31 2985 31 2918 31L2918 0C2953 1 3004 3 3031 3C3057 3 3109 1 3143 0L3143 31C3076 31 3065 31 3065 76L3065 260C3065 364 3136 420 3200 420C3263 420 3274 366 3274 309L3274 76C3274 31 3263 31 3196 31L3196 0C3231 1 3282 3 3309 3C3335 3 3387 1 3421 0L3421 31C3369 31 3344 31 3343 61L3343 252C3343 338 3343 369 3312 405C3298 422 3265 442 3207 442C3123 442 3079 382 3062 344C3048 431 2974 442 2929 442C2856 442 2809 399 2781 337L2781 442L2640 431L2640 400C2710 400 2718 393 2718 344L2718 76C2718 31 2707 31 2640 31ZM3483 95C3483 14 3580 -11 3643 -11C3709 -11 3755 29 3774 76C3778 36 3805 -6 3852 -6C3873 -6 3934 8 3934 89L3934 145L3909 145L3909 89C3909 31 3884 25 3873 25C3840 25 3836 70 3836 75L3836 275C3836 317 3836 356 3800 393C3761 432 3711 448 3663 448C3581 448 3512 401 3512 335C3512 305 3532 288 3558 288C3586 288 3604 308 3604 334C3604 346 3599 379 3553 380C3580 415 3629 426 3661 426C3710 426 3767 387 3767 298L3767 261C3716 258 3646 255 3583 225C3508 191 3483 139 3483 95ZM3560 96C3560 151 3602 234 3767 240L3767 140C3767 45 3695 11 3650 11C3601 11 3560 46 3560 96ZM3969 -163L3969 -194C4003 -193 4055 -191 4081 -191C4108 -191 4159 -193 4194 -194L4194 -163C4127 -163 4116 -163 4116 -118L4116 50L4116 59C4121 43 4163 -11 4239 -11C4358 -11 4462 87 4462 216C4462 343 4365 442 4253 442C4175 442 4133 398 4113 376L4113 442L3969 431L3969 400C4040 400 4047 394 4047 350L4047 -118C4047 -163 4036 -163 3969 -163ZM4116 114L4116 337C4145 388 4194 417 4245 417C4318 417 4379 329 4379 216C4379 95 4309 11 4235 11C4195 11 4157 31 4130 72C4116 93 4116 94 4116 114Z" stroke="rgb(0,0,0)" stroke-opacity="1" stroke-width="8" fill="rgb(0,0,0)" fill-opacity="1"></path></g></g></g></g></svg>
</svg>
