<svg xmlns="http://www.w3.org/2000/svg" xmlns:xlink="http://www.w3.org/1999/xlink" x="0" y="0" width="570" height="418.328125" style="
        width:570px;
        height:418.328125px;
        background: transparent;
        fill: none;
">
        
        
        <svg xmlns="http://www.w3.org/2000/svg" class="role-diagram-draw-area"><g class="shapes-region" style="stroke: black; fill: none;"><g class="composite-shape"><path class="real" d=" M111.55,42.06 C111.55,39.74 113.43,37.85 115.75,37.85 L158.1,37.85 C160.42,37.85 162.31,39.74 162.31,42.06 L162.31,54.66 C162.31,56.98 160.42,58.87 158.1,58.87 L115.75,58.87 C113.43,58.87 111.55,56.98 111.55,54.66 Z" style="stroke-width: 1; stroke: rgb(0, 0, 0); fill: rgb(155, 155, 155); fill-opacity: 0.4;"/></g><g class="arrow-line"><path class="connection real" stroke-dasharray="" d="  M136,58.87 L135.5,122" style="stroke: rgb(0, 0, 0); stroke-width: 1; fill: none; fill-opacity: 1;"/></g><g class="arrow-line"><path class="connection real" stroke-dasharray="" d="  M135.5,122 L163.5,121.07" style="stroke: rgb(0, 0, 0); stroke-width: 1; fill: none; fill-opacity: 1;"/><g stroke="#000" transform="matrix(-0.9994444140490196,0.033329614852438905,-0.033329614852438905,-0.9994444140490196,165.5,120.99999999999999)" style="stroke: rgb(0, 0, 0); stroke-width: 1;"><path d=" M10.93,-3.29 Q4.96,-0.45 0,0 Q4.96,0.45 10.93,3.29"/></g></g><g class="composite-shape"><path class="real" d=" M227.3,38.8 C227.3,36.41 229.24,34.47 231.63,34.47 L237.21,34.47 C239.6,34.47 241.54,36.41 241.54,38.8 L241.54,51.15 C241.54,53.54 239.6,55.48 237.21,55.48 L231.63,55.48 C229.24,55.48 227.3,53.54 227.3,51.15 Z" style="stroke-width: 1; stroke: rgb(0, 0, 0); fill: rgb(248, 231, 28); fill-opacity: 0.7;"/></g><g class="composite-shape"><path class="real" d=" M253.92,38.8 C253.92,36.41 255.86,34.47 258.25,34.47 L263.82,34.47 C266.22,34.47 268.16,36.41 268.16,38.8 L268.16,51.15 C268.16,53.54 266.22,55.48 263.82,55.48 L258.25,55.48 C255.86,55.48 253.92,53.54 253.92,51.15 Z" style="stroke-width: 1; stroke: rgb(0, 0, 0); fill: rgb(208, 2, 27); fill-opacity: 0.45;"/></g><g class="composite-shape"><path class="real" d=" M302.2,38.24 C302.2,35.85 304.14,33.91 306.53,33.91 L312.11,33.91 C314.5,33.91 316.44,35.85 316.44,38.24 L316.44,50.58 C316.44,52.98 314.5,54.92 312.11,54.92 L306.53,54.92 C304.14,54.92 302.2,52.98 302.2,50.58 Z" style="stroke-width: 1; stroke: rgb(0, 0, 0); fill: rgb(139, 87, 42); fill-opacity: 0.35;"/></g><g class="arrow-line"><path class="connection real" stroke-dasharray="" d="  M267.54,59.58 L266.95,100.87" style="stroke: rgb(0, 0, 0); stroke-width: 1; fill: none; fill-opacity: 1;"/><g stroke="#000" transform="matrix(0.014311211306291627,-0.999897589371505,0.999897589371505,0.014311211306291627,266.918215570191,102.86695746328638)" style="stroke: rgb(0, 0, 0); stroke-width: 1;"><path d=" M10.93,-3.29 Q4.96,-0.45 0,0 Q4.96,0.45 10.93,3.29"/></g></g><g class="composite-shape"><path class="real" d=" M187.5,112.15 C187.5,107.88 190.96,104.42 195.23,104.42 L377.77,104.42 C382.04,104.42 385.5,107.88 385.5,112.15 L385.5,135.34 C385.5,139.6 382.04,143.07 377.77,143.07 L195.23,143.07 C190.96,143.07 187.5,139.6 187.5,135.34 Z" style="stroke-width: 1; stroke: rgb(0, 0, 0); fill: rgb(245, 166, 35); fill-opacity: 0.8;"/></g><g class="composite-shape"><path class="real" d=" M179.77,119.88 C179.77,115.61 183.23,112.15 187.5,112.15 L370.04,112.15 C374.31,112.15 377.77,115.61 377.77,119.88 L377.77,143.07 C377.77,147.33 374.31,150.79 370.04,150.79 L187.5,150.79 C183.23,150.79 179.77,147.33 179.77,143.07 Z" style="stroke-width: 1; stroke: rgb(0, 0, 0); fill: rgb(245, 166, 35); fill-opacity: 0.8;"/></g><g class="composite-shape"><path class="real" d=" M172.04,127.61 C172.04,123.34 175.5,119.88 179.77,119.88 L362.31,119.88 C366.58,119.88 370.04,123.34 370.04,127.61 L370.04,150.79 C370.04,155.06 366.58,158.52 362.31,158.52 L179.77,158.52 C175.5,158.52 172.04,155.06 172.04,150.79 Z" style="stroke-width: 1; stroke: rgb(0, 0, 0); fill: rgb(245, 166, 35); fill-opacity: 0.8;"/></g><g class="composite-shape"><path class="real" d=" M164.31,135.34 C164.31,131.07 167.77,127.61 172.04,127.61 L354.58,127.61 C358.85,127.61 362.31,131.07 362.31,135.34 L362.31,158.52 C362.31,162.79 358.85,166.25 354.58,166.25 L172.04,166.25 C167.77,166.25 164.31,162.79 164.31,158.52 Z" style="stroke-width: 1; stroke: rgb(0, 0, 0); fill: rgb(245, 166, 35); fill-opacity: 0.8;"/></g><g class="arrow-line"><path class="connection real" stroke-dasharray="" d="  M264.54,165.58 L263.95,206.87" style="stroke: rgb(0, 0, 0); stroke-width: 1; fill: none; fill-opacity: 1;"/><g stroke="#000" transform="matrix(0.014311211306291627,-0.999897589371505,0.999897589371505,0.014311211306291627,263.918215570191,208.86695746328638)" style="stroke: rgb(0, 0, 0); stroke-width: 1;"><path d=" M10.93,-3.29 Q4.96,-0.45 0,0 Q4.96,0.45 10.93,3.29"/></g></g><g class="composite-shape"><path class="real" d=" M147.5,220.88 C147.5,214.79 152.44,209.85 158.53,209.85 L368.47,209.85 C374.56,209.85 379.5,214.79 379.5,220.88 L379.5,253.97 C379.5,260.06 374.56,265 368.47,265 L158.53,265 C152.44,265 147.5,260.06 147.5,253.97 Z" style="stroke-width: 1; stroke: rgb(0, 0, 0); fill: rgb(80, 227, 194); fill-opacity: 0.4;"/></g><g class="arrow-line"><path class="connection real" stroke-dasharray="" d="  M261.54,265.58 L260.95,306.87" style="stroke: rgb(0, 0, 0); stroke-width: 1; fill: none; fill-opacity: 1;"/><g stroke="#000" transform="matrix(0.014311211306291627,-0.999897589371505,0.999897589371505,0.014311211306291627,260.918215570191,308.8669574632864)" style="stroke: rgb(0, 0, 0); stroke-width: 1;"><path d=" M10.93,-3.29 Q4.96,-0.45 0,0 Q4.96,0.45 10.93,3.29"/></g></g><g class="composite-shape"><path class="real" d=" M208.5,320.88 C208.5,314.79 213.44,309.85 219.53,309.85 L301.47,309.85 C307.56,309.85 312.5,314.79 312.5,320.88 L312.5,353.97 C312.5,360.06 307.56,365 301.47,365 L219.53,365 C213.44,365 208.5,360.06 208.5,353.97 Z" style="stroke-width: 1; stroke: rgb(0, 0, 0); fill: rgb(226, 222, 74); fill-opacity: 0.72;"/></g><g class="arrow-line"><path class="connection real" stroke-dasharray="" d="  M260.54,365.58 L259.95,406.87" style="stroke: rgb(0, 0, 0); stroke-width: 1; fill: none; fill-opacity: 1;"/><g stroke="#000" transform="matrix(0.014311211306291627,-0.999897589371505,0.999897589371505,0.014311211306291627,259.918215570191,408.8669574632864)" style="stroke: rgb(0, 0, 0); stroke-width: 1;"><path d=" M10.93,-3.29 Q4.96,-0.45 0,0 Q4.96,0.45 10.93,3.29"/></g></g><g/></g><g/><g/><g/></svg>
        <svg xmlns="http://www.w3.org/2000/svg" xmlns:xlink="http://www.w3.org/1999/xlink" width="568" height="416.328125" style="width:568px;height:416.328125px;font-family:Asana-Math, Asana;background:transparent;"><g><g><g><g transform="matrix(1,0,0,1,110.984375,27.115625)"><path transform="matrix(0.0216,0,0,-0.0216,0,0)" d="M37 0C72 1 121 3 154 3C187 3 236 1 271 0L271 31C168 31 168 78 168 105L168 644L169 644L410 22C415 9 420 0 430 0C441 0 444 8 448 19L694 652L695 652L695 78C695 42 693 31 616 31L592 31L592 0C629 3 697 3 736 3C775 3 842 3 879 0L879 31L855 31C778 31 776 42 776 78L776 605C776 641 778 652 855 652L879 652L879 683L710 683C684 683 684 682 677 664L458 101L241 661C232 683 229 683 206 683L37 683L37 652L61 652C138 652 140 641 140 605L140 105C140 78 140 31 37 31ZM958 95C958 14 1055 -11 1118 -11C1184 -11 1230 29 1249 76C1253 36 1280 -6 1327 -6C1348 -6 1409 8 1409 89L1409 145L1384 145L1384 89C1384 31 1359 25 1348 25C1315 25 1311 70 1311 75L1311 275C1311 317 1311 356 1275 393C1236 432 1186 448 1138 448C1056 448 987 401 987 335C987 305 1007 288 1033 288C1061 288 1079 308 1079 334C1079 346 1074 379 1028 380C1055 415 1104 426 1136 426C1185 426 1242 387 1242 298L1242 261C1191 258 1121 255 1058 225C983 191 958 139 958 95ZM1035 96C1035 151 1077 234 1242 240L1242 140C1242 45 1170 11 1125 11C1076 11 1035 46 1035 96ZM1449 13C1449 -4 1449 -11 1460 -11C1465 -11 1466 -10 1485 9C1487 11 1487 13 1505 32C1549 -10 1594 -11 1615 -11C1730 -11 1776 56 1776 128C1776 181 1746 211 1734 223C1701 255 1662 263 1620 271C1564 282 1497 295 1497 353C1497 388 1523 429 1609 429C1719 429 1724 339 1726 308C1727 299 1736 299 1738 299C1751 299 1751 304 1751 323L1751 424C1751 441 1751 448 1740 448C1735 448 1733 448 1720 436C1717 432 1707 423 1703 420C1665 448 1624 448 1609 448C1487 448 1449 381 1449 325C1449 290 1465 262 1492 240C1524 214 1552 208 1624 194C1646 190 1728 174 1728 102C1728 51 1693 11 1615 11C1531 11 1495 68 1476 153C1473 166 1472 170 1462 170C1449 170 1449 163 1449 145ZM1838 0C1871 1 1918 3 1947 3C1977 3 2017 2 2057 0L2057 31C1990 31 1979 31 1979 76L1979 179L2043 234C2120 128 2162 72 2162 54C2162 35 2145 31 2126 31L2126 0C2154 1 2213 3 2234 3C2263 3 2292 2 2321 0L2321 31C2284 31 2262 31 2224 84L2097 263C2096 265 2091 271 2091 274C2091 278 2162 338 2172 346C2235 397 2277 399 2298 400L2298 431C2269 428 2256 428 2228 428C2192 428 2130 430 2116 431L2116 400C2135 399 2145 388 2145 375C2145 355 2131 343 2123 336L1982 214L1982 694L1838 683L1838 652C1908 652 1916 645 1916 596L1916 76C1916 31 1905 31 1838 31Z" stroke="rgb(0,0,0)" stroke-opacity="1" stroke-width="8" fill="rgb(0,0,0)" fill-opacity="1"></path></g></g></g></g><g><g><g><g transform="matrix(1,0,0,1,229.5390625,26.06875)"><path transform="matrix(0.0216,0,0,-0.0216,0,0)" d="M28 0C63 3 142 3 180 3C219 3 298 3 333 0L333 31L307 31C228 31 225 42 225 78L225 605C225 641 228 652 307 652L333 652L333 683C298 680 219 680 181 680C142 680 63 680 28 683L28 652L54 652C133 652 136 641 136 605L136 78C136 42 133 31 54 31L28 31ZM393 0C428 1 479 3 506 3C532 3 584 1 618 0L618 31C551 31 540 31 540 76L540 260C540 364 611 420 675 420C738 420 749 366 749 309L749 76C749 31 738 31 671 31L671 0C706 1 757 3 784 3C810 3 862 1 896 0L896 31C844 31 819 31 818 61L818 252C818 338 818 369 787 405C773 422 740 442 682 442C609 442 562 399 534 337L534 442L393 431L393 400C463 400 471 393 471 344L471 76C471 31 460 31 393 31ZM944 -163L944 -194C978 -193 1030 -191 1056 -191C1083 -191 1134 -193 1169 -194L1169 -163C1102 -163 1091 -163 1091 -118L1091 50L1091 59C1096 43 1138 -11 1214 -11C1333 -11 1437 87 1437 216C1437 343 1340 442 1228 442C1150 442 1108 398 1088 376L1088 442L944 431L944 400C1015 400 1022 394 1022 350L1022 -118C1022 -163 1011 -163 944 -163ZM1091 114L1091 337C1120 388 1169 417 1220 417C1293 417 1354 329 1354 216C1354 95 1284 11 1210 11C1170 11 1132 31 1105 72C1091 93 1091 94 1091 114ZM1503 400C1581 400 1581 397 1581 308L1581 158C1581 80 1581 -11 1733 -11C1789 -11 1833 17 1862 79L1862 -11L2006 0L2006 31C1936 31 1928 38 1928 87L1928 442L1781 431L1781 400C1851 400 1859 393 1859 344L1859 166C1859 79 1811 11 1738 11C1654 11 1650 58 1650 110L1650 442L1503 431ZM2045 400L2130 400L2130 124C2130 1 2223 -11 2259 -11C2330 -11 2358 60 2358 124L2358 181L2333 181L2333 126C2333 52 2303 14 2266 14C2199 14 2199 105 2199 122L2199 400L2342 400L2342 431L2199 431L2199 615L2174 615C2173 533 2143 426 2045 422ZM2780 13C2780 -4 2780 -11 2791 -11C2796 -11 2797 -10 2816 9C2818 11 2818 13 2836 32C2880 -10 2925 -11 2946 -11C3061 -11 3107 56 3107 128C3107 181 3077 211 3065 223C3032 255 2993 263 2951 271C2895 282 2828 295 2828 353C2828 388 2854 429 2940 429C3050 429 3055 339 3057 308C3058 299 3067 299 3069 299C3082 299 3082 304 3082 323L3082 424C3082 441 3082 448 3071 448C3066 448 3064 448 3051 436C3048 432 3038 423 3034 420C2996 448 2955 448 2940 448C2818 448 2780 381 2780 325C2780 290 2796 262 2823 240C2855 214 2883 208 2955 194C2977 190 3059 174 3059 102C3059 51 3024 11 2946 11C2862 11 2826 68 2807 153C2804 166 2803 170 2793 170C2780 170 2780 163 2780 145ZM3169 220C3169 86 3274 -11 3389 -11C3511 -11 3556 100 3556 119C3556 129 3548 131 3543 131C3534 131 3532 125 3530 117C3495 14 3405 14 3395 14C3345 14 3305 44 3282 81C3252 129 3252 195 3252 231L3531 231C3553 231 3556 231 3556 252C3556 351 3502 448 3377 448C3261 448 3169 345 3169 220ZM3253 252C3259 401 3343 426 3377 426C3480 426 3490 291 3490 252ZM3604 400L3689 400L3689 124C3689 1 3782 -11 3818 -11C3889 -11 3917 60 3917 124L3917 181L3892 181L3892 126C3892 52 3862 14 3825 14C3758 14 3758 105 3758 122L3758 400L3901 400L3901 431L3758 431L3758 615L3733 615C3732 533 3702 426 3604 422Z" stroke="rgb(0,0,0)" stroke-opacity="1" stroke-width="8" fill="rgb(0,0,0)" fill-opacity="1"></path></g></g></g></g><g><g><g><g transform="matrix(1,0,0,1,207.2578125,57.85)"><path transform="matrix(0.03735,0,0,-0.03735,0,0)" d="M73 250C73 237 91 239 105 237C127 234 214 212 214 117L214 -102C214 -112 214 -121 215 -131C225 -215 325 -250 408 -250C417 -250 425 -247 425 -239C425 -227 409 -227 401 -226C338 -219 295 -180 286 -137C284 -125 284 -113 284 -101L284 121C284 147 277 222 165 250C287 281 284 363 284 385L284 610C284 633 289 694 369 720C398 729 425 723 425 739C425 744 421 750 407 750C358 750 279 734 239 686C219 662 214 641 214 604L214 386C214 376 214 367 212 357C203 305 155 274 111 265C86 260 73 264 73 250Z" stroke="rgb(0,0,0)" stroke-opacity="1" stroke-width="8" fill="rgb(0,0,0)" fill-opacity="1"></path></g></g></g></g><g><g><g><g transform="matrix(1,0,0,1,316.8203125,56.725)"><path transform="matrix(0.03735,0,0,-0.03735,0,0)" d="M73 -239C73 -244 75 -250 91 -250C127 -250 190 -242 236 -208C285 -172 284 -130 284 -104L284 114C284 124 284 133 286 143C295 195 342 226 386 235C410 240 425 236 425 250C425 262 407 261 393 263C370 267 284 287 284 383L284 602C284 612 284 621 283 631C273 715 173 750 90 750C81 750 73 746 73 738C73 726 89 727 97 726C160 719 203 680 212 637C214 625 214 613 214 601L214 378C214 352 221 278 333 250C210 219 214 138 214 115L214 -110C214 -133 209 -194 129 -220C97 -230 73 -224 73 -239Z" stroke="rgb(0,0,0)" stroke-opacity="1" stroke-width="8" fill="rgb(0,0,0)" fill-opacity="1"></path></g></g></g></g><g><g><g><g transform="matrix(1,0,0,1,271.8359375,53.896875)"><path transform="matrix(0.03735,0,0,-0.03735,0,0)" d="M85 53C85 26 107 0 138 0C164 0 190 22 190 53C190 84 166 105 138 105C107 105 85 80 85 53ZM363 53C363 26 385 0 416 0C442 0 468 22 468 53C468 84 444 105 416 105C385 105 363 80 363 53ZM641 53C641 26 663 0 694 0C720 0 746 22 746 53C746 84 722 105 694 105C663 105 641 80 641 53Z" stroke="rgb(0,0,0)" stroke-opacity="1" stroke-width="8" fill="rgb(0,0,0)" fill-opacity="1"></path></g></g></g></g><g><g><g><g transform="matrix(1,0,0,1,243.65625,58.4125)"><path transform="matrix(0.03735,0,0,-0.03735,0,0)" d="M86 53C86 27 103 0 139 0C155 0 167 6 177 14L179 16C180 16 181 15 181 1C181 -63 153 -124 109 -171C103 -177 102 -178 102 -182C102 -189 107 -193 112 -193C124 -193 203 -114 203 1C203 65 179 106 139 106C104 106 86 79 86 53Z" stroke="rgb(0,0,0)" stroke-opacity="1" stroke-width="8" fill="rgb(0,0,0)" fill-opacity="1"></path></g></g></g></g><g><g><g><g transform="matrix(1,0,0,1,203.2578125,152.6275)"><path transform="matrix(0.019440000000000002,0,0,-0.019440000000000002,0,0)" d="M56 2C56 -15 56 -22 67 -22C74 -22 75 -20 82 -9C82 -8 85 -5 118 48C149 14 213 -22 302 -22C419 -22 499 76 499 186C499 286 433 368 349 388L221 419C159 434 120 488 120 546C120 616 174 677 252 677C419 677 441 513 447 468C448 462 448 456 459 456C472 456 472 461 472 480L472 681C472 698 472 705 461 705C454 705 453 704 446 692L411 635C381 664 340 705 251 705C140 705 56 617 56 511C56 428 109 355 187 328C198 324 249 312 319 295C346 288 376 281 404 244C425 218 435 185 435 152C435 81 385 9 301 9C272 9 196 14 143 63C85 117 82 181 81 217C80 227 72 227 69 227C56 227 56 220 56 202ZM583 220C583 86 688 -11 803 -11C925 -11 970 100 970 119C970 129 962 131 957 131C948 131 946 125 944 117C909 14 819 14 809 14C759 14 719 44 696 81C666 129 666 195 666 231L945 231C967 231 970 231 970 252C970 351 916 448 791 448C675 448 583 345 583 220ZM667 252C673 401 757 426 791 426C894 426 904 291 904 252ZM1032 0C1065 1 1118 3 1143 3C1168 3 1217 1 1254 0L1254 31C1187 31 1176 31 1176 76L1176 694L1032 683L1032 652C1102 652 1110 645 1110 596L1110 76C1110 31 1099 31 1032 31ZM1309 400L1388 400L1388 76C1388 31 1377 31 1310 31L1310 0C1349 1 1396 3 1424 3C1464 3 1511 3 1551 0L1551 31L1530 31C1456 31 1454 42 1454 78L1454 400L1568 400L1568 431L1451 431L1451 547C1451 635 1499 683 1543 683C1546 683 1561 683 1576 676C1564 672 1546 659 1546 634C1546 611 1562 591 1589 591C1618 591 1633 611 1633 635C1633 672 1596 705 1543 705C1473 705 1388 652 1388 546L1388 431L1309 431ZM1946 0C1969 1 2012 3 2048 3C2079 3 2131 1 2163 0L2163 31C2113 31 2088 56 2088 82C2088 85 2089 95 2090 97L2136 228L2383 228L2436 75C2437 71 2439 65 2439 61C2439 31 2383 31 2356 31L2356 0C2392 3 2462 3 2500 3C2543 3 2589 2 2631 0L2631 31L2613 31C2553 31 2539 38 2528 71L2312 696C2307 709 2305 716 2289 716C2273 716 2270 710 2265 696L2058 98C2040 47 2000 32 1946 31ZM2147 259L2259 584L2372 259ZM2655 400L2740 400L2740 124C2740 1 2833 -11 2869 -11C2940 -11 2968 60 2968 124L2968 181L2943 181L2943 126C2943 52 2913 14 2876 14C2809 14 2809 105 2809 122L2809 400L2952 400L2952 431L2809 431L2809 615L2784 615C2783 533 2753 426 2655 422ZM3043 400L3128 400L3128 124C3128 1 3221 -11 3257 -11C3328 -11 3356 60 3356 124L3356 181L3331 181L3331 126C3331 52 3301 14 3264 14C3197 14 3197 105 3197 122L3197 400L3340 400L3340 431L3197 431L3197 615L3172 615C3171 533 3141 426 3043 422ZM3440 220C3440 86 3545 -11 3660 -11C3782 -11 3827 100 3827 119C3827 129 3819 131 3814 131C3805 131 3803 125 3801 117C3766 14 3676 14 3666 14C3616 14 3576 44 3553 81C3523 129 3523 195 3523 231L3802 231C3824 231 3827 231 3827 252C3827 351 3773 448 3648 448C3532 448 3440 345 3440 220ZM3524 252C3530 401 3614 426 3648 426C3751 426 3761 291 3761 252ZM3888 0C3923 1 3974 3 4001 3C4027 3 4079 1 4113 0L4113 31C4046 31 4035 31 4035 76L4035 260C4035 364 4106 420 4170 420C4233 420 4244 366 4244 309L4244 76C4244 31 4233 31 4166 31L4166 0C4201 1 4252 3 4279 3C4305 3 4357 1 4391 0L4391 31C4339 31 4314 31 4313 61L4313 252C4313 338 4313 369 4282 405C4268 422 4235 442 4177 442C4104 442 4057 399 4029 337L4029 442L3888 431L3888 400C3958 400 3966 393 3966 344L3966 76C3966 31 3955 31 3888 31ZM4402 400L4487 400L4487 124C4487 1 4580 -11 4616 -11C4687 -11 4715 60 4715 124L4715 181L4690 181L4690 126C4690 52 4660 14 4623 14C4556 14 4556 105 4556 122L4556 400L4699 400L4699 431L4556 431L4556 615L4531 615C4530 533 4500 426 4402 422ZM4846 616C4846 589 4868 563 4899 563C4927 563 4952 584 4952 616C4952 648 4927 669 4899 669C4868 669 4846 642 4846 616ZM4804 0C4836 1 4890 3 4914 3C4949 3 4984 1 5018 0L5018 31C4952 31 4948 36 4948 75L4948 442L4808 431L4808 400C4873 400 4882 394 4882 345L4882 76C4882 31 4871 31 4804 31ZM5076 214C5076 85 5180 -11 5297 -11C5418 -11 5519 87 5519 214C5519 342 5419 448 5298 448C5173 448 5076 339 5076 214ZM5159 222C5159 261 5159 315 5183 359C5210 405 5257 426 5297 426C5341 426 5384 404 5410 361C5436 318 5436 260 5436 222C5436 186 5436 132 5414 88C5392 43 5348 14 5298 14C5255 14 5211 35 5184 81C5159 125 5159 186 5159 222ZM5580 0C5615 1 5666 3 5693 3C5719 3 5771 1 5805 0L5805 31C5738 31 5727 31 5727 76L5727 260C5727 364 5798 420 5862 420C5925 420 5936 366 5936 309L5936 76C5936 31 5925 31 5858 31L5858 0C5893 1 5944 3 5971 3C5997 3 6049 1 6083 0L6083 31C6031 31 6006 31 6005 61L6005 252C6005 338 6005 369 5974 405C5960 422 5927 442 5869 442C5796 442 5749 399 5721 337L5721 442L5580 431L5580 400C5650 400 5658 393 5658 344L5658 76C5658 31 5647 31 5580 31Z" stroke="rgb(0,0,0)" stroke-opacity="1" stroke-width="8" fill="rgb(0,0,0)" fill-opacity="1"></path></g></g></g></g><g transform="matrix(0.8073724359982184,0.5900421591634811,-0.5900421591634811,0.8073724359982184,166.59950339573192,-200.78372599311473)"><g><g><g transform="matrix(1,0,0,1,377.3671875,176.049625)"><path transform="matrix(0.053784,0,0,-0.053784,0,0)" d="M73 -239C73 -244 75 -250 91 -250C127 -250 190 -242 236 -208C285 -172 284 -130 284 -104L284 114C284 124 284 133 286 143C295 195 342 226 386 235C410 240 425 236 425 250C425 262 407 261 393 263C370 267 284 287 284 383L284 602C284 612 284 621 283 631C273 715 173 750 90 750C81 750 73 746 73 738C73 726 89 727 97 726C160 719 203 680 212 637C214 625 214 613 214 601L214 378C214 352 221 278 333 250C210 219 214 138 214 115L214 -110C214 -133 209 -194 129 -220C97 -230 73 -224 73 -239Z" stroke="rgb(0,0,0)" stroke-opacity="1" stroke-width="8" fill="rgb(0,0,0)" fill-opacity="1"></path></g></g></g></g><g transform="matrix(0.8208502716607449,0.5711434421530912,-0.5711434421530912,0.8208502716607449,180.03183559224345,-209.39316954238348)"><g><g><g transform="matrix(1,0,0,1,397.359375,189.88125)"><path transform="matrix(0.0216,0,0,-0.0216,0,0)" d="M32 0C67 1 118 3 145 3C171 3 223 1 257 0L257 31C190 31 179 31 179 76L179 260C179 364 250 420 314 420C377 420 388 366 388 309L388 76C388 31 377 31 310 31L310 0C345 1 396 3 423 3C449 3 501 1 535 0L535 31C483 31 458 31 457 61L457 252C457 338 457 369 426 405C412 422 379 442 321 442C237 442 193 382 177 346L176 346L176 694L32 683L32 652C102 652 110 645 110 596L110 76C110 31 99 31 32 31ZM583 220C583 86 688 -11 803 -11C925 -11 970 100 970 119C970 129 962 131 957 131C948 131 946 125 944 117C909 14 819 14 809 14C759 14 719 44 696 81C666 129 666 195 666 231L945 231C967 231 970 231 970 252C970 351 916 448 791 448C675 448 583 345 583 220ZM667 252C673 401 757 426 791 426C894 426 904 291 904 252ZM1041 95C1041 14 1138 -11 1201 -11C1267 -11 1313 29 1332 76C1336 36 1363 -6 1410 -6C1431 -6 1492 8 1492 89L1492 145L1467 145L1467 89C1467 31 1442 25 1431 25C1398 25 1394 70 1394 75L1394 275C1394 317 1394 356 1358 393C1319 432 1269 448 1221 448C1139 448 1070 401 1070 335C1070 305 1090 288 1116 288C1144 288 1162 308 1162 334C1162 346 1157 379 1111 380C1138 415 1187 426 1219 426C1268 426 1325 387 1325 298L1325 261C1274 258 1204 255 1141 225C1066 191 1041 139 1041 95ZM1118 96C1118 151 1160 234 1325 240L1325 140C1325 45 1253 11 1208 11C1159 11 1118 46 1118 96ZM1533 215C1533 88 1631 -11 1745 -11C1809 -11 1854 23 1879 55L1879 -11L2026 0L2026 31C1956 31 1948 38 1948 87L1948 694L1804 683L1804 652C1874 652 1882 645 1882 596L1882 380C1853 416 1810 442 1756 442C1638 442 1533 344 1533 215ZM1616 214C1616 251 1618 311 1647 356C1668 387 1706 420 1760 420C1795 420 1837 405 1868 360C1879 343 1879 341 1879 323L1879 118C1879 100 1879 98 1868 81C1838 33 1793 11 1750 11C1705 11 1669 37 1645 75C1619 116 1616 173 1616 214ZM2087 13C2087 -4 2087 -11 2098 -11C2103 -11 2104 -10 2123 9C2125 11 2125 13 2143 32C2187 -10 2232 -11 2253 -11C2368 -11 2414 56 2414 128C2414 181 2384 211 2372 223C2339 255 2300 263 2258 271C2202 282 2135 295 2135 353C2135 388 2161 429 2247 429C2357 429 2362 339 2364 308C2365 299 2374 299 2376 299C2389 299 2389 304 2389 323L2389 424C2389 441 2389 448 2378 448C2373 448 2371 448 2358 436C2355 432 2345 423 2341 420C2303 448 2262 448 2247 448C2125 448 2087 381 2087 325C2087 290 2103 262 2130 240C2162 214 2190 208 2262 194C2284 190 2366 174 2366 102C2366 51 2331 11 2253 11C2169 11 2133 68 2114 153C2111 166 2110 170 2100 170C2087 170 2087 163 2087 145Z" stroke="rgb(0,0,0)" stroke-opacity="1" stroke-width="8" fill="rgb(0,0,0)" fill-opacity="1"></path></g></g></g></g><g><g><g><g transform="matrix(1,0,0,1,196.984375,243.115625)"><path transform="matrix(0.0216,0,0,-0.0216,0,0)" d="M56 342C56 135 218 -22 404 -22C567 -22 665 117 665 233C665 243 665 250 652 250C641 250 641 244 640 234C632 91 525 9 416 9C355 9 159 43 159 341C159 640 354 674 415 674C524 674 613 583 633 437C635 423 635 420 649 420C665 420 665 423 665 444L665 681C665 698 665 705 654 705C650 705 646 705 638 693L588 619C551 655 500 705 404 705C217 705 56 546 56 342ZM750 214C750 85 854 -11 971 -11C1092 -11 1193 87 1193 214C1193 342 1093 448 972 448C847 448 750 339 750 214ZM833 222C833 261 833 315 857 359C884 405 931 426 971 426C1015 426 1058 404 1084 361C1110 318 1110 260 1110 222C1110 186 1110 132 1088 88C1066 43 1022 14 972 14C929 14 885 35 858 81C833 125 833 186 833 222ZM1254 0C1289 1 1340 3 1367 3C1393 3 1445 1 1479 0L1479 31C1412 31 1401 31 1401 76L1401 260C1401 364 1472 420 1536 420C1599 420 1610 366 1610 309L1610 76C1610 31 1599 31 1532 31L1532 0C1567 1 1618 3 1645 3C1671 3 1723 1 1757 0L1757 31C1705 31 1680 31 1679 61L1679 252C1679 338 1679 369 1648 405C1634 422 1601 442 1543 442C1470 442 1423 399 1395 337L1395 442L1254 431L1254 400C1324 400 1332 393 1332 344L1332 76C1332 31 1321 31 1254 31ZM1811 216C1811 88 1910 -11 2026 -11C2160 -11 2192 109 2192 119C2192 129 2182 129 2179 129C2170 129 2168 125 2166 119C2137 26 2072 14 2035 14C1982 14 1894 57 1894 218C1894 381 1976 423 2029 423C2038 423 2101 422 2136 386C2095 383 2089 353 2089 340C2089 314 2107 294 2135 294C2161 294 2181 311 2181 341C2181 409 2105 448 2028 448C1903 448 1811 340 1811 216ZM2263 95C2263 14 2360 -11 2423 -11C2489 -11 2535 29 2554 76C2558 36 2585 -6 2632 -6C2653 -6 2714 8 2714 89L2714 145L2689 145L2689 89C2689 31 2664 25 2653 25C2620 25 2616 70 2616 75L2616 275C2616 317 2616 356 2580 393C2541 432 2491 448 2443 448C2361 448 2292 401 2292 335C2292 305 2312 288 2338 288C2366 288 2384 308 2384 334C2384 346 2379 379 2333 380C2360 415 2409 426 2441 426C2490 426 2547 387 2547 298L2547 261C2496 258 2426 255 2363 225C2288 191 2263 139 2263 95ZM2340 96C2340 151 2382 234 2547 240L2547 140C2547 45 2475 11 2430 11C2381 11 2340 46 2340 96ZM2740 400L2825 400L2825 124C2825 1 2918 -11 2954 -11C3025 -11 3053 60 3053 124L3053 181L3028 181L3028 126C3028 52 2998 14 2961 14C2894 14 2894 105 2894 122L2894 400L3037 400L3037 431L2894 431L2894 615L2869 615C2868 533 2838 426 2740 422ZM3137 220C3137 86 3242 -11 3357 -11C3479 -11 3524 100 3524 119C3524 129 3516 131 3511 131C3502 131 3500 125 3498 117C3463 14 3373 14 3363 14C3313 14 3273 44 3250 81C3220 129 3220 195 3220 231L3499 231C3521 231 3524 231 3524 252C3524 351 3470 448 3345 448C3229 448 3137 345 3137 220ZM3221 252C3227 401 3311 426 3345 426C3448 426 3458 291 3458 252ZM3585 0C3620 1 3671 3 3698 3C3724 3 3776 1 3810 0L3810 31C3743 31 3732 31 3732 76L3732 260C3732 364 3803 420 3867 420C3930 420 3941 366 3941 309L3941 76C3941 31 3930 31 3863 31L3863 0C3898 1 3949 3 3976 3C4002 3 4054 1 4088 0L4088 31C4036 31 4011 31 4010 61L4010 252C4010 338 4010 369 3979 405C3965 422 3932 442 3874 442C3801 442 3754 399 3726 337L3726 442L3585 431L3585 400C3655 400 3663 393 3663 344L3663 76C3663 31 3652 31 3585 31ZM4150 95C4150 14 4247 -11 4310 -11C4376 -11 4422 29 4441 76C4445 36 4472 -6 4519 -6C4540 -6 4601 8 4601 89L4601 145L4576 145L4576 89C4576 31 4551 25 4540 25C4507 25 4503 70 4503 75L4503 275C4503 317 4503 356 4467 393C4428 432 4378 448 4330 448C4248 448 4179 401 4179 335C4179 305 4199 288 4225 288C4253 288 4271 308 4271 334C4271 346 4266 379 4220 380C4247 415 4296 426 4328 426C4377 426 4434 387 4434 298L4434 261C4383 258 4313 255 4250 225C4175 191 4150 139 4150 95ZM4227 96C4227 151 4269 234 4434 240L4434 140C4434 45 4362 11 4317 11C4268 11 4227 46 4227 96ZM4627 400L4712 400L4712 124C4712 1 4805 -11 4841 -11C4912 -11 4940 60 4940 124L4940 181L4915 181L4915 126C4915 52 4885 14 4848 14C4781 14 4781 105 4781 122L4781 400L4924 400L4924 431L4781 431L4781 615L4756 615C4755 533 4725 426 4627 422ZM5071 616C5071 589 5093 563 5124 563C5152 563 5177 584 5177 616C5177 648 5152 669 5124 669C5093 669 5071 642 5071 616ZM5029 0C5061 1 5115 3 5139 3C5174 3 5209 1 5243 0L5243 31C5177 31 5173 36 5173 75L5173 442L5033 431L5033 400C5098 400 5107 394 5107 345L5107 76C5107 31 5096 31 5029 31ZM5301 214C5301 85 5405 -11 5522 -11C5643 -11 5744 87 5744 214C5744 342 5644 448 5523 448C5398 448 5301 339 5301 214ZM5384 222C5384 261 5384 315 5408 359C5435 405 5482 426 5522 426C5566 426 5609 404 5635 361C5661 318 5661 260 5661 222C5661 186 5661 132 5639 88C5617 43 5573 14 5523 14C5480 14 5436 35 5409 81C5384 125 5384 186 5384 222ZM5805 0C5840 1 5891 3 5918 3C5944 3 5996 1 6030 0L6030 31C5963 31 5952 31 5952 76L5952 260C5952 364 6023 420 6087 420C6150 420 6161 366 6161 309L6161 76C6161 31 6150 31 6083 31L6083 0C6118 1 6169 3 6196 3C6222 3 6274 1 6308 0L6308 31C6256 31 6231 31 6230 61L6230 252C6230 338 6230 369 6199 405C6185 422 6152 442 6094 442C6021 442 5974 399 5946 337L5946 442L5805 431L5805 400C5875 400 5883 393 5883 344L5883 76C5883 31 5872 31 5805 31Z" stroke="rgb(0,0,0)" stroke-opacity="1" stroke-width="8" fill="rgb(0,0,0)" fill-opacity="1"></path></g></g></g></g><g><g><g><g transform="matrix(1,0,0,1,228.9765625,343.115625)"><path transform="matrix(0.0216,0,0,-0.0216,0,0)" d="M33 0L554 0L582 258L557 258C546 156 532 31 356 31L274 31C227 31 225 38 225 71L225 604C225 638 225 652 320 652L353 652L353 683C317 680 226 680 185 680C146 680 68 680 33 683L33 652L57 652C134 652 136 641 136 605L136 78C136 42 134 31 57 31L33 31ZM700 616C700 589 722 563 753 563C781 563 806 584 806 616C806 648 781 669 753 669C722 669 700 642 700 616ZM658 0C690 1 744 3 768 3C803 3 838 1 872 0L872 31C806 31 802 36 802 75L802 442L662 431L662 400C727 400 736 394 736 345L736 76C736 31 725 31 658 31ZM934 0C969 1 1020 3 1047 3C1073 3 1125 1 1159 0L1159 31C1092 31 1081 31 1081 76L1081 260C1081 364 1152 420 1216 420C1279 420 1290 366 1290 309L1290 76C1290 31 1279 31 1212 31L1212 0C1247 1 1298 3 1325 3C1351 3 1403 1 1437 0L1437 31C1385 31 1360 31 1359 61L1359 252C1359 338 1359 369 1328 405C1314 422 1281 442 1223 442C1150 442 1103 399 1075 337L1075 442L934 431L934 400C1004 400 1012 393 1012 344L1012 76C1012 31 1001 31 934 31ZM1485 220C1485 86 1590 -11 1705 -11C1827 -11 1872 100 1872 119C1872 129 1864 131 1859 131C1850 131 1848 125 1846 117C1811 14 1721 14 1711 14C1661 14 1621 44 1598 81C1568 129 1568 195 1568 231L1847 231C1869 231 1872 231 1872 252C1872 351 1818 448 1693 448C1577 448 1485 345 1485 220ZM1569 252C1575 401 1659 426 1693 426C1796 426 1806 291 1806 252ZM1943 95C1943 14 2040 -11 2103 -11C2169 -11 2215 29 2234 76C2238 36 2265 -6 2312 -6C2333 -6 2394 8 2394 89L2394 145L2369 145L2369 89C2369 31 2344 25 2333 25C2300 25 2296 70 2296 75L2296 275C2296 317 2296 356 2260 393C2221 432 2171 448 2123 448C2041 448 1972 401 1972 335C1972 305 1992 288 2018 288C2046 288 2064 308 2064 334C2064 346 2059 379 2013 380C2040 415 2089 426 2121 426C2170 426 2227 387 2227 298L2227 261C2176 258 2106 255 2043 225C1968 191 1943 139 1943 95ZM2020 96C2020 151 2062 234 2227 240L2227 140C2227 45 2155 11 2110 11C2061 11 2020 46 2020 96ZM2429 0C2468 1 2515 3 2543 3C2583 3 2630 3 2670 0L2670 31L2649 31C2575 31 2573 42 2573 78L2573 232C2573 331 2615 420 2691 420C2698 420 2700 420 2702 419C2699 418 2679 406 2679 380C2679 352 2700 337 2722 337C2740 337 2765 349 2765 381C2765 413 2734 442 2691 442C2618 442 2582 375 2568 332L2568 442L2429 431L2429 400C2499 400 2507 393 2507 344L2507 76C2507 31 2496 31 2429 31Z" stroke="rgb(0,0,0)" stroke-opacity="1" stroke-width="8" fill="rgb(0,0,0)" fill-opacity="1"></path></g></g></g></g></svg>
</svg>
