<svg xmlns="http://www.w3.org/2000/svg" xmlns:xlink="http://www.w3.org/1999/xlink" x="0" y="0" width="627" height="553.328125" style="
        width:627px;
        height:553.328125px;
        background: transparent;
        fill: none;
">
        
        
        <svg xmlns="http://www.w3.org/2000/svg" class="role-diagram-draw-area"><g class="shapes-region" style="stroke: black; fill: none;"><g class="composite-shape"><path class="real" d=" M11.55,42.06 C11.55,39.74 13.43,37.85 15.75,37.85 L58.1,37.85 C60.42,37.85 62.31,39.74 62.31,42.06 L62.31,54.66 C62.31,56.98 60.42,58.87 58.1,58.87 L15.75,58.87 C13.43,58.87 11.55,56.98 11.55,54.66 Z" style="stroke-width: 1; stroke: rgb(0, 0, 0); fill: rgb(155, 155, 155); fill-opacity: 0.4;"/></g><g class="composite-shape"><path class="real" d=" M68.5,112.15 C68.5,107.88 71.96,104.42 76.23,104.42 L258.77,104.42 C263.04,104.42 266.5,107.88 266.5,112.15 L266.5,135.34 C266.5,139.6 263.04,143.07 258.77,143.07 L76.23,143.07 C71.96,143.07 68.5,139.6 68.5,135.34 Z" style="stroke-width: 1; stroke: rgb(0, 0, 0); fill: rgb(245, 166, 35); fill-opacity: 0.8;"/></g><g class="arrow-line"><path class="connection real" stroke-dasharray="" d="  M125.5,143.07 L125.45,167.43" style="stroke: rgb(0, 0, 0); stroke-width: 1; fill: none; fill-opacity: 1;"/><g stroke="#000" transform="matrix(0.0020943935712190603,-0.9999978067553793,0.9999978067553793,0.0020943935712190603,125.44446713022444,169.43197187116533)" style="stroke: rgb(0, 0, 0); stroke-width: 1;"><path d=" M10.93,-3.29 Q4.96,-0.45 0,0 Q4.96,0.45 10.93,3.29"/></g></g><g class="arrow-line"><path class="connection real" stroke-dasharray="" d="  M168.16,143.07 L168.16,166.3" style="stroke: rgb(0, 0, 0); stroke-width: 1; fill: none; fill-opacity: 1;"/><g stroke="#000" transform="matrix(-1.8369701987210297e-16,-1,1,-1.8369701987210297e-16,168.15623791168264,168.30375128798093)" style="stroke: rgb(0, 0, 0); stroke-width: 1;"><path d=" M10.93,-3.29 Q4.96,-0.45 0,0 Q4.96,0.45 10.93,3.29"/></g></g><g class="arrow-line"><path class="connection real" stroke-dasharray="" d="  M207.61,143.07 L207.76,167.43" style="stroke: rgb(0, 0, 0); stroke-width: 1; fill: none; fill-opacity: 1;"/><g stroke="#000" transform="matrix(-0.006108614390679053,-0.9999813422410571,0.9999813422410571,-0.006108614390679053,207.77295283941191,169.43197187116536)" style="stroke: rgb(0, 0, 0); stroke-width: 1;"><path d=" M10.93,-3.29 Q4.96,-0.45 0,0 Q4.96,0.45 10.93,3.29"/></g></g><g class="composite-shape"><path class="real" d=" M103.5,223.25 C103.5,221.18 105.18,219.5 107.25,219.5 L182.75,219.5 C184.82,219.5 186.5,221.18 186.5,223.25 L186.5,234.5 C186.5,236.57 184.82,238.25 182.75,238.25 L107.25,238.25 C105.18,238.25 103.5,236.57 103.5,234.5 Z" style="stroke-width: 1; stroke: rgb(0, 0, 0); fill: rgb(184, 233, 134); fill-opacity: 0.8;"/></g><g class="arrow-line"><path class="connection real" stroke-dasharray="" d="  M167.54,187.63 L167.54,210.87" style="stroke: rgb(0, 0, 0); stroke-width: 1; fill: none; fill-opacity: 1;"/><g stroke="#000" transform="matrix(-1.8369701987210297e-16,-1,1,-1.8369701987210297e-16,167.53722674093683,212.8684643237643)" style="stroke: rgb(0, 0, 0); stroke-width: 1;"><path d=" M10.93,-3.29 Q4.96,-0.45 0,0 Q4.96,0.45 10.93,3.29"/></g></g><g class="arrow-line"><path class="connection real" stroke-dasharray="" d="  M124.88,187.07 L124.83,211.43" style="stroke: rgb(0, 0, 0); stroke-width: 1; fill: none; fill-opacity: 1;"/><g stroke="#000" transform="matrix(0.0020943935712190603,-0.9999978067553793,0.9999978067553793,0.0020943935712190603,124.82545595947869,213.4325746153565)" style="stroke: rgb(0, 0, 0); stroke-width: 1;"><path d=" M10.93,-3.29 Q4.96,-0.45 0,0 Q4.96,0.45 10.93,3.29"/></g></g><g class="arrow-line"><path class="connection real" stroke-dasharray="" d="  M142.21,238.4 L142.16,262.77" style="stroke: rgb(0, 0, 0); stroke-width: 1; fill: none; fill-opacity: 1;"/><g stroke="#000" transform="matrix(0.0020943935712190603,-0.9999978067553793,0.9999978067553793,0.0020943935712190603,142.1577687403602,264.76661115024615)" style="stroke: rgb(0, 0, 0); stroke-width: 1;"><path d=" M10.93,-3.29 Q4.96,-0.45 0,0 Q4.96,0.45 10.93,3.29"/></g></g><g class="composite-shape"><path class="real" d=" M115.54,271.2 C115.54,269.13 117.22,267.45 119.29,267.45 L164.41,267.45 C166.48,267.45 168.16,269.13 168.16,271.2 L168.16,282.45 C168.16,284.52 166.48,286.2 164.41,286.2 L119.29,286.2 C117.22,286.2 115.54,284.52 115.54,282.45 Z" style="stroke-width: 1; stroke: rgb(0, 0, 0); fill: rgb(80, 227, 194); fill-opacity: 0.6;"/></g><g class="composite-shape"><path class="real" d=" M114.92,318.58 C114.92,316.51 116.6,314.83 118.67,314.83 L163.79,314.83 C165.86,314.83 167.54,316.51 167.54,318.58 L167.54,329.84 C167.54,331.91 165.86,333.59 163.79,333.59 L118.67,333.59 C116.6,333.59 114.92,331.91 114.92,329.84 Z" style="stroke-width: 1; stroke: rgb(0, 0, 0); fill: rgb(155, 155, 155); fill-opacity: 0.4;"/></g><g class="arrow-line"><path class="connection real" stroke-dasharray="" d="  M141.6,285.79 L141.54,310.15" style="stroke: rgb(0, 0, 0); stroke-width: 1; fill: none; fill-opacity: 1;"/><g stroke="#000" transform="matrix(0.0020943935712190603,-0.9999978067553793,0.9999978067553793,0.0020943935712190603,141.53875756961452,312.1518756439906)" style="stroke: rgb(0, 0, 0); stroke-width: 1;"><path d=" M10.93,-3.29 Q4.96,-0.45 0,0 Q4.96,0.45 10.93,3.29"/></g></g><g class="arrow-line"><path class="connection real" stroke-dasharray="" d="  M36,58.87 L35.07,325.69" style="stroke: rgb(0, 0, 0); stroke-width: 1; fill: none; fill-opacity: 1;"/></g><g class="arrow-line"><path class="connection real" stroke-dasharray="" d="  M35.07,325.69 L113.54,325.14" style="stroke: rgb(0, 0, 0); stroke-width: 1; fill: none; fill-opacity: 1;"/><g stroke="#000" transform="matrix(-0.9999756307053947,0.006981260297961486,-0.006981260297961486,-0.9999756307053947,115.54028839829216,325.12641235061096)" style="stroke: rgb(0, 0, 0); stroke-width: 1;"><path d=" M10.93,-3.29 Q4.96,-0.45 0,0 Q4.96,0.45 10.93,3.29"/></g></g><g class="composite-shape"><path class="real" d=" M99.5,366.53 C99.5,364.46 101.18,362.78 103.25,362.78 L182.75,362.78 C184.82,362.78 186.5,364.46 186.5,366.53 L186.5,377.79 C186.5,379.86 184.82,381.54 182.75,381.54 L103.25,381.54 C101.18,381.54 99.5,379.86 99.5,377.79 Z" style="stroke-width: 1; stroke: rgb(0, 0, 0); fill: rgb(208, 2, 27); fill-opacity: 0.65;"/></g><g class="arrow-line"><path class="connection real" stroke-dasharray="" d="  M141.6,333.73 L141.54,358.1" style="stroke: rgb(0, 0, 0); stroke-width: 1; fill: none; fill-opacity: 1;"/><g stroke="#000" transform="matrix(0.0020943935712190603,-0.9999978067553793,0.9999978067553793,0.0020943935712190603,141.53875756961452,360.101250429327)" style="stroke: rgb(0, 0, 0); stroke-width: 1;"><path d=" M10.93,-3.29 Q4.96,-0.45 0,0 Q4.96,0.45 10.93,3.29"/></g></g><g class="composite-shape"><path class="real" d=" M114.92,414.48 C114.92,412.41 116.6,410.73 118.67,410.73 L226.31,410.73 C228.38,410.73 230.06,412.41 230.06,414.48 L230.06,425.74 C230.06,427.81 228.38,429.49 226.31,429.49 L118.67,429.49 C116.6,429.49 114.92,427.81 114.92,425.74 Z" style="stroke-width: 1; stroke: rgb(0, 0, 0); fill: rgb(184, 233, 134); fill-opacity: 0.8;"/></g><g class="arrow-line"><path class="connection real" stroke-dasharray="" d="  M141.6,381.68 L141.54,406.05" style="stroke: rgb(0, 0, 0); stroke-width: 1; fill: none; fill-opacity: 1;"/><g stroke="#000" transform="matrix(0.0020943935712190603,-0.9999978067553793,0.9999978067553793,0.0020943935712190603,141.53875756961452,408.05062521466357)" style="stroke: rgb(0, 0, 0); stroke-width: 1;"><path d=" M10.93,-3.29 Q4.96,-0.45 0,0 Q4.96,0.45 10.93,3.29"/></g></g><g class="arrow-line"><path class="connection real" stroke-dasharray="" d="  M206.5,188.99 L207.76,408.31" style="stroke: rgb(0, 0, 0); stroke-width: 1; fill: none; fill-opacity: 1;"/><g stroke="#000" transform="matrix(-0.005759554687996382,-0.9999834136273441,0.9999834136273441,-0.005759554687996382,207.77295283941191,410.3070663810323)" style="stroke: rgb(0, 0, 0); stroke-width: 1;"><path d=" M10.93,-3.29 Q4.96,-0.45 0,0 Q4.96,0.45 10.93,3.29"/></g></g><g class="composite-shape"><path class="real" d=" M127.3,38.8 C127.3,36.41 129.24,34.47 131.63,34.47 L137.21,34.47 C139.6,34.47 141.54,36.41 141.54,38.8 L141.54,51.15 C141.54,53.54 139.6,55.48 137.21,55.48 L131.63,55.48 C129.24,55.48 127.3,53.54 127.3,51.15 Z" style="stroke-width: 1; stroke: rgb(0, 0, 0); fill: rgb(248, 231, 28); fill-opacity: 0.7;"/></g><g class="composite-shape"><path class="real" d=" M153.92,38.8 C153.92,36.41 155.86,34.47 158.25,34.47 L163.82,34.47 C166.22,34.47 168.16,36.41 168.16,38.8 L168.16,51.15 C168.16,53.54 166.22,55.48 163.82,55.48 L158.25,55.48 C155.86,55.48 153.92,53.54 153.92,51.15 Z" style="stroke-width: 1; stroke: rgb(0, 0, 0); fill: rgb(208, 2, 27); fill-opacity: 0.45;"/></g><g class="composite-shape"><path class="real" d=" M202.2,38.24 C202.2,35.85 204.14,33.91 206.53,33.91 L212.11,33.91 C214.5,33.91 216.44,35.85 216.44,38.24 L216.44,50.58 C216.44,52.98 214.5,54.92 212.11,54.92 L206.53,54.92 C204.14,54.92 202.2,52.98 202.2,50.58 Z" style="stroke-width: 1; stroke: rgb(0, 0, 0); fill: rgb(139, 87, 42); fill-opacity: 0.35;"/></g><g class="arrow-line"><path class="connection real" stroke-dasharray="" d="  M167.54,59.58 L166.95,100.87" style="stroke: rgb(0, 0, 0); stroke-width: 1; fill: none; fill-opacity: 1;"/><g stroke="#000" transform="matrix(0.014311211306291627,-0.999897589371505,0.999897589371505,0.014311211306291627,166.91821557019102,102.86695746328641)" style="stroke: rgb(0, 0, 0); stroke-width: 1;"><path d=" M10.93,-3.29 Q4.96,-0.45 0,0 Q4.96,0.45 10.93,3.29"/></g></g><g class="arrow-line"><path class="connection real" stroke-dasharray="" d="  M171.93,429.63 L171.87,454" style="stroke: rgb(0, 0, 0); stroke-width: 1; fill: none; fill-opacity: 1;"/><g stroke="#000" transform="matrix(0.0020943935712190603,-0.9999978067553793,0.9999978067553793,0.0020943935712190603,171.87030493615725,456)" style="stroke: rgb(0, 0, 0); stroke-width: 1;"><path d=" M10.93,-3.29 Q4.96,-0.45 0,0 Q4.96,0.45 10.93,3.29"/></g></g><g class="composite-shape"><path class="real" d=" M283.55,46.06 C283.55,43.74 285.43,41.85 287.75,41.85 L330.1,41.85 C332.42,41.85 334.31,43.74 334.31,46.06 L334.31,58.66 C334.31,60.98 332.42,62.87 330.1,62.87 L287.75,62.87 C285.43,62.87 283.55,60.98 283.55,58.66 Z" style="stroke-width: 1; stroke: rgb(0, 0, 0); fill: rgb(155, 155, 155); fill-opacity: 0.4;"/></g><g class="arrow-line"><path class="connection real" stroke-dasharray="" d="  M308,62.87 L307.5,126" style="stroke: rgb(0, 0, 0); stroke-width: 1; fill: none; fill-opacity: 1;"/></g><g class="arrow-line"><path class="connection real" stroke-dasharray="" d="  M307.5,126 L335.5,125.07" style="stroke: rgb(0, 0, 0); stroke-width: 1; fill: none; fill-opacity: 1;"/><g stroke="#000" transform="matrix(-0.9994444140490196,0.033329614852438905,-0.033329614852438905,-0.9994444140490196,337.5,125)" style="stroke: rgb(0, 0, 0); stroke-width: 1;"><path d=" M10.93,-3.29 Q4.96,-0.45 0,0 Q4.96,0.45 10.93,3.29"/></g></g><g class="composite-shape"><path class="real" d=" M399.3,42.8 C399.3,40.41 401.24,38.47 403.63,38.47 L409.21,38.47 C411.6,38.47 413.54,40.41 413.54,42.8 L413.54,55.15 C413.54,57.54 411.6,59.48 409.21,59.48 L403.63,59.48 C401.24,59.48 399.3,57.54 399.3,55.15 Z" style="stroke-width: 1; stroke: rgb(0, 0, 0); fill: rgb(248, 231, 28); fill-opacity: 0.7;"/></g><g class="composite-shape"><path class="real" d=" M425.92,42.8 C425.92,40.41 427.86,38.47 430.25,38.47 L435.82,38.47 C438.22,38.47 440.16,40.41 440.16,42.8 L440.16,55.15 C440.16,57.54 438.22,59.48 435.82,59.48 L430.25,59.48 C427.86,59.48 425.92,57.54 425.92,55.15 Z" style="stroke-width: 1; stroke: rgb(0, 0, 0); fill: rgb(208, 2, 27); fill-opacity: 0.45;"/></g><g class="composite-shape"><path class="real" d=" M474.2,42.24 C474.2,39.85 476.14,37.91 478.53,37.91 L484.11,37.91 C486.5,37.91 488.44,39.85 488.44,42.24 L488.44,54.58 C488.44,56.98 486.5,58.92 484.11,58.92 L478.53,58.92 C476.14,58.92 474.2,56.98 474.2,54.58 Z" style="stroke-width: 1; stroke: rgb(0, 0, 0); fill: rgb(139, 87, 42); fill-opacity: 0.35;"/></g><g class="arrow-line"><path class="connection real" stroke-dasharray="" d="  M439.54,63.58 L438.95,104.87" style="stroke: rgb(0, 0, 0); stroke-width: 1; fill: none; fill-opacity: 1;"/><g stroke="#000" transform="matrix(0.014311211306291627,-0.999897589371505,0.999897589371505,0.014311211306291627,438.918215570191,106.86695746328638)" style="stroke: rgb(0, 0, 0); stroke-width: 1;"><path d=" M10.93,-3.29 Q4.96,-0.45 0,0 Q4.96,0.45 10.93,3.29"/></g></g><g class="composite-shape"><path class="real" d=" M359.5,116.15 C359.5,111.88 362.96,108.42 367.23,108.42 L549.77,108.42 C554.04,108.42 557.5,111.88 557.5,116.15 L557.5,139.34 C557.5,143.6 554.04,147.07 549.77,147.07 L367.23,147.07 C362.96,147.07 359.5,143.6 359.5,139.34 Z" style="stroke-width: 1; stroke: rgb(0, 0, 0); fill: rgb(245, 166, 35); fill-opacity: 0.8;"/></g><g class="composite-shape"><path class="real" d=" M351.77,123.88 C351.77,119.61 355.23,116.15 359.5,116.15 L542.04,116.15 C546.31,116.15 549.77,119.61 549.77,123.88 L549.77,147.07 C549.77,151.33 546.31,154.79 542.04,154.79 L359.5,154.79 C355.23,154.79 351.77,151.33 351.77,147.07 Z" style="stroke-width: 1; stroke: rgb(0, 0, 0); fill: rgb(245, 166, 35); fill-opacity: 0.8;"/></g><g class="composite-shape"><path class="real" d=" M344.04,131.61 C344.04,127.34 347.5,123.88 351.77,123.88 L534.31,123.88 C538.58,123.88 542.04,127.34 542.04,131.61 L542.04,154.79 C542.04,159.06 538.58,162.52 534.31,162.52 L351.77,162.52 C347.5,162.52 344.04,159.06 344.04,154.79 Z" style="stroke-width: 1; stroke: rgb(0, 0, 0); fill: rgb(245, 166, 35); fill-opacity: 0.8;"/></g><g class="composite-shape"><path class="real" d=" M336.31,139.34 C336.31,135.07 339.77,131.61 344.04,131.61 L526.58,131.61 C530.85,131.61 534.31,135.07 534.31,139.34 L534.31,162.52 C534.31,166.79 530.85,170.25 526.58,170.25 L344.04,170.25 C339.77,170.25 336.31,166.79 336.31,162.52 Z" style="stroke-width: 1; stroke: rgb(0, 0, 0); fill: rgb(245, 166, 35); fill-opacity: 0.8;"/></g><g class="arrow-line"><path class="connection real" stroke-dasharray="" d="  M436.54,169.58 L435.95,210.87" style="stroke: rgb(0, 0, 0); stroke-width: 1; fill: none; fill-opacity: 1;"/><g stroke="#000" transform="matrix(0.014311211306291627,-0.999897589371505,0.999897589371505,0.014311211306291627,435.918215570191,212.86695746328644)" style="stroke: rgb(0, 0, 0); stroke-width: 1;"><path d=" M10.93,-3.29 Q4.96,-0.45 0,0 Q4.96,0.45 10.93,3.29"/></g></g><g class="composite-shape"><path class="real" d=" M319.5,224.88 C319.5,218.79 324.44,213.85 330.53,213.85 L540.47,213.85 C546.56,213.85 551.5,218.79 551.5,224.88 L551.5,257.97 C551.5,264.06 546.56,269 540.47,269 L330.53,269 C324.44,269 319.5,264.06 319.5,257.97 Z" style="stroke-width: 1; stroke: rgb(0, 0, 0); fill: rgb(80, 227, 194); fill-opacity: 0.4;"/></g><g class="arrow-line"><path class="connection real" stroke-dasharray="" d="  M433.54,269.58 L432.95,310.87" style="stroke: rgb(0, 0, 0); stroke-width: 1; fill: none; fill-opacity: 1;"/><g stroke="#000" transform="matrix(0.014311211306291627,-0.999897589371505,0.999897589371505,0.014311211306291627,432.918215570191,312.8669574632864)" style="stroke: rgb(0, 0, 0); stroke-width: 1;"><path d=" M10.93,-3.29 Q4.96,-0.45 0,0 Q4.96,0.45 10.93,3.29"/></g></g><g class="composite-shape"><path class="real" d=" M380.5,324.88 C380.5,318.79 385.44,313.85 391.53,313.85 L473.47,313.85 C479.56,313.85 484.5,318.79 484.5,324.88 L484.5,357.97 C484.5,364.06 479.56,369 473.47,369 L391.53,369 C385.44,369 380.5,364.06 380.5,357.97 Z" style="stroke-width: 1; stroke: rgb(0, 0, 0); fill: rgb(226, 222, 74); fill-opacity: 0.72;"/></g><g class="arrow-line"><path class="connection real" stroke-dasharray="" d="  M432.54,369.58 L431.95,410.87" style="stroke: rgb(0, 0, 0); stroke-width: 1; fill: none; fill-opacity: 1;"/><g stroke="#000" transform="matrix(0.014311211306291627,-0.999897589371505,0.999897589371505,0.014311211306291627,431.918215570191,412.86695746328644)" style="stroke: rgb(0, 0, 0); stroke-width: 1;"><path d=" M10.93,-3.29 Q4.96,-0.45 0,0 Q4.96,0.45 10.93,3.29"/></g></g><g/></g><g/><g/><g/></svg>
        <svg xmlns="http://www.w3.org/2000/svg" xmlns:xlink="http://www.w3.org/1999/xlink" width="625" height="551.328125" style="width:625px;height:551.328125px;font-family:Asana-Math, Asana;background:transparent;"><g><g><g><g transform="matrix(1,0,0,1,10.984375,27.115625)"><path transform="matrix(0.0216,0,0,-0.0216,0,0)" d="M37 0C72 1 121 3 154 3C187 3 236 1 271 0L271 31C168 31 168 78 168 105L168 644L169 644L410 22C415 9 420 0 430 0C441 0 444 8 448 19L694 652L695 652L695 78C695 42 693 31 616 31L592 31L592 0C629 3 697 3 736 3C775 3 842 3 879 0L879 31L855 31C778 31 776 42 776 78L776 605C776 641 778 652 855 652L879 652L879 683L710 683C684 683 684 682 677 664L458 101L241 661C232 683 229 683 206 683L37 683L37 652L61 652C138 652 140 641 140 605L140 105C140 78 140 31 37 31ZM958 95C958 14 1055 -11 1118 -11C1184 -11 1230 29 1249 76C1253 36 1280 -6 1327 -6C1348 -6 1409 8 1409 89L1409 145L1384 145L1384 89C1384 31 1359 25 1348 25C1315 25 1311 70 1311 75L1311 275C1311 317 1311 356 1275 393C1236 432 1186 448 1138 448C1056 448 987 401 987 335C987 305 1007 288 1033 288C1061 288 1079 308 1079 334C1079 346 1074 379 1028 380C1055 415 1104 426 1136 426C1185 426 1242 387 1242 298L1242 261C1191 258 1121 255 1058 225C983 191 958 139 958 95ZM1035 96C1035 151 1077 234 1242 240L1242 140C1242 45 1170 11 1125 11C1076 11 1035 46 1035 96ZM1449 13C1449 -4 1449 -11 1460 -11C1465 -11 1466 -10 1485 9C1487 11 1487 13 1505 32C1549 -10 1594 -11 1615 -11C1730 -11 1776 56 1776 128C1776 181 1746 211 1734 223C1701 255 1662 263 1620 271C1564 282 1497 295 1497 353C1497 388 1523 429 1609 429C1719 429 1724 339 1726 308C1727 299 1736 299 1738 299C1751 299 1751 304 1751 323L1751 424C1751 441 1751 448 1740 448C1735 448 1733 448 1720 436C1717 432 1707 423 1703 420C1665 448 1624 448 1609 448C1487 448 1449 381 1449 325C1449 290 1465 262 1492 240C1524 214 1552 208 1624 194C1646 190 1728 174 1728 102C1728 51 1693 11 1615 11C1531 11 1495 68 1476 153C1473 166 1472 170 1462 170C1449 170 1449 163 1449 145ZM1838 0C1871 1 1918 3 1947 3C1977 3 2017 2 2057 0L2057 31C1990 31 1979 31 1979 76L1979 179L2043 234C2120 128 2162 72 2162 54C2162 35 2145 31 2126 31L2126 0C2154 1 2213 3 2234 3C2263 3 2292 2 2321 0L2321 31C2284 31 2262 31 2224 84L2097 263C2096 265 2091 271 2091 274C2091 278 2162 338 2172 346C2235 397 2277 399 2298 400L2298 431C2269 428 2256 428 2228 428C2192 428 2130 430 2116 431L2116 400C2135 399 2145 388 2145 375C2145 355 2131 343 2123 336L1982 214L1982 694L1838 683L1838 652C1908 652 1916 645 1916 596L1916 76C1916 31 1905 31 1838 31Z" stroke="rgb(0,0,0)" stroke-opacity="1" stroke-width="8" fill="rgb(0,0,0)" fill-opacity="1"></path></g></g></g></g><g><g><g><g transform="matrix(1,0,0,1,129.5390625,26.06875)"><path transform="matrix(0.0216,0,0,-0.0216,0,0)" d="M28 0C63 3 142 3 180 3C219 3 298 3 333 0L333 31L307 31C228 31 225 42 225 78L225 605C225 641 228 652 307 652L333 652L333 683C298 680 219 680 181 680C142 680 63 680 28 683L28 652L54 652C133 652 136 641 136 605L136 78C136 42 133 31 54 31L28 31ZM393 0C428 1 479 3 506 3C532 3 584 1 618 0L618 31C551 31 540 31 540 76L540 260C540 364 611 420 675 420C738 420 749 366 749 309L749 76C749 31 738 31 671 31L671 0C706 1 757 3 784 3C810 3 862 1 896 0L896 31C844 31 819 31 818 61L818 252C818 338 818 369 787 405C773 422 740 442 682 442C609 442 562 399 534 337L534 442L393 431L393 400C463 400 471 393 471 344L471 76C471 31 460 31 393 31ZM944 -163L944 -194C978 -193 1030 -191 1056 -191C1083 -191 1134 -193 1169 -194L1169 -163C1102 -163 1091 -163 1091 -118L1091 50L1091 59C1096 43 1138 -11 1214 -11C1333 -11 1437 87 1437 216C1437 343 1340 442 1228 442C1150 442 1108 398 1088 376L1088 442L944 431L944 400C1015 400 1022 394 1022 350L1022 -118C1022 -163 1011 -163 944 -163ZM1091 114L1091 337C1120 388 1169 417 1220 417C1293 417 1354 329 1354 216C1354 95 1284 11 1210 11C1170 11 1132 31 1105 72C1091 93 1091 94 1091 114ZM1503 400C1581 400 1581 397 1581 308L1581 158C1581 80 1581 -11 1733 -11C1789 -11 1833 17 1862 79L1862 -11L2006 0L2006 31C1936 31 1928 38 1928 87L1928 442L1781 431L1781 400C1851 400 1859 393 1859 344L1859 166C1859 79 1811 11 1738 11C1654 11 1650 58 1650 110L1650 442L1503 431ZM2045 400L2130 400L2130 124C2130 1 2223 -11 2259 -11C2330 -11 2358 60 2358 124L2358 181L2333 181L2333 126C2333 52 2303 14 2266 14C2199 14 2199 105 2199 122L2199 400L2342 400L2342 431L2199 431L2199 615L2174 615C2173 533 2143 426 2045 422ZM2780 13C2780 -4 2780 -11 2791 -11C2796 -11 2797 -10 2816 9C2818 11 2818 13 2836 32C2880 -10 2925 -11 2946 -11C3061 -11 3107 56 3107 128C3107 181 3077 211 3065 223C3032 255 2993 263 2951 271C2895 282 2828 295 2828 353C2828 388 2854 429 2940 429C3050 429 3055 339 3057 308C3058 299 3067 299 3069 299C3082 299 3082 304 3082 323L3082 424C3082 441 3082 448 3071 448C3066 448 3064 448 3051 436C3048 432 3038 423 3034 420C2996 448 2955 448 2940 448C2818 448 2780 381 2780 325C2780 290 2796 262 2823 240C2855 214 2883 208 2955 194C2977 190 3059 174 3059 102C3059 51 3024 11 2946 11C2862 11 2826 68 2807 153C2804 166 2803 170 2793 170C2780 170 2780 163 2780 145ZM3169 220C3169 86 3274 -11 3389 -11C3511 -11 3556 100 3556 119C3556 129 3548 131 3543 131C3534 131 3532 125 3530 117C3495 14 3405 14 3395 14C3345 14 3305 44 3282 81C3252 129 3252 195 3252 231L3531 231C3553 231 3556 231 3556 252C3556 351 3502 448 3377 448C3261 448 3169 345 3169 220ZM3253 252C3259 401 3343 426 3377 426C3480 426 3490 291 3490 252ZM3604 400L3689 400L3689 124C3689 1 3782 -11 3818 -11C3889 -11 3917 60 3917 124L3917 181L3892 181L3892 126C3892 52 3862 14 3825 14C3758 14 3758 105 3758 122L3758 400L3901 400L3901 431L3758 431L3758 615L3733 615C3732 533 3702 426 3604 422Z" stroke="rgb(0,0,0)" stroke-opacity="1" stroke-width="8" fill="rgb(0,0,0)" fill-opacity="1"></path></g></g></g></g><g><g><g><g transform="matrix(1,0,0,1,117,185.81875)"><path transform="matrix(0.0216,0,0,-0.0216,0,0)" d="M56 339C56 137 207 -22 389 -22C420 -22 455 -16 484 -7C499 -102 513 -194 606 -194C708 -194 727 -61 727 -10C727 0 727 11 716 11C707 11 706 3 705 -7C699 -61 657 -91 614 -91C567 -91 542 -57 518 7C636 60 721 188 721 339C721 543 570 705 388 705C209 705 56 545 56 339ZM156 339C156 599 296 680 388 680C485 680 621 594 621 339C621 261 609 120 503 42C481 98 449 148 390 148C339 148 308 105 308 64C308 37 321 18 322 16C268 36 156 109 156 339ZM330 64C330 93 351 126 390 126C444 126 466 84 477 26C443 7 411 3 389 3C338 3 330 49 330 64Z" stroke="rgb(0,0,0)" stroke-opacity="1" stroke-width="8" fill="rgb(0,0,0)" fill-opacity="1"></path></g></g></g></g><g><g><g><g transform="matrix(1,0,0,1,159.640625,185.81875)"><path transform="matrix(0.0216,0,0,-0.0216,0,0)" d="M33 0C68 3 142 3 180 3C218 3 293 3 328 0L328 31L304 31C227 31 225 42 225 78L225 253L341 363L522 95C528 86 537 73 537 61C537 31 498 31 478 31L478 0C513 3 583 3 621 3C656 3 694 2 736 0L736 31C682 31 661 35 631 79L400 419L580 592C588 600 641 651 722 652L722 683C696 680 664 680 637 680C601 680 544 680 510 683L510 652C550 651 556 628 556 619C556 603 546 593 538 586L225 287L225 605C225 641 227 652 304 652L328 652L328 683C293 680 219 680 181 680C143 680 68 680 33 683L33 652L57 652C134 652 136 641 136 605L136 78C136 42 134 31 57 31L33 31Z" stroke="rgb(0,0,0)" stroke-opacity="1" stroke-width="8" fill="rgb(0,0,0)" fill-opacity="1"></path></g></g></g></g><g><g><g><g transform="matrix(1,0,0,1,200.1328125,185.81875)"><path transform="matrix(0.0216,0,0,-0.0216,0,0)" d="M19 652C84 652 103 652 117 614L349 0C356 -19 361 -22 374 -22C391 -22 393 -17 398 -3L621 585C635 622 662 651 730 652L730 683C699 681 659 680 633 680C603 680 545 682 519 683L519 652C571 651 592 625 592 602C592 594 589 588 587 582L404 100L213 605C207 619 207 621 207 623C207 652 264 652 289 652L289 683C253 680 184 680 146 680C98 680 55 682 19 683Z" stroke="rgb(0,0,0)" stroke-opacity="1" stroke-width="8" fill="rgb(0,0,0)" fill-opacity="1"></path></g></g></g></g><g><g><g><g transform="matrix(1,0,0,1,107.2578125,57.85)"><path transform="matrix(0.03735,0,0,-0.03735,0,0)" d="M73 250C73 237 91 239 105 237C127 234 214 212 214 117L214 -102C214 -112 214 -121 215 -131C225 -215 325 -250 408 -250C417 -250 425 -247 425 -239C425 -227 409 -227 401 -226C338 -219 295 -180 286 -137C284 -125 284 -113 284 -101L284 121C284 147 277 222 165 250C287 281 284 363 284 385L284 610C284 633 289 694 369 720C398 729 425 723 425 739C425 744 421 750 407 750C358 750 279 734 239 686C219 662 214 641 214 604L214 386C214 376 214 367 212 357C203 305 155 274 111 265C86 260 73 264 73 250Z" stroke="rgb(0,0,0)" stroke-opacity="1" stroke-width="8" fill="rgb(0,0,0)" fill-opacity="1"></path></g></g></g></g><g><g><g><g transform="matrix(1,0,0,1,216.8203125,56.725)"><path transform="matrix(0.03735,0,0,-0.03735,0,0)" d="M73 -239C73 -244 75 -250 91 -250C127 -250 190 -242 236 -208C285 -172 284 -130 284 -104L284 114C284 124 284 133 286 143C295 195 342 226 386 235C410 240 425 236 425 250C425 262 407 261 393 263C370 267 284 287 284 383L284 602C284 612 284 621 283 631C273 715 173 750 90 750C81 750 73 746 73 738C73 726 89 727 97 726C160 719 203 680 212 637C214 625 214 613 214 601L214 378C214 352 221 278 333 250C210 219 214 138 214 115L214 -110C214 -133 209 -194 129 -220C97 -230 73 -224 73 -239Z" stroke="rgb(0,0,0)" stroke-opacity="1" stroke-width="8" fill="rgb(0,0,0)" fill-opacity="1"></path></g></g></g></g><g><g><g><g transform="matrix(1,0,0,1,171.8359375,53.896875)"><path transform="matrix(0.03735,0,0,-0.03735,0,0)" d="M85 53C85 26 107 0 138 0C164 0 190 22 190 53C190 84 166 105 138 105C107 105 85 80 85 53ZM363 53C363 26 385 0 416 0C442 0 468 22 468 53C468 84 444 105 416 105C385 105 363 80 363 53ZM641 53C641 26 663 0 694 0C720 0 746 22 746 53C746 84 722 105 694 105C663 105 641 80 641 53Z" stroke="rgb(0,0,0)" stroke-opacity="1" stroke-width="8" fill="rgb(0,0,0)" fill-opacity="1"></path></g></g></g></g><g><g><g><g transform="matrix(1,0,0,1,143.65625,58.4125)"><path transform="matrix(0.03735,0,0,-0.03735,0,0)" d="M86 53C86 27 103 0 139 0C155 0 167 6 177 14L179 16C180 16 181 15 181 1C181 -63 153 -124 109 -171C103 -177 102 -178 102 -182C102 -189 107 -193 112 -193C124 -193 203 -114 203 1C203 65 179 106 139 106C104 106 86 79 86 53Z" stroke="rgb(0,0,0)" stroke-opacity="1" stroke-width="8" fill="rgb(0,0,0)" fill-opacity="1"></path></g></g></g></g><g><g><g><g transform="matrix(1,0,0,1,79.21875,127.84625)"><path transform="matrix(0.019440000000000002,0,0,-0.019440000000000002,0,0)" d="M36 452L61 452C75 613 90 646 241 646C259 646 285 646 295 644C316 640 316 629 316 606L316 79C316 45 316 31 211 31L171 31L171 0C212 3 314 3 360 3C406 3 509 3 550 0L550 31L510 31C405 31 405 45 405 79L405 606C405 626 405 640 423 644C434 646 461 646 480 646C631 646 646 613 660 452L685 452L666 677L55 677ZM667 214C667 85 771 -11 888 -11C1009 -11 1110 87 1110 214C1110 342 1010 448 889 448C764 448 667 339 667 214ZM750 222C750 261 750 315 774 359C801 405 848 426 888 426C932 426 975 404 1001 361C1027 318 1027 260 1027 222C1027 186 1027 132 1005 88C983 43 939 14 889 14C846 14 802 35 775 81C750 125 750 186 750 222ZM1528 339C1528 137 1679 -22 1861 -22C1892 -22 1927 -16 1956 -7C1971 -102 1985 -194 2078 -194C2180 -194 2199 -61 2199 -10C2199 0 2199 11 2188 11C2179 11 2178 3 2177 -7C2171 -61 2129 -91 2086 -91C2039 -91 2014 -57 1990 7C2108 60 2193 188 2193 339C2193 543 2042 705 1860 705C1681 705 1528 545 1528 339ZM1628 339C1628 599 1768 680 1860 680C1957 680 2093 594 2093 339C2093 261 2081 120 1975 42C1953 98 1921 148 1862 148C1811 148 1780 105 1780 64C1780 37 1793 18 1794 16C1740 36 1628 109 1628 339ZM1802 64C1802 93 1823 126 1862 126C1916 126 1938 84 1949 26C1915 7 1883 3 1861 3C1810 3 1802 49 1802 64ZM2281 400C2359 400 2359 397 2359 308L2359 158C2359 80 2359 -11 2511 -11C2567 -11 2611 17 2640 79L2640 -11L2784 0L2784 31C2714 31 2706 38 2706 87L2706 442L2559 431L2559 400C2629 400 2637 393 2637 344L2637 166C2637 79 2589 11 2516 11C2432 11 2428 58 2428 110L2428 442L2281 431ZM2832 220C2832 86 2937 -11 3052 -11C3174 -11 3219 100 3219 119C3219 129 3211 131 3206 131C3197 131 3195 125 3193 117C3158 14 3068 14 3058 14C3008 14 2968 44 2945 81C2915 129 2915 195 2915 231L3194 231C3216 231 3219 231 3219 252C3219 351 3165 448 3040 448C2924 448 2832 345 2832 220ZM2916 252C2922 401 3006 426 3040 426C3143 426 3153 291 3153 252ZM3276 0C3315 1 3362 3 3390 3C3430 3 3477 3 3517 0L3517 31L3496 31C3422 31 3420 42 3420 78L3420 232C3420 331 3462 420 3538 420C3545 420 3547 420 3549 419C3546 418 3526 406 3526 380C3526 352 3547 337 3569 337C3587 337 3612 349 3612 381C3612 413 3581 442 3538 442C3465 442 3429 375 3415 332L3415 442L3276 431L3276 400C3346 400 3354 393 3354 344L3354 76C3354 31 3343 31 3276 31ZM3658 -124C3658 -169 3700 -205 3750 -205C3813 -205 3854 -148 3878 -91L4054 336C4080 399 4131 400 4147 400L4147 431C4124 429 4095 428 4072 428C4054 428 4007 430 3985 431L3985 400C4016 399 4032 382 4032 357C4032 347 4031 345 4026 333L3925 87L3814 356C3810 366 3808 370 3808 374C3808 400 3845 400 3864 400L3864 431C3838 430 3772 428 3755 428C3728 428 3688 429 3658 431L3658 400C3706 400 3725 400 3739 365L3889 0C3884 -13 3870 -46 3864 -59C3842 -114 3814 -183 3750 -183C3745 -183 3722 -183 3703 -165C3734 -161 3742 -139 3742 -123C3742 -97 3723 -81 3700 -81C3680 -81 3658 -94 3658 -124ZM4169 53C4169 27 4186 0 4222 0C4238 0 4250 6 4260 14L4262 16C4263 16 4264 15 4264 1C4264 -63 4236 -124 4192 -171C4186 -177 4185 -178 4185 -182C4185 -189 4190 -193 4195 -193C4207 -193 4286 -114 4286 1C4286 65 4262 106 4222 106C4187 106 4169 79 4169 53ZM4726 0C4761 3 4835 3 4873 3C4911 3 4986 3 5021 0L5021 31L4997 31C4920 31 4918 42 4918 78L4918 253L5034 363L5215 95C5221 86 5230 73 5230 61C5230 31 5191 31 5171 31L5171 0C5206 3 5276 3 5314 3C5349 3 5387 2 5429 0L5429 31C5375 31 5354 35 5324 79L5093 419L5273 592C5281 600 5334 651 5415 652L5415 683C5389 680 5357 680 5330 680C5294 680 5237 680 5203 683L5203 652C5243 651 5249 628 5249 619C5249 603 5239 593 5231 586L4918 287L4918 605C4918 641 4920 652 4997 652L5021 652L5021 683C4986 680 4912 680 4874 680C4836 680 4761 680 4726 683L4726 652L4750 652C4827 652 4829 641 4829 605L4829 78C4829 42 4827 31 4750 31L4726 31ZM5498 220C5498 86 5603 -11 5718 -11C5840 -11 5885 100 5885 119C5885 129 5877 131 5872 131C5863 131 5861 125 5859 117C5824 14 5734 14 5724 14C5674 14 5634 44 5611 81C5581 129 5581 195 5581 231L5860 231C5882 231 5885 231 5885 252C5885 351 5831 448 5706 448C5590 448 5498 345 5498 220ZM5582 252C5588 401 5672 426 5706 426C5809 426 5819 291 5819 252ZM5933 -124C5933 -169 5975 -205 6025 -205C6088 -205 6129 -148 6153 -91L6329 336C6355 399 6406 400 6422 400L6422 431C6399 429 6370 428 6347 428C6329 428 6282 430 6260 431L6260 400C6291 399 6307 382 6307 357C6307 347 6306 345 6301 333L6200 87L6089 356C6085 366 6083 370 6083 374C6083 400 6120 400 6139 400L6139 431C6113 430 6047 428 6030 428C6003 428 5963 429 5933 431L5933 400C5981 400 6000 400 6014 365L6164 0C6159 -13 6145 -46 6139 -59C6117 -114 6089 -183 6025 -183C6020 -183 5997 -183 5978 -165C6009 -161 6017 -139 6017 -123C6017 -97 5998 -81 5975 -81C5955 -81 5933 -94 5933 -124ZM6444 53C6444 27 6461 0 6497 0C6513 0 6525 6 6535 14L6537 16C6538 16 6539 15 6539 1C6539 -63 6511 -124 6467 -171C6461 -177 6460 -178 6460 -182C6460 -189 6465 -193 6470 -193C6482 -193 6561 -114 6561 1C6561 65 6537 106 6497 106C6462 106 6444 79 6444 53ZM6987 652C7052 652 7071 652 7085 614L7317 0C7324 -19 7329 -22 7342 -22C7359 -22 7361 -17 7366 -3L7589 585C7603 622 7630 651 7698 652L7698 683C7667 681 7627 680 7601 680C7571 680 7513 682 7487 683L7487 652C7539 651 7560 625 7560 602C7560 594 7557 588 7555 582L7372 100L7181 605C7175 619 7175 621 7175 623C7175 652 7232 652 7257 652L7257 683C7221 680 7152 680 7114 680C7066 680 7023 682 6987 683ZM7677 95C7677 14 7774 -11 7837 -11C7903 -11 7949 29 7968 76C7972 36 7999 -6 8046 -6C8067 -6 8128 8 8128 89L8128 145L8103 145L8103 89C8103 31 8078 25 8067 25C8034 25 8030 70 8030 75L8030 275C8030 317 8030 356 7994 393C7955 432 7905 448 7857 448C7775 448 7706 401 7706 335C7706 305 7726 288 7752 288C7780 288 7798 308 7798 334C7798 346 7793 379 7747 380C7774 415 7823 426 7855 426C7904 426 7961 387 7961 298L7961 261C7910 258 7840 255 7777 225C7702 191 7677 139 7677 95ZM7754 96C7754 151 7796 234 7961 240L7961 140C7961 45 7889 11 7844 11C7795 11 7754 46 7754 96ZM8168 0C8201 1 8254 3 8279 3C8304 3 8353 1 8390 0L8390 31C8323 31 8312 31 8312 76L8312 694L8168 683L8168 652C8238 652 8246 645 8246 596L8246 76C8246 31 8235 31 8168 31ZM8444 400C8522 400 8522 397 8522 308L8522 158C8522 80 8522 -11 8674 -11C8730 -11 8774 17 8803 79L8803 -11L8947 0L8947 31C8877 31 8869 38 8869 87L8869 442L8722 431L8722 400C8792 400 8800 393 8800 344L8800 166C8800 79 8752 11 8679 11C8595 11 8591 58 8591 110L8591 442L8444 431ZM8995 220C8995 86 9100 -11 9215 -11C9337 -11 9382 100 9382 119C9382 129 9374 131 9369 131C9360 131 9358 125 9356 117C9321 14 9231 14 9221 14C9171 14 9131 44 9108 81C9078 129 9078 195 9078 231L9357 231C9379 231 9382 231 9382 252C9382 351 9328 448 9203 448C9087 448 8995 345 8995 220ZM9079 252C9085 401 9169 426 9203 426C9306 426 9316 291 9316 252Z" stroke="rgb(0,0,0)" stroke-opacity="1" stroke-width="8" fill="rgb(0,0,0)" fill-opacity="1"></path></g></g></g></g><g><g><g><g transform="matrix(1,0,0,1,112.2109375,235.049375)"><path transform="matrix(0.019440000000000002,0,0,-0.019440000000000002,0,0)" d="M37 0C72 1 121 3 154 3C187 3 236 1 271 0L271 31C168 31 168 78 168 105L168 644L169 644L410 22C415 9 420 0 430 0C441 0 444 8 448 19L694 652L695 652L695 78C695 42 693 31 616 31L592 31L592 0C629 3 697 3 736 3C775 3 842 3 879 0L879 31L855 31C778 31 776 42 776 78L776 605C776 641 778 652 855 652L879 652L879 683L710 683C684 683 684 682 677 664L458 101L241 661C232 683 229 683 206 683L37 683L37 652L61 652C138 652 140 641 140 605L140 105C140 78 140 31 37 31ZM958 95C958 14 1055 -11 1118 -11C1184 -11 1230 29 1249 76C1253 36 1280 -6 1327 -6C1348 -6 1409 8 1409 89L1409 145L1384 145L1384 89C1384 31 1359 25 1348 25C1315 25 1311 70 1311 75L1311 275C1311 317 1311 356 1275 393C1236 432 1186 448 1138 448C1056 448 987 401 987 335C987 305 1007 288 1033 288C1061 288 1079 308 1079 334C1079 346 1074 379 1028 380C1055 415 1104 426 1136 426C1185 426 1242 387 1242 298L1242 261C1191 258 1121 255 1058 225C983 191 958 139 958 95ZM1035 96C1035 151 1077 234 1242 240L1242 140C1242 45 1170 11 1125 11C1076 11 1035 46 1035 96ZM1435 400L1520 400L1520 124C1520 1 1613 -11 1649 -11C1720 -11 1748 60 1748 124L1748 181L1723 181L1723 126C1723 52 1693 14 1656 14C1589 14 1589 105 1589 122L1589 400L1732 400L1732 431L1589 431L1589 615L1564 615C1563 533 1533 426 1435 422ZM1836 0C1871 1 1922 3 1949 3C1975 3 2027 1 2061 0L2061 31C1994 31 1983 31 1983 76L1983 260C1983 364 2054 420 2118 420C2181 420 2192 366 2192 309L2192 76C2192 31 2181 31 2114 31L2114 0C2149 1 2200 3 2227 3C2253 3 2305 1 2339 0L2339 31C2272 31 2261 31 2261 76L2261 260C2261 364 2332 420 2396 420C2459 420 2470 366 2470 309L2470 76C2470 31 2459 31 2392 31L2392 0C2427 1 2478 3 2505 3C2531 3 2583 1 2617 0L2617 31C2565 31 2540 31 2539 61L2539 252C2539 338 2539 369 2508 405C2494 422 2461 442 2403 442C2319 442 2275 382 2258 344C2244 431 2170 442 2125 442C2052 442 2005 399 1977 337L1977 442L1836 431L1836 400C1906 400 1914 393 1914 344L1914 76C1914 31 1903 31 1836 31ZM2641 400C2719 400 2719 397 2719 308L2719 158C2719 80 2719 -11 2871 -11C2927 -11 2971 17 3000 79L3000 -11L3144 0L3144 31C3074 31 3066 38 3066 87L3066 442L2919 431L2919 400C2989 400 2997 393 2997 344L2997 166C2997 79 2949 11 2876 11C2792 11 2788 58 2788 110L2788 442L2641 431ZM3197 0C3230 1 3283 3 3308 3C3333 3 3382 1 3419 0L3419 31C3352 31 3341 31 3341 76L3341 694L3197 683L3197 652C3267 652 3275 645 3275 596L3275 76C3275 31 3264 31 3197 31Z" stroke="rgb(0,0,0)" stroke-opacity="1" stroke-width="8" fill="rgb(0,0,0)" fill-opacity="1"></path></g></g></g></g><g><g><g><g transform="matrix(1,0,0,1,120.125,283.34625)"><path transform="matrix(0.019440000000000002,0,0,-0.019440000000000002,0,0)" d="M56 2C56 -15 56 -22 67 -22C74 -22 75 -20 82 -9C82 -8 85 -5 118 48C149 14 213 -22 302 -22C419 -22 499 76 499 186C499 286 433 368 349 388L221 419C159 434 120 488 120 546C120 616 174 677 252 677C419 677 441 513 447 468C448 462 448 456 459 456C472 456 472 461 472 480L472 681C472 698 472 705 461 705C454 705 453 704 446 692L411 635C381 664 340 705 251 705C140 705 56 617 56 511C56 428 109 355 187 328C198 324 249 312 319 295C346 288 376 281 404 244C425 218 435 185 435 152C435 81 385 9 301 9C272 9 196 14 143 63C85 117 82 181 81 217C80 227 72 227 69 227C56 227 56 220 56 202ZM589 216C589 88 688 -11 804 -11C938 -11 970 109 970 119C970 129 960 129 957 129C948 129 946 125 944 119C915 26 850 14 813 14C760 14 672 57 672 218C672 381 754 423 807 423C816 423 879 422 914 386C873 383 867 353 867 340C867 314 885 294 913 294C939 294 959 311 959 341C959 409 883 448 806 448C681 448 589 340 589 216ZM1041 95C1041 14 1138 -11 1201 -11C1267 -11 1313 29 1332 76C1336 36 1363 -6 1410 -6C1431 -6 1492 8 1492 89L1492 145L1467 145L1467 89C1467 31 1442 25 1431 25C1398 25 1394 70 1394 75L1394 275C1394 317 1394 356 1358 393C1319 432 1269 448 1221 448C1139 448 1070 401 1070 335C1070 305 1090 288 1116 288C1144 288 1162 308 1162 334C1162 346 1157 379 1111 380C1138 415 1187 426 1219 426C1268 426 1325 387 1325 298L1325 261C1274 258 1204 255 1141 225C1066 191 1041 139 1041 95ZM1118 96C1118 151 1160 234 1325 240L1325 140C1325 45 1253 11 1208 11C1159 11 1118 46 1118 96ZM1532 0C1565 1 1618 3 1643 3C1668 3 1717 1 1754 0L1754 31C1687 31 1676 31 1676 76L1676 694L1532 683L1532 652C1602 652 1610 645 1610 596L1610 76C1610 31 1599 31 1532 31ZM1804 220C1804 86 1909 -11 2024 -11C2146 -11 2191 100 2191 119C2191 129 2183 131 2178 131C2169 131 2167 125 2165 117C2130 14 2040 14 2030 14C1980 14 1940 44 1917 81C1887 129 1887 195 1887 231L2166 231C2188 231 2191 231 2191 252C2191 351 2137 448 2012 448C1896 448 1804 345 1804 220ZM1888 252C1894 401 1978 426 2012 426C2115 426 2125 291 2125 252Z" stroke="rgb(0,0,0)" stroke-opacity="1" stroke-width="8" fill="rgb(0,0,0)" fill-opacity="1"></path></g></g></g></g><g><g><g><g transform="matrix(1,0,0,1,119.75,330.15875)"><path transform="matrix(0.019440000000000002,0,0,-0.019440000000000002,0,0)" d="M37 0C72 1 121 3 154 3C187 3 236 1 271 0L271 31C168 31 168 78 168 105L168 644L169 644L410 22C415 9 420 0 430 0C441 0 444 8 448 19L694 652L695 652L695 78C695 42 693 31 616 31L592 31L592 0C629 3 697 3 736 3C775 3 842 3 879 0L879 31L855 31C778 31 776 42 776 78L776 605C776 641 778 652 855 652L879 652L879 683L710 683C684 683 684 682 677 664L458 101L241 661C232 683 229 683 206 683L37 683L37 652L61 652C138 652 140 641 140 605L140 105C140 78 140 31 37 31ZM958 95C958 14 1055 -11 1118 -11C1184 -11 1230 29 1249 76C1253 36 1280 -6 1327 -6C1348 -6 1409 8 1409 89L1409 145L1384 145L1384 89C1384 31 1359 25 1348 25C1315 25 1311 70 1311 75L1311 275C1311 317 1311 356 1275 393C1236 432 1186 448 1138 448C1056 448 987 401 987 335C987 305 1007 288 1033 288C1061 288 1079 308 1079 334C1079 346 1074 379 1028 380C1055 415 1104 426 1136 426C1185 426 1242 387 1242 298L1242 261C1191 258 1121 255 1058 225C983 191 958 139 958 95ZM1035 96C1035 151 1077 234 1242 240L1242 140C1242 45 1170 11 1125 11C1076 11 1035 46 1035 96ZM1449 13C1449 -4 1449 -11 1460 -11C1465 -11 1466 -10 1485 9C1487 11 1487 13 1505 32C1549 -10 1594 -11 1615 -11C1730 -11 1776 56 1776 128C1776 181 1746 211 1734 223C1701 255 1662 263 1620 271C1564 282 1497 295 1497 353C1497 388 1523 429 1609 429C1719 429 1724 339 1726 308C1727 299 1736 299 1738 299C1751 299 1751 304 1751 323L1751 424C1751 441 1751 448 1740 448C1735 448 1733 448 1720 436C1717 432 1707 423 1703 420C1665 448 1624 448 1609 448C1487 448 1449 381 1449 325C1449 290 1465 262 1492 240C1524 214 1552 208 1624 194C1646 190 1728 174 1728 102C1728 51 1693 11 1615 11C1531 11 1495 68 1476 153C1473 166 1472 170 1462 170C1449 170 1449 163 1449 145ZM1838 0C1871 1 1918 3 1947 3C1977 3 2017 2 2057 0L2057 31C1990 31 1979 31 1979 76L1979 179L2043 234C2120 128 2162 72 2162 54C2162 35 2145 31 2126 31L2126 0C2154 1 2213 3 2234 3C2263 3 2292 2 2321 0L2321 31C2284 31 2262 31 2224 84L2097 263C2096 265 2091 271 2091 274C2091 278 2162 338 2172 346C2235 397 2277 399 2298 400L2298 431C2269 428 2256 428 2228 428C2192 428 2130 430 2116 431L2116 400C2135 399 2145 388 2145 375C2145 355 2131 343 2123 336L1982 214L1982 694L1838 683L1838 652C1908 652 1916 645 1916 596L1916 76C1916 31 1905 31 1838 31Z" stroke="rgb(0,0,0)" stroke-opacity="1" stroke-width="8" fill="rgb(0,0,0)" fill-opacity="1"></path></g></g></g></g><g><g><g><g transform="matrix(1,0,0,1,107.8125,377.8775)"><path transform="matrix(0.019440000000000002,0,0,-0.019440000000000002,0,0)" d="M56 2C56 -15 56 -22 67 -22C74 -22 75 -20 82 -9C82 -8 85 -5 118 48C149 14 213 -22 302 -22C419 -22 499 76 499 186C499 286 433 368 349 388L221 419C159 434 120 488 120 546C120 616 174 677 252 677C419 677 441 513 447 468C448 462 448 456 459 456C472 456 472 461 472 480L472 681C472 698 472 705 461 705C454 705 453 704 446 692L411 635C381 664 340 705 251 705C140 705 56 617 56 511C56 428 109 355 187 328C198 324 249 312 319 295C346 288 376 281 404 244C425 218 435 185 435 152C435 81 385 9 301 9C272 9 196 14 143 63C85 117 82 181 81 217C80 227 72 227 69 227C56 227 56 220 56 202ZM583 214C583 85 687 -11 804 -11C925 -11 1026 87 1026 214C1026 342 926 448 805 448C680 448 583 339 583 214ZM666 222C666 261 666 315 690 359C717 405 764 426 804 426C848 426 891 404 917 361C943 318 943 260 943 222C943 186 943 132 921 88C899 43 855 14 805 14C762 14 718 35 691 81C666 125 666 186 666 222ZM1088 400L1167 400L1167 76C1167 31 1156 31 1089 31L1089 0C1128 1 1175 3 1203 3C1243 3 1290 3 1330 0L1330 31L1309 31C1235 31 1233 42 1233 78L1233 400L1347 400L1347 431L1230 431L1230 547C1230 635 1278 683 1322 683C1325 683 1340 683 1355 676C1343 672 1325 659 1325 634C1325 611 1341 591 1368 591C1397 591 1412 611 1412 635C1412 672 1375 705 1322 705C1252 705 1167 652 1167 546L1167 431L1088 431ZM1379 400L1464 400L1464 124C1464 1 1557 -11 1593 -11C1664 -11 1692 60 1692 124L1692 181L1667 181L1667 126C1667 52 1637 14 1600 14C1533 14 1533 105 1533 122L1533 400L1676 400L1676 431L1533 431L1533 615L1508 615C1507 533 1477 426 1379 422ZM1785 0C1820 1 1869 3 1902 3C1935 3 1984 1 2019 0L2019 31C1916 31 1916 78 1916 105L1916 644L1917 644L2158 22C2163 9 2168 0 2178 0C2189 0 2192 8 2196 19L2442 652L2443 652L2443 78C2443 42 2441 31 2364 31L2340 31L2340 0C2377 3 2445 3 2484 3C2523 3 2590 3 2627 0L2627 31L2603 31C2526 31 2524 42 2524 78L2524 605C2524 641 2526 652 2603 652L2627 652L2627 683L2458 683C2432 683 2432 682 2425 664L2206 101L1989 661C1980 683 1977 683 1954 683L1785 683L1785 652L1809 652C1886 652 1888 641 1888 605L1888 105C1888 78 1888 31 1785 31ZM2706 95C2706 14 2803 -11 2866 -11C2932 -11 2978 29 2997 76C3001 36 3028 -6 3075 -6C3096 -6 3157 8 3157 89L3157 145L3132 145L3132 89C3132 31 3107 25 3096 25C3063 25 3059 70 3059 75L3059 275C3059 317 3059 356 3023 393C2984 432 2934 448 2886 448C2804 448 2735 401 2735 335C2735 305 2755 288 2781 288C2809 288 2827 308 2827 334C2827 346 2822 379 2776 380C2803 415 2852 426 2884 426C2933 426 2990 387 2990 298L2990 261C2939 258 2869 255 2806 225C2731 191 2706 139 2706 95ZM2783 96C2783 151 2825 234 2990 240L2990 140C2990 45 2918 11 2873 11C2824 11 2783 46 2783 96ZM3176 0C3202 2 3233 3 3259 3C3288 3 3330 1 3354 0L3354 31C3332 34 3325 47 3325 62C3325 84 3354 117 3415 189L3491 89C3499 78 3512 62 3512 56C3512 47 3503 32 3476 31L3476 0C3506 1 3562 3 3584 3C3611 3 3650 2 3680 0L3680 31C3626 31 3608 33 3585 62L3451 235C3481 273 3519 322 3543 348C3574 384 3615 399 3662 400L3662 431C3636 429 3606 428 3580 428C3550 428 3497 430 3484 431L3484 400C3505 398 3513 385 3513 369C3513 353 3503 340 3498 334L3436 256L3358 357C3349 367 3349 369 3349 375C3349 390 3364 399 3384 400L3384 431C3358 430 3292 428 3276 428C3255 428 3208 429 3181 431L3181 400C3251 400 3252 399 3299 339L3398 210L3304 91C3256 33 3197 31 3176 31Z" stroke="rgb(0,0,0)" stroke-opacity="1" stroke-width="8" fill="rgb(0,0,0)" fill-opacity="1"></path></g></g></g></g><g><g><g><g transform="matrix(1,0,0,1,139.0703125,427.315)"><path transform="matrix(0.019440000000000002,0,0,-0.019440000000000002,0,0)" d="M37 0C72 1 121 3 154 3C187 3 236 1 271 0L271 31C168 31 168 78 168 105L168 644L169 644L410 22C415 9 420 0 430 0C441 0 444 8 448 19L694 652L695 652L695 78C695 42 693 31 616 31L592 31L592 0C629 3 697 3 736 3C775 3 842 3 879 0L879 31L855 31C778 31 776 42 776 78L776 605C776 641 778 652 855 652L879 652L879 683L710 683C684 683 684 682 677 664L458 101L241 661C232 683 229 683 206 683L37 683L37 652L61 652C138 652 140 641 140 605L140 105C140 78 140 31 37 31ZM958 95C958 14 1055 -11 1118 -11C1184 -11 1230 29 1249 76C1253 36 1280 -6 1327 -6C1348 -6 1409 8 1409 89L1409 145L1384 145L1384 89C1384 31 1359 25 1348 25C1315 25 1311 70 1311 75L1311 275C1311 317 1311 356 1275 393C1236 432 1186 448 1138 448C1056 448 987 401 987 335C987 305 1007 288 1033 288C1061 288 1079 308 1079 334C1079 346 1074 379 1028 380C1055 415 1104 426 1136 426C1185 426 1242 387 1242 298L1242 261C1191 258 1121 255 1058 225C983 191 958 139 958 95ZM1035 96C1035 151 1077 234 1242 240L1242 140C1242 45 1170 11 1125 11C1076 11 1035 46 1035 96ZM1435 400L1520 400L1520 124C1520 1 1613 -11 1649 -11C1720 -11 1748 60 1748 124L1748 181L1723 181L1723 126C1723 52 1693 14 1656 14C1589 14 1589 105 1589 122L1589 400L1732 400L1732 431L1589 431L1589 615L1564 615C1563 533 1533 426 1435 422ZM1836 0C1871 1 1922 3 1949 3C1975 3 2027 1 2061 0L2061 31C1994 31 1983 31 1983 76L1983 260C1983 364 2054 420 2118 420C2181 420 2192 366 2192 309L2192 76C2192 31 2181 31 2114 31L2114 0C2149 1 2200 3 2227 3C2253 3 2305 1 2339 0L2339 31C2272 31 2261 31 2261 76L2261 260C2261 364 2332 420 2396 420C2459 420 2470 366 2470 309L2470 76C2470 31 2459 31 2392 31L2392 0C2427 1 2478 3 2505 3C2531 3 2583 1 2617 0L2617 31C2565 31 2540 31 2539 61L2539 252C2539 338 2539 369 2508 405C2494 422 2461 442 2403 442C2319 442 2275 382 2258 344C2244 431 2170 442 2125 442C2052 442 2005 399 1977 337L1977 442L1836 431L1836 400C1906 400 1914 393 1914 344L1914 76C1914 31 1903 31 1836 31ZM2641 400C2719 400 2719 397 2719 308L2719 158C2719 80 2719 -11 2871 -11C2927 -11 2971 17 3000 79L3000 -11L3144 0L3144 31C3074 31 3066 38 3066 87L3066 442L2919 431L2919 400C2989 400 2997 393 2997 344L2997 166C2997 79 2949 11 2876 11C2792 11 2788 58 2788 110L2788 442L2641 431ZM3197 0C3230 1 3283 3 3308 3C3333 3 3382 1 3419 0L3419 31C3352 31 3341 31 3341 76L3341 694L3197 683L3197 652C3267 652 3275 645 3275 596L3275 76C3275 31 3264 31 3197 31Z" stroke="rgb(0,0,0)" stroke-opacity="1" stroke-width="8" fill="rgb(0,0,0)" fill-opacity="1"></path></g></g></g></g><g><g><g><g transform="matrix(1,0,0,1,282.984375,31.115625)"><path transform="matrix(0.0216,0,0,-0.0216,0,0)" d="M37 0C72 1 121 3 154 3C187 3 236 1 271 0L271 31C168 31 168 78 168 105L168 644L169 644L410 22C415 9 420 0 430 0C441 0 444 8 448 19L694 652L695 652L695 78C695 42 693 31 616 31L592 31L592 0C629 3 697 3 736 3C775 3 842 3 879 0L879 31L855 31C778 31 776 42 776 78L776 605C776 641 778 652 855 652L879 652L879 683L710 683C684 683 684 682 677 664L458 101L241 661C232 683 229 683 206 683L37 683L37 652L61 652C138 652 140 641 140 605L140 105C140 78 140 31 37 31ZM958 95C958 14 1055 -11 1118 -11C1184 -11 1230 29 1249 76C1253 36 1280 -6 1327 -6C1348 -6 1409 8 1409 89L1409 145L1384 145L1384 89C1384 31 1359 25 1348 25C1315 25 1311 70 1311 75L1311 275C1311 317 1311 356 1275 393C1236 432 1186 448 1138 448C1056 448 987 401 987 335C987 305 1007 288 1033 288C1061 288 1079 308 1079 334C1079 346 1074 379 1028 380C1055 415 1104 426 1136 426C1185 426 1242 387 1242 298L1242 261C1191 258 1121 255 1058 225C983 191 958 139 958 95ZM1035 96C1035 151 1077 234 1242 240L1242 140C1242 45 1170 11 1125 11C1076 11 1035 46 1035 96ZM1449 13C1449 -4 1449 -11 1460 -11C1465 -11 1466 -10 1485 9C1487 11 1487 13 1505 32C1549 -10 1594 -11 1615 -11C1730 -11 1776 56 1776 128C1776 181 1746 211 1734 223C1701 255 1662 263 1620 271C1564 282 1497 295 1497 353C1497 388 1523 429 1609 429C1719 429 1724 339 1726 308C1727 299 1736 299 1738 299C1751 299 1751 304 1751 323L1751 424C1751 441 1751 448 1740 448C1735 448 1733 448 1720 436C1717 432 1707 423 1703 420C1665 448 1624 448 1609 448C1487 448 1449 381 1449 325C1449 290 1465 262 1492 240C1524 214 1552 208 1624 194C1646 190 1728 174 1728 102C1728 51 1693 11 1615 11C1531 11 1495 68 1476 153C1473 166 1472 170 1462 170C1449 170 1449 163 1449 145ZM1838 0C1871 1 1918 3 1947 3C1977 3 2017 2 2057 0L2057 31C1990 31 1979 31 1979 76L1979 179L2043 234C2120 128 2162 72 2162 54C2162 35 2145 31 2126 31L2126 0C2154 1 2213 3 2234 3C2263 3 2292 2 2321 0L2321 31C2284 31 2262 31 2224 84L2097 263C2096 265 2091 271 2091 274C2091 278 2162 338 2172 346C2235 397 2277 399 2298 400L2298 431C2269 428 2256 428 2228 428C2192 428 2130 430 2116 431L2116 400C2135 399 2145 388 2145 375C2145 355 2131 343 2123 336L1982 214L1982 694L1838 683L1838 652C1908 652 1916 645 1916 596L1916 76C1916 31 1905 31 1838 31Z" stroke="rgb(0,0,0)" stroke-opacity="1" stroke-width="8" fill="rgb(0,0,0)" fill-opacity="1"></path></g></g></g></g><g><g><g><g transform="matrix(1,0,0,1,401.5390625,30.06875)"><path transform="matrix(0.0216,0,0,-0.0216,0,0)" d="M28 0C63 3 142 3 180 3C219 3 298 3 333 0L333 31L307 31C228 31 225 42 225 78L225 605C225 641 228 652 307 652L333 652L333 683C298 680 219 680 181 680C142 680 63 680 28 683L28 652L54 652C133 652 136 641 136 605L136 78C136 42 133 31 54 31L28 31ZM393 0C428 1 479 3 506 3C532 3 584 1 618 0L618 31C551 31 540 31 540 76L540 260C540 364 611 420 675 420C738 420 749 366 749 309L749 76C749 31 738 31 671 31L671 0C706 1 757 3 784 3C810 3 862 1 896 0L896 31C844 31 819 31 818 61L818 252C818 338 818 369 787 405C773 422 740 442 682 442C609 442 562 399 534 337L534 442L393 431L393 400C463 400 471 393 471 344L471 76C471 31 460 31 393 31ZM944 -163L944 -194C978 -193 1030 -191 1056 -191C1083 -191 1134 -193 1169 -194L1169 -163C1102 -163 1091 -163 1091 -118L1091 50L1091 59C1096 43 1138 -11 1214 -11C1333 -11 1437 87 1437 216C1437 343 1340 442 1228 442C1150 442 1108 398 1088 376L1088 442L944 431L944 400C1015 400 1022 394 1022 350L1022 -118C1022 -163 1011 -163 944 -163ZM1091 114L1091 337C1120 388 1169 417 1220 417C1293 417 1354 329 1354 216C1354 95 1284 11 1210 11C1170 11 1132 31 1105 72C1091 93 1091 94 1091 114ZM1503 400C1581 400 1581 397 1581 308L1581 158C1581 80 1581 -11 1733 -11C1789 -11 1833 17 1862 79L1862 -11L2006 0L2006 31C1936 31 1928 38 1928 87L1928 442L1781 431L1781 400C1851 400 1859 393 1859 344L1859 166C1859 79 1811 11 1738 11C1654 11 1650 58 1650 110L1650 442L1503 431ZM2045 400L2130 400L2130 124C2130 1 2223 -11 2259 -11C2330 -11 2358 60 2358 124L2358 181L2333 181L2333 126C2333 52 2303 14 2266 14C2199 14 2199 105 2199 122L2199 400L2342 400L2342 431L2199 431L2199 615L2174 615C2173 533 2143 426 2045 422ZM2780 13C2780 -4 2780 -11 2791 -11C2796 -11 2797 -10 2816 9C2818 11 2818 13 2836 32C2880 -10 2925 -11 2946 -11C3061 -11 3107 56 3107 128C3107 181 3077 211 3065 223C3032 255 2993 263 2951 271C2895 282 2828 295 2828 353C2828 388 2854 429 2940 429C3050 429 3055 339 3057 308C3058 299 3067 299 3069 299C3082 299 3082 304 3082 323L3082 424C3082 441 3082 448 3071 448C3066 448 3064 448 3051 436C3048 432 3038 423 3034 420C2996 448 2955 448 2940 448C2818 448 2780 381 2780 325C2780 290 2796 262 2823 240C2855 214 2883 208 2955 194C2977 190 3059 174 3059 102C3059 51 3024 11 2946 11C2862 11 2826 68 2807 153C2804 166 2803 170 2793 170C2780 170 2780 163 2780 145ZM3169 220C3169 86 3274 -11 3389 -11C3511 -11 3556 100 3556 119C3556 129 3548 131 3543 131C3534 131 3532 125 3530 117C3495 14 3405 14 3395 14C3345 14 3305 44 3282 81C3252 129 3252 195 3252 231L3531 231C3553 231 3556 231 3556 252C3556 351 3502 448 3377 448C3261 448 3169 345 3169 220ZM3253 252C3259 401 3343 426 3377 426C3480 426 3490 291 3490 252ZM3604 400L3689 400L3689 124C3689 1 3782 -11 3818 -11C3889 -11 3917 60 3917 124L3917 181L3892 181L3892 126C3892 52 3862 14 3825 14C3758 14 3758 105 3758 122L3758 400L3901 400L3901 431L3758 431L3758 615L3733 615C3732 533 3702 426 3604 422Z" stroke="rgb(0,0,0)" stroke-opacity="1" stroke-width="8" fill="rgb(0,0,0)" fill-opacity="1"></path></g></g></g></g><g><g><g><g transform="matrix(1,0,0,1,379.2578125,61.85)"><path transform="matrix(0.03735,0,0,-0.03735,0,0)" d="M73 250C73 237 91 239 105 237C127 234 214 212 214 117L214 -102C214 -112 214 -121 215 -131C225 -215 325 -250 408 -250C417 -250 425 -247 425 -239C425 -227 409 -227 401 -226C338 -219 295 -180 286 -137C284 -125 284 -113 284 -101L284 121C284 147 277 222 165 250C287 281 284 363 284 385L284 610C284 633 289 694 369 720C398 729 425 723 425 739C425 744 421 750 407 750C358 750 279 734 239 686C219 662 214 641 214 604L214 386C214 376 214 367 212 357C203 305 155 274 111 265C86 260 73 264 73 250Z" stroke="rgb(0,0,0)" stroke-opacity="1" stroke-width="8" fill="rgb(0,0,0)" fill-opacity="1"></path></g></g></g></g><g><g><g><g transform="matrix(1,0,0,1,488.8203125,60.725)"><path transform="matrix(0.03735,0,0,-0.03735,0,0)" d="M73 -239C73 -244 75 -250 91 -250C127 -250 190 -242 236 -208C285 -172 284 -130 284 -104L284 114C284 124 284 133 286 143C295 195 342 226 386 235C410 240 425 236 425 250C425 262 407 261 393 263C370 267 284 287 284 383L284 602C284 612 284 621 283 631C273 715 173 750 90 750C81 750 73 746 73 738C73 726 89 727 97 726C160 719 203 680 212 637C214 625 214 613 214 601L214 378C214 352 221 278 333 250C210 219 214 138 214 115L214 -110C214 -133 209 -194 129 -220C97 -230 73 -224 73 -239Z" stroke="rgb(0,0,0)" stroke-opacity="1" stroke-width="8" fill="rgb(0,0,0)" fill-opacity="1"></path></g></g></g></g><g><g><g><g transform="matrix(1,0,0,1,443.8359375,57.896875)"><path transform="matrix(0.03735,0,0,-0.03735,0,0)" d="M85 53C85 26 107 0 138 0C164 0 190 22 190 53C190 84 166 105 138 105C107 105 85 80 85 53ZM363 53C363 26 385 0 416 0C442 0 468 22 468 53C468 84 444 105 416 105C385 105 363 80 363 53ZM641 53C641 26 663 0 694 0C720 0 746 22 746 53C746 84 722 105 694 105C663 105 641 80 641 53Z" stroke="rgb(0,0,0)" stroke-opacity="1" stroke-width="8" fill="rgb(0,0,0)" fill-opacity="1"></path></g></g></g></g><g><g><g><g transform="matrix(1,0,0,1,415.65625,62.4125)"><path transform="matrix(0.03735,0,0,-0.03735,0,0)" d="M86 53C86 27 103 0 139 0C155 0 167 6 177 14L179 16C180 16 181 15 181 1C181 -63 153 -124 109 -171C103 -177 102 -178 102 -182C102 -189 107 -193 112 -193C124 -193 203 -114 203 1C203 65 179 106 139 106C104 106 86 79 86 53Z" stroke="rgb(0,0,0)" stroke-opacity="1" stroke-width="8" fill="rgb(0,0,0)" fill-opacity="1"></path></g></g></g></g><g><g><g><g transform="matrix(1,0,0,1,375.2578125,156.6275)"><path transform="matrix(0.019440000000000002,0,0,-0.019440000000000002,0,0)" d="M56 2C56 -15 56 -22 67 -22C74 -22 75 -20 82 -9C82 -8 85 -5 118 48C149 14 213 -22 302 -22C419 -22 499 76 499 186C499 286 433 368 349 388L221 419C159 434 120 488 120 546C120 616 174 677 252 677C419 677 441 513 447 468C448 462 448 456 459 456C472 456 472 461 472 480L472 681C472 698 472 705 461 705C454 705 453 704 446 692L411 635C381 664 340 705 251 705C140 705 56 617 56 511C56 428 109 355 187 328C198 324 249 312 319 295C346 288 376 281 404 244C425 218 435 185 435 152C435 81 385 9 301 9C272 9 196 14 143 63C85 117 82 181 81 217C80 227 72 227 69 227C56 227 56 220 56 202ZM583 220C583 86 688 -11 803 -11C925 -11 970 100 970 119C970 129 962 131 957 131C948 131 946 125 944 117C909 14 819 14 809 14C759 14 719 44 696 81C666 129 666 195 666 231L945 231C967 231 970 231 970 252C970 351 916 448 791 448C675 448 583 345 583 220ZM667 252C673 401 757 426 791 426C894 426 904 291 904 252ZM1032 0C1065 1 1118 3 1143 3C1168 3 1217 1 1254 0L1254 31C1187 31 1176 31 1176 76L1176 694L1032 683L1032 652C1102 652 1110 645 1110 596L1110 76C1110 31 1099 31 1032 31ZM1309 400L1388 400L1388 76C1388 31 1377 31 1310 31L1310 0C1349 1 1396 3 1424 3C1464 3 1511 3 1551 0L1551 31L1530 31C1456 31 1454 42 1454 78L1454 400L1568 400L1568 431L1451 431L1451 547C1451 635 1499 683 1543 683C1546 683 1561 683 1576 676C1564 672 1546 659 1546 634C1546 611 1562 591 1589 591C1618 591 1633 611 1633 635C1633 672 1596 705 1543 705C1473 705 1388 652 1388 546L1388 431L1309 431ZM1946 0C1969 1 2012 3 2048 3C2079 3 2131 1 2163 0L2163 31C2113 31 2088 56 2088 82C2088 85 2089 95 2090 97L2136 228L2383 228L2436 75C2437 71 2439 65 2439 61C2439 31 2383 31 2356 31L2356 0C2392 3 2462 3 2500 3C2543 3 2589 2 2631 0L2631 31L2613 31C2553 31 2539 38 2528 71L2312 696C2307 709 2305 716 2289 716C2273 716 2270 710 2265 696L2058 98C2040 47 2000 32 1946 31ZM2147 259L2259 584L2372 259ZM2655 400L2740 400L2740 124C2740 1 2833 -11 2869 -11C2940 -11 2968 60 2968 124L2968 181L2943 181L2943 126C2943 52 2913 14 2876 14C2809 14 2809 105 2809 122L2809 400L2952 400L2952 431L2809 431L2809 615L2784 615C2783 533 2753 426 2655 422ZM3043 400L3128 400L3128 124C3128 1 3221 -11 3257 -11C3328 -11 3356 60 3356 124L3356 181L3331 181L3331 126C3331 52 3301 14 3264 14C3197 14 3197 105 3197 122L3197 400L3340 400L3340 431L3197 431L3197 615L3172 615C3171 533 3141 426 3043 422ZM3440 220C3440 86 3545 -11 3660 -11C3782 -11 3827 100 3827 119C3827 129 3819 131 3814 131C3805 131 3803 125 3801 117C3766 14 3676 14 3666 14C3616 14 3576 44 3553 81C3523 129 3523 195 3523 231L3802 231C3824 231 3827 231 3827 252C3827 351 3773 448 3648 448C3532 448 3440 345 3440 220ZM3524 252C3530 401 3614 426 3648 426C3751 426 3761 291 3761 252ZM3888 0C3923 1 3974 3 4001 3C4027 3 4079 1 4113 0L4113 31C4046 31 4035 31 4035 76L4035 260C4035 364 4106 420 4170 420C4233 420 4244 366 4244 309L4244 76C4244 31 4233 31 4166 31L4166 0C4201 1 4252 3 4279 3C4305 3 4357 1 4391 0L4391 31C4339 31 4314 31 4313 61L4313 252C4313 338 4313 369 4282 405C4268 422 4235 442 4177 442C4104 442 4057 399 4029 337L4029 442L3888 431L3888 400C3958 400 3966 393 3966 344L3966 76C3966 31 3955 31 3888 31ZM4402 400L4487 400L4487 124C4487 1 4580 -11 4616 -11C4687 -11 4715 60 4715 124L4715 181L4690 181L4690 126C4690 52 4660 14 4623 14C4556 14 4556 105 4556 122L4556 400L4699 400L4699 431L4556 431L4556 615L4531 615C4530 533 4500 426 4402 422ZM4846 616C4846 589 4868 563 4899 563C4927 563 4952 584 4952 616C4952 648 4927 669 4899 669C4868 669 4846 642 4846 616ZM4804 0C4836 1 4890 3 4914 3C4949 3 4984 1 5018 0L5018 31C4952 31 4948 36 4948 75L4948 442L4808 431L4808 400C4873 400 4882 394 4882 345L4882 76C4882 31 4871 31 4804 31ZM5076 214C5076 85 5180 -11 5297 -11C5418 -11 5519 87 5519 214C5519 342 5419 448 5298 448C5173 448 5076 339 5076 214ZM5159 222C5159 261 5159 315 5183 359C5210 405 5257 426 5297 426C5341 426 5384 404 5410 361C5436 318 5436 260 5436 222C5436 186 5436 132 5414 88C5392 43 5348 14 5298 14C5255 14 5211 35 5184 81C5159 125 5159 186 5159 222ZM5580 0C5615 1 5666 3 5693 3C5719 3 5771 1 5805 0L5805 31C5738 31 5727 31 5727 76L5727 260C5727 364 5798 420 5862 420C5925 420 5936 366 5936 309L5936 76C5936 31 5925 31 5858 31L5858 0C5893 1 5944 3 5971 3C5997 3 6049 1 6083 0L6083 31C6031 31 6006 31 6005 61L6005 252C6005 338 6005 369 5974 405C5960 422 5927 442 5869 442C5796 442 5749 399 5721 337L5721 442L5580 431L5580 400C5650 400 5658 393 5658 344L5658 76C5658 31 5647 31 5580 31Z" stroke="rgb(0,0,0)" stroke-opacity="1" stroke-width="8" fill="rgb(0,0,0)" fill-opacity="1"></path></g></g></g></g><g transform="matrix(0.8073724359982184,0.5900421591634811,-0.5900421591634811,0.8073724359982184,202.09161304069227,-301.50046711322636)"><g><g><g transform="matrix(1,0,0,1,549.3671875,180.049625)"><path transform="matrix(0.053784,0,0,-0.053784,0,0)" d="M73 -239C73 -244 75 -250 91 -250C127 -250 190 -242 236 -208C285 -172 284 -130 284 -104L284 114C284 124 284 133 286 143C295 195 342 226 386 235C410 240 425 236 425 250C425 262 407 261 393 263C370 267 284 287 284 383L284 602C284 612 284 621 283 631C273 715 173 750 90 750C81 750 73 746 73 738C73 726 89 727 97 726C160 719 203 680 212 637C214 625 214 613 214 601L214 378C214 352 221 278 333 250C210 219 214 138 214 115L214 -110C214 -133 209 -194 129 -220C97 -230 73 -224 73 -239Z" stroke="rgb(0,0,0)" stroke-opacity="1" stroke-width="8" fill="rgb(0,0,0)" fill-opacity="1"></path></g></g></g></g><g transform="matrix(0.8208502716607449,0.5711434421530912,-0.5711434421530912,0.8208502716607449,213.13016263520768,-306.9132426793582)"><g><g><g transform="matrix(1,0,0,1,569.359375,193.88125)"><path transform="matrix(0.0216,0,0,-0.0216,0,0)" d="M32 0C67 1 118 3 145 3C171 3 223 1 257 0L257 31C190 31 179 31 179 76L179 260C179 364 250 420 314 420C377 420 388 366 388 309L388 76C388 31 377 31 310 31L310 0C345 1 396 3 423 3C449 3 501 1 535 0L535 31C483 31 458 31 457 61L457 252C457 338 457 369 426 405C412 422 379 442 321 442C237 442 193 382 177 346L176 346L176 694L32 683L32 652C102 652 110 645 110 596L110 76C110 31 99 31 32 31ZM583 220C583 86 688 -11 803 -11C925 -11 970 100 970 119C970 129 962 131 957 131C948 131 946 125 944 117C909 14 819 14 809 14C759 14 719 44 696 81C666 129 666 195 666 231L945 231C967 231 970 231 970 252C970 351 916 448 791 448C675 448 583 345 583 220ZM667 252C673 401 757 426 791 426C894 426 904 291 904 252ZM1041 95C1041 14 1138 -11 1201 -11C1267 -11 1313 29 1332 76C1336 36 1363 -6 1410 -6C1431 -6 1492 8 1492 89L1492 145L1467 145L1467 89C1467 31 1442 25 1431 25C1398 25 1394 70 1394 75L1394 275C1394 317 1394 356 1358 393C1319 432 1269 448 1221 448C1139 448 1070 401 1070 335C1070 305 1090 288 1116 288C1144 288 1162 308 1162 334C1162 346 1157 379 1111 380C1138 415 1187 426 1219 426C1268 426 1325 387 1325 298L1325 261C1274 258 1204 255 1141 225C1066 191 1041 139 1041 95ZM1118 96C1118 151 1160 234 1325 240L1325 140C1325 45 1253 11 1208 11C1159 11 1118 46 1118 96ZM1533 215C1533 88 1631 -11 1745 -11C1809 -11 1854 23 1879 55L1879 -11L2026 0L2026 31C1956 31 1948 38 1948 87L1948 694L1804 683L1804 652C1874 652 1882 645 1882 596L1882 380C1853 416 1810 442 1756 442C1638 442 1533 344 1533 215ZM1616 214C1616 251 1618 311 1647 356C1668 387 1706 420 1760 420C1795 420 1837 405 1868 360C1879 343 1879 341 1879 323L1879 118C1879 100 1879 98 1868 81C1838 33 1793 11 1750 11C1705 11 1669 37 1645 75C1619 116 1616 173 1616 214ZM2087 13C2087 -4 2087 -11 2098 -11C2103 -11 2104 -10 2123 9C2125 11 2125 13 2143 32C2187 -10 2232 -11 2253 -11C2368 -11 2414 56 2414 128C2414 181 2384 211 2372 223C2339 255 2300 263 2258 271C2202 282 2135 295 2135 353C2135 388 2161 429 2247 429C2357 429 2362 339 2364 308C2365 299 2374 299 2376 299C2389 299 2389 304 2389 323L2389 424C2389 441 2389 448 2378 448C2373 448 2371 448 2358 436C2355 432 2345 423 2341 420C2303 448 2262 448 2247 448C2125 448 2087 381 2087 325C2087 290 2103 262 2130 240C2162 214 2190 208 2262 194C2284 190 2366 174 2366 102C2366 51 2331 11 2253 11C2169 11 2133 68 2114 153C2111 166 2110 170 2100 170C2087 170 2087 163 2087 145Z" stroke="rgb(0,0,0)" stroke-opacity="1" stroke-width="8" fill="rgb(0,0,0)" fill-opacity="1"></path></g></g></g></g><g><g><g><g transform="matrix(1,0,0,1,368.984375,247.115625)"><path transform="matrix(0.0216,0,0,-0.0216,0,0)" d="M56 342C56 135 218 -22 404 -22C567 -22 665 117 665 233C665 243 665 250 652 250C641 250 641 244 640 234C632 91 525 9 416 9C355 9 159 43 159 341C159 640 354 674 415 674C524 674 613 583 633 437C635 423 635 420 649 420C665 420 665 423 665 444L665 681C665 698 665 705 654 705C650 705 646 705 638 693L588 619C551 655 500 705 404 705C217 705 56 546 56 342ZM750 214C750 85 854 -11 971 -11C1092 -11 1193 87 1193 214C1193 342 1093 448 972 448C847 448 750 339 750 214ZM833 222C833 261 833 315 857 359C884 405 931 426 971 426C1015 426 1058 404 1084 361C1110 318 1110 260 1110 222C1110 186 1110 132 1088 88C1066 43 1022 14 972 14C929 14 885 35 858 81C833 125 833 186 833 222ZM1254 0C1289 1 1340 3 1367 3C1393 3 1445 1 1479 0L1479 31C1412 31 1401 31 1401 76L1401 260C1401 364 1472 420 1536 420C1599 420 1610 366 1610 309L1610 76C1610 31 1599 31 1532 31L1532 0C1567 1 1618 3 1645 3C1671 3 1723 1 1757 0L1757 31C1705 31 1680 31 1679 61L1679 252C1679 338 1679 369 1648 405C1634 422 1601 442 1543 442C1470 442 1423 399 1395 337L1395 442L1254 431L1254 400C1324 400 1332 393 1332 344L1332 76C1332 31 1321 31 1254 31ZM1811 216C1811 88 1910 -11 2026 -11C2160 -11 2192 109 2192 119C2192 129 2182 129 2179 129C2170 129 2168 125 2166 119C2137 26 2072 14 2035 14C1982 14 1894 57 1894 218C1894 381 1976 423 2029 423C2038 423 2101 422 2136 386C2095 383 2089 353 2089 340C2089 314 2107 294 2135 294C2161 294 2181 311 2181 341C2181 409 2105 448 2028 448C1903 448 1811 340 1811 216ZM2263 95C2263 14 2360 -11 2423 -11C2489 -11 2535 29 2554 76C2558 36 2585 -6 2632 -6C2653 -6 2714 8 2714 89L2714 145L2689 145L2689 89C2689 31 2664 25 2653 25C2620 25 2616 70 2616 75L2616 275C2616 317 2616 356 2580 393C2541 432 2491 448 2443 448C2361 448 2292 401 2292 335C2292 305 2312 288 2338 288C2366 288 2384 308 2384 334C2384 346 2379 379 2333 380C2360 415 2409 426 2441 426C2490 426 2547 387 2547 298L2547 261C2496 258 2426 255 2363 225C2288 191 2263 139 2263 95ZM2340 96C2340 151 2382 234 2547 240L2547 140C2547 45 2475 11 2430 11C2381 11 2340 46 2340 96ZM2740 400L2825 400L2825 124C2825 1 2918 -11 2954 -11C3025 -11 3053 60 3053 124L3053 181L3028 181L3028 126C3028 52 2998 14 2961 14C2894 14 2894 105 2894 122L2894 400L3037 400L3037 431L2894 431L2894 615L2869 615C2868 533 2838 426 2740 422ZM3137 220C3137 86 3242 -11 3357 -11C3479 -11 3524 100 3524 119C3524 129 3516 131 3511 131C3502 131 3500 125 3498 117C3463 14 3373 14 3363 14C3313 14 3273 44 3250 81C3220 129 3220 195 3220 231L3499 231C3521 231 3524 231 3524 252C3524 351 3470 448 3345 448C3229 448 3137 345 3137 220ZM3221 252C3227 401 3311 426 3345 426C3448 426 3458 291 3458 252ZM3585 0C3620 1 3671 3 3698 3C3724 3 3776 1 3810 0L3810 31C3743 31 3732 31 3732 76L3732 260C3732 364 3803 420 3867 420C3930 420 3941 366 3941 309L3941 76C3941 31 3930 31 3863 31L3863 0C3898 1 3949 3 3976 3C4002 3 4054 1 4088 0L4088 31C4036 31 4011 31 4010 61L4010 252C4010 338 4010 369 3979 405C3965 422 3932 442 3874 442C3801 442 3754 399 3726 337L3726 442L3585 431L3585 400C3655 400 3663 393 3663 344L3663 76C3663 31 3652 31 3585 31ZM4150 95C4150 14 4247 -11 4310 -11C4376 -11 4422 29 4441 76C4445 36 4472 -6 4519 -6C4540 -6 4601 8 4601 89L4601 145L4576 145L4576 89C4576 31 4551 25 4540 25C4507 25 4503 70 4503 75L4503 275C4503 317 4503 356 4467 393C4428 432 4378 448 4330 448C4248 448 4179 401 4179 335C4179 305 4199 288 4225 288C4253 288 4271 308 4271 334C4271 346 4266 379 4220 380C4247 415 4296 426 4328 426C4377 426 4434 387 4434 298L4434 261C4383 258 4313 255 4250 225C4175 191 4150 139 4150 95ZM4227 96C4227 151 4269 234 4434 240L4434 140C4434 45 4362 11 4317 11C4268 11 4227 46 4227 96ZM4627 400L4712 400L4712 124C4712 1 4805 -11 4841 -11C4912 -11 4940 60 4940 124L4940 181L4915 181L4915 126C4915 52 4885 14 4848 14C4781 14 4781 105 4781 122L4781 400L4924 400L4924 431L4781 431L4781 615L4756 615C4755 533 4725 426 4627 422ZM5071 616C5071 589 5093 563 5124 563C5152 563 5177 584 5177 616C5177 648 5152 669 5124 669C5093 669 5071 642 5071 616ZM5029 0C5061 1 5115 3 5139 3C5174 3 5209 1 5243 0L5243 31C5177 31 5173 36 5173 75L5173 442L5033 431L5033 400C5098 400 5107 394 5107 345L5107 76C5107 31 5096 31 5029 31ZM5301 214C5301 85 5405 -11 5522 -11C5643 -11 5744 87 5744 214C5744 342 5644 448 5523 448C5398 448 5301 339 5301 214ZM5384 222C5384 261 5384 315 5408 359C5435 405 5482 426 5522 426C5566 426 5609 404 5635 361C5661 318 5661 260 5661 222C5661 186 5661 132 5639 88C5617 43 5573 14 5523 14C5480 14 5436 35 5409 81C5384 125 5384 186 5384 222ZM5805 0C5840 1 5891 3 5918 3C5944 3 5996 1 6030 0L6030 31C5963 31 5952 31 5952 76L5952 260C5952 364 6023 420 6087 420C6150 420 6161 366 6161 309L6161 76C6161 31 6150 31 6083 31L6083 0C6118 1 6169 3 6196 3C6222 3 6274 1 6308 0L6308 31C6256 31 6231 31 6230 61L6230 252C6230 338 6230 369 6199 405C6185 422 6152 442 6094 442C6021 442 5974 399 5946 337L5946 442L5805 431L5805 400C5875 400 5883 393 5883 344L5883 76C5883 31 5872 31 5805 31Z" stroke="rgb(0,0,0)" stroke-opacity="1" stroke-width="8" fill="rgb(0,0,0)" fill-opacity="1"></path></g></g></g></g><g><g><g><g transform="matrix(1,0,0,1,400.9765625,347.115625)"><path transform="matrix(0.0216,0,0,-0.0216,0,0)" d="M33 0L554 0L582 258L557 258C546 156 532 31 356 31L274 31C227 31 225 38 225 71L225 604C225 638 225 652 320 652L353 652L353 683C317 680 226 680 185 680C146 680 68 680 33 683L33 652L57 652C134 652 136 641 136 605L136 78C136 42 134 31 57 31L33 31ZM700 616C700 589 722 563 753 563C781 563 806 584 806 616C806 648 781 669 753 669C722 669 700 642 700 616ZM658 0C690 1 744 3 768 3C803 3 838 1 872 0L872 31C806 31 802 36 802 75L802 442L662 431L662 400C727 400 736 394 736 345L736 76C736 31 725 31 658 31ZM934 0C969 1 1020 3 1047 3C1073 3 1125 1 1159 0L1159 31C1092 31 1081 31 1081 76L1081 260C1081 364 1152 420 1216 420C1279 420 1290 366 1290 309L1290 76C1290 31 1279 31 1212 31L1212 0C1247 1 1298 3 1325 3C1351 3 1403 1 1437 0L1437 31C1385 31 1360 31 1359 61L1359 252C1359 338 1359 369 1328 405C1314 422 1281 442 1223 442C1150 442 1103 399 1075 337L1075 442L934 431L934 400C1004 400 1012 393 1012 344L1012 76C1012 31 1001 31 934 31ZM1485 220C1485 86 1590 -11 1705 -11C1827 -11 1872 100 1872 119C1872 129 1864 131 1859 131C1850 131 1848 125 1846 117C1811 14 1721 14 1711 14C1661 14 1621 44 1598 81C1568 129 1568 195 1568 231L1847 231C1869 231 1872 231 1872 252C1872 351 1818 448 1693 448C1577 448 1485 345 1485 220ZM1569 252C1575 401 1659 426 1693 426C1796 426 1806 291 1806 252ZM1943 95C1943 14 2040 -11 2103 -11C2169 -11 2215 29 2234 76C2238 36 2265 -6 2312 -6C2333 -6 2394 8 2394 89L2394 145L2369 145L2369 89C2369 31 2344 25 2333 25C2300 25 2296 70 2296 75L2296 275C2296 317 2296 356 2260 393C2221 432 2171 448 2123 448C2041 448 1972 401 1972 335C1972 305 1992 288 2018 288C2046 288 2064 308 2064 334C2064 346 2059 379 2013 380C2040 415 2089 426 2121 426C2170 426 2227 387 2227 298L2227 261C2176 258 2106 255 2043 225C1968 191 1943 139 1943 95ZM2020 96C2020 151 2062 234 2227 240L2227 140C2227 45 2155 11 2110 11C2061 11 2020 46 2020 96ZM2429 0C2468 1 2515 3 2543 3C2583 3 2630 3 2670 0L2670 31L2649 31C2575 31 2573 42 2573 78L2573 232C2573 331 2615 420 2691 420C2698 420 2700 420 2702 419C2699 418 2679 406 2679 380C2679 352 2700 337 2722 337C2740 337 2765 349 2765 381C2765 413 2734 442 2691 442C2618 442 2582 375 2568 332L2568 442L2429 431L2429 400C2499 400 2507 393 2507 344L2507 76C2507 31 2496 31 2429 31Z" stroke="rgb(0,0,0)" stroke-opacity="1" stroke-width="8" fill="rgb(0,0,0)" fill-opacity="1"></path></g></g></g></g><g><g><g><g transform="matrix(1,0,0,1,110.2109375,528.84625)"><path transform="matrix(0.019440000000000002,0,0,-0.019440000000000002,0,0)" d="M56 2C56 -15 56 -22 67 -22C74 -22 75 -20 82 -9C82 -8 85 -5 118 48C149 14 213 -22 302 -22C419 -22 499 76 499 186C499 286 433 368 349 388L221 419C159 434 120 488 120 546C120 616 174 677 252 677C419 677 441 513 447 468C448 462 448 456 459 456C472 456 472 461 472 480L472 681C472 698 472 705 461 705C454 705 453 704 446 692L411 635C381 664 340 705 251 705C140 705 56 617 56 511C56 428 109 355 187 328C198 324 249 312 319 295C346 288 376 281 404 244C425 218 435 185 435 152C435 81 385 9 301 9C272 9 196 14 143 63C85 117 82 181 81 217C80 227 72 227 69 227C56 227 56 220 56 202ZM583 220C583 86 688 -11 803 -11C925 -11 970 100 970 119C970 129 962 131 957 131C948 131 946 125 944 117C909 14 819 14 809 14C759 14 719 44 696 81C666 129 666 195 666 231L945 231C967 231 970 231 970 252C970 351 916 448 791 448C675 448 583 345 583 220ZM667 252C673 401 757 426 791 426C894 426 904 291 904 252ZM1032 0C1065 1 1118 3 1143 3C1168 3 1217 1 1254 0L1254 31C1187 31 1176 31 1176 76L1176 694L1032 683L1032 652C1102 652 1110 645 1110 596L1110 76C1110 31 1099 31 1032 31ZM1309 400L1388 400L1388 76C1388 31 1377 31 1310 31L1310 0C1349 1 1396 3 1424 3C1464 3 1511 3 1551 0L1551 31L1530 31C1456 31 1454 42 1454 78L1454 400L1568 400L1568 431L1451 431L1451 547C1451 635 1499 683 1543 683C1546 683 1561 683 1576 676C1564 672 1546 659 1546 634C1546 611 1562 591 1589 591C1618 591 1633 611 1633 635C1633 672 1596 705 1543 705C1473 705 1388 652 1388 546L1388 431L1309 431ZM1946 0C1969 1 2012 3 2048 3C2079 3 2131 1 2163 0L2163 31C2113 31 2088 56 2088 82C2088 85 2089 95 2090 97L2136 228L2383 228L2436 75C2437 71 2439 65 2439 61C2439 31 2383 31 2356 31L2356 0C2392 3 2462 3 2500 3C2543 3 2589 2 2631 0L2631 31L2613 31C2553 31 2539 38 2528 71L2312 696C2307 709 2305 716 2289 716C2273 716 2270 710 2265 696L2058 98C2040 47 2000 32 1946 31ZM2147 259L2259 584L2372 259ZM2655 400L2740 400L2740 124C2740 1 2833 -11 2869 -11C2940 -11 2968 60 2968 124L2968 181L2943 181L2943 126C2943 52 2913 14 2876 14C2809 14 2809 105 2809 122L2809 400L2952 400L2952 431L2809 431L2809 615L2784 615C2783 533 2753 426 2655 422ZM3043 400L3128 400L3128 124C3128 1 3221 -11 3257 -11C3328 -11 3356 60 3356 124L3356 181L3331 181L3331 126C3331 52 3301 14 3264 14C3197 14 3197 105 3197 122L3197 400L3340 400L3340 431L3197 431L3197 615L3172 615C3171 533 3141 426 3043 422ZM3440 220C3440 86 3545 -11 3660 -11C3782 -11 3827 100 3827 119C3827 129 3819 131 3814 131C3805 131 3803 125 3801 117C3766 14 3676 14 3666 14C3616 14 3576 44 3553 81C3523 129 3523 195 3523 231L3802 231C3824 231 3827 231 3827 252C3827 351 3773 448 3648 448C3532 448 3440 345 3440 220ZM3524 252C3530 401 3614 426 3648 426C3751 426 3761 291 3761 252ZM3888 0C3923 1 3974 3 4001 3C4027 3 4079 1 4113 0L4113 31C4046 31 4035 31 4035 76L4035 260C4035 364 4106 420 4170 420C4233 420 4244 366 4244 309L4244 76C4244 31 4233 31 4166 31L4166 0C4201 1 4252 3 4279 3C4305 3 4357 1 4391 0L4391 31C4339 31 4314 31 4313 61L4313 252C4313 338 4313 369 4282 405C4268 422 4235 442 4177 442C4104 442 4057 399 4029 337L4029 442L3888 431L3888 400C3958 400 3966 393 3966 344L3966 76C3966 31 3955 31 3888 31ZM4402 400L4487 400L4487 124C4487 1 4580 -11 4616 -11C4687 -11 4715 60 4715 124L4715 181L4690 181L4690 126C4690 52 4660 14 4623 14C4556 14 4556 105 4556 122L4556 400L4699 400L4699 431L4556 431L4556 615L4531 615C4530 533 4500 426 4402 422ZM4846 616C4846 589 4868 563 4899 563C4927 563 4952 584 4952 616C4952 648 4927 669 4899 669C4868 669 4846 642 4846 616ZM4804 0C4836 1 4890 3 4914 3C4949 3 4984 1 5018 0L5018 31C4952 31 4948 36 4948 75L4948 442L4808 431L4808 400C4873 400 4882 394 4882 345L4882 76C4882 31 4871 31 4804 31ZM5076 214C5076 85 5180 -11 5297 -11C5418 -11 5519 87 5519 214C5519 342 5419 448 5298 448C5173 448 5076 339 5076 214ZM5159 222C5159 261 5159 315 5183 359C5210 405 5257 426 5297 426C5341 426 5384 404 5410 361C5436 318 5436 260 5436 222C5436 186 5436 132 5414 88C5392 43 5348 14 5298 14C5255 14 5211 35 5184 81C5159 125 5159 186 5159 222ZM5580 0C5615 1 5666 3 5693 3C5719 3 5771 1 5805 0L5805 31C5738 31 5727 31 5727 76L5727 260C5727 364 5798 420 5862 420C5925 420 5936 366 5936 309L5936 76C5936 31 5925 31 5858 31L5858 0C5893 1 5944 3 5971 3C5997 3 6049 1 6083 0L6083 31C6031 31 6006 31 6005 61L6005 252C6005 338 6005 369 5974 405C5960 422 5927 442 5869 442C5796 442 5749 399 5721 337L5721 442L5580 431L5580 400C5650 400 5658 393 5658 344L5658 76C5658 31 5647 31 5580 31Z" stroke="rgb(0,0,0)" stroke-opacity="1" stroke-width="8" fill="rgb(0,0,0)" fill-opacity="1"></path></g></g></g></g><g><g><g><g transform="matrix(1,0,0,1,343.21875,487.768125)"><path transform="matrix(0.019440000000000002,0,0,-0.019440000000000002,0,0)" d="M37 0C72 1 121 3 154 3C187 3 236 1 271 0L271 31C168 31 168 78 168 105L168 644L169 644L410 22C415 9 420 0 430 0C441 0 444 8 448 19L694 652L695 652L695 78C695 42 693 31 616 31L592 31L592 0C629 3 697 3 736 3C775 3 842 3 879 0L879 31L855 31C778 31 776 42 776 78L776 605C776 641 778 652 855 652L879 652L879 683L710 683C684 683 684 682 677 664L458 101L241 661C232 683 229 683 206 683L37 683L37 652L61 652C138 652 140 641 140 605L140 105C140 78 140 31 37 31ZM948 400C1026 400 1026 397 1026 308L1026 158C1026 80 1026 -11 1178 -11C1234 -11 1278 17 1307 79L1307 -11L1451 0L1451 31C1381 31 1373 38 1373 87L1373 442L1226 431L1226 400C1296 400 1304 393 1304 344L1304 166C1304 79 1256 11 1183 11C1099 11 1095 58 1095 110L1095 442L948 431ZM1504 0C1537 1 1590 3 1615 3C1640 3 1689 1 1726 0L1726 31C1659 31 1648 31 1648 76L1648 694L1504 683L1504 652C1574 652 1582 645 1582 596L1582 76C1582 31 1571 31 1504 31ZM1767 400L1852 400L1852 124C1852 1 1945 -11 1981 -11C2052 -11 2080 60 2080 124L2080 181L2055 181L2055 126C2055 52 2025 14 1988 14C1921 14 1921 105 1921 122L1921 400L2064 400L2064 431L1921 431L1921 615L1896 615C1895 533 1865 426 1767 422ZM2211 616C2211 589 2233 563 2264 563C2292 563 2317 584 2317 616C2317 648 2292 669 2264 669C2233 669 2211 642 2211 616ZM2169 0C2201 1 2255 3 2279 3C2314 3 2349 1 2383 0L2383 31C2317 31 2313 36 2313 75L2313 442L2173 431L2173 400C2238 400 2247 394 2247 345L2247 76C2247 31 2236 31 2169 31ZM2779 0C2814 3 2888 3 2926 3C2964 3 3039 3 3074 0L3074 31L3050 31C2973 31 2971 42 2971 78L2971 340L3270 340L3270 78C3270 42 3268 31 3191 31L3167 31L3167 0C3202 3 3276 3 3314 3C3352 3 3427 3 3462 0L3462 31L3438 31C3361 31 3359 42 3359 78L3359 605C3359 641 3361 652 3438 652L3462 652L3462 683C3427 680 3353 680 3315 680C3277 680 3202 680 3167 683L3167 652L3191 652C3268 652 3270 641 3270 605L3270 371L2971 371L2971 605C2971 641 2973 652 3050 652L3074 652L3074 683C3039 680 2965 680 2927 680C2889 680 2814 680 2779 683L2779 652L2803 652C2880 652 2882 641 2882 605L2882 78C2882 42 2880 31 2803 31L2779 31ZM3524 220C3524 86 3629 -11 3744 -11C3866 -11 3911 100 3911 119C3911 129 3903 131 3898 131C3889 131 3887 125 3885 117C3850 14 3760 14 3750 14C3700 14 3660 44 3637 81C3607 129 3607 195 3607 231L3886 231C3908 231 3911 231 3911 252C3911 351 3857 448 3732 448C3616 448 3524 345 3524 220ZM3608 252C3614 401 3698 426 3732 426C3835 426 3845 291 3845 252ZM3982 95C3982 14 4079 -11 4142 -11C4208 -11 4254 29 4273 76C4277 36 4304 -6 4351 -6C4372 -6 4433 8 4433 89L4433 145L4408 145L4408 89C4408 31 4383 25 4372 25C4339 25 4335 70 4335 75L4335 275C4335 317 4335 356 4299 393C4260 432 4210 448 4162 448C4080 448 4011 401 4011 335C4011 305 4031 288 4057 288C4085 288 4103 308 4103 334C4103 346 4098 379 4052 380C4079 415 4128 426 4160 426C4209 426 4266 387 4266 298L4266 261C4215 258 4145 255 4082 225C4007 191 3982 139 3982 95ZM4059 96C4059 151 4101 234 4266 240L4266 140C4266 45 4194 11 4149 11C4100 11 4059 46 4059 96ZM4474 215C4474 88 4572 -11 4686 -11C4750 -11 4795 23 4820 55L4820 -11L4967 0L4967 31C4897 31 4889 38 4889 87L4889 694L4745 683L4745 652C4815 652 4823 645 4823 596L4823 380C4794 416 4751 442 4697 442C4579 442 4474 344 4474 215ZM4557 214C4557 251 4559 311 4588 356C4609 387 4647 420 4701 420C4736 420 4778 405 4809 360C4820 343 4820 341 4820 323L4820 118C4820 100 4820 98 4809 81C4779 33 4734 11 4691 11C4646 11 4610 37 4586 75C4560 116 4557 173 4557 214ZM5360 0C5383 1 5426 3 5462 3C5493 3 5545 1 5577 0L5577 31C5527 31 5502 56 5502 82C5502 85 5503 95 5504 97L5550 228L5797 228L5850 75C5851 71 5853 65 5853 61C5853 31 5797 31 5770 31L5770 0C5806 3 5876 3 5914 3C5957 3 6003 2 6045 0L6045 31L6027 31C5967 31 5953 38 5942 71L5726 696C5721 709 5719 716 5703 716C5687 716 5684 710 5679 696L5472 98C5454 47 5414 32 5360 31ZM5561 259L5673 584L5786 259ZM6069 400L6154 400L6154 124C6154 1 6247 -11 6283 -11C6354 -11 6382 60 6382 124L6382 181L6357 181L6357 126C6357 52 6327 14 6290 14C6223 14 6223 105 6223 122L6223 400L6366 400L6366 431L6223 431L6223 615L6198 615C6197 533 6167 426 6069 422ZM6457 400L6542 400L6542 124C6542 1 6635 -11 6671 -11C6742 -11 6770 60 6770 124L6770 181L6745 181L6745 126C6745 52 6715 14 6678 14C6611 14 6611 105 6611 122L6611 400L6754 400L6754 431L6611 431L6611 615L6586 615C6585 533 6555 426 6457 422ZM6854 220C6854 86 6959 -11 7074 -11C7196 -11 7241 100 7241 119C7241 129 7233 131 7228 131C7219 131 7217 125 7215 117C7180 14 7090 14 7080 14C7030 14 6990 44 6967 81C6937 129 6937 195 6937 231L7216 231C7238 231 7241 231 7241 252C7241 351 7187 448 7062 448C6946 448 6854 345 6854 220ZM6938 252C6944 401 7028 426 7062 426C7165 426 7175 291 7175 252ZM7302 0C7337 1 7388 3 7415 3C7441 3 7493 1 7527 0L7527 31C7460 31 7449 31 7449 76L7449 260C7449 364 7520 420 7584 420C7647 420 7658 366 7658 309L7658 76C7658 31 7647 31 7580 31L7580 0C7615 1 7666 3 7693 3C7719 3 7771 1 7805 0L7805 31C7753 31 7728 31 7727 61L7727 252C7727 338 7727 369 7696 405C7682 422 7649 442 7591 442C7518 442 7471 399 7443 337L7443 442L7302 431L7302 400C7372 400 7380 393 7380 344L7380 76C7380 31 7369 31 7302 31ZM7816 400L7901 400L7901 124C7901 1 7994 -11 8030 -11C8101 -11 8129 60 8129 124L8129 181L8104 181L8104 126C8104 52 8074 14 8037 14C7970 14 7970 105 7970 122L7970 400L8113 400L8113 431L7970 431L7970 615L7945 615C7944 533 7914 426 7816 422ZM8260 616C8260 589 8282 563 8313 563C8341 563 8366 584 8366 616C8366 648 8341 669 8313 669C8282 669 8260 642 8260 616ZM8218 0C8250 1 8304 3 8328 3C8363 3 8398 1 8432 0L8432 31C8366 31 8362 36 8362 75L8362 442L8222 431L8222 400C8287 400 8296 394 8296 345L8296 76C8296 31 8285 31 8218 31ZM8490 214C8490 85 8594 -11 8711 -11C8832 -11 8933 87 8933 214C8933 342 8833 448 8712 448C8587 448 8490 339 8490 214ZM8573 222C8573 261 8573 315 8597 359C8624 405 8671 426 8711 426C8755 426 8798 404 8824 361C8850 318 8850 260 8850 222C8850 186 8850 132 8828 88C8806 43 8762 14 8712 14C8669 14 8625 35 8598 81C8573 125 8573 186 8573 222ZM8994 0C9029 1 9080 3 9107 3C9133 3 9185 1 9219 0L9219 31C9152 31 9141 31 9141 76L9141 260C9141 364 9212 420 9276 420C9339 420 9350 366 9350 309L9350 76C9350 31 9339 31 9272 31L9272 0C9307 1 9358 3 9385 3C9411 3 9463 1 9497 0L9497 31C9445 31 9420 31 9419 61L9419 252C9419 338 9419 369 9388 405C9374 422 9341 442 9283 442C9210 442 9163 399 9135 337L9135 442L8994 431L8994 400C9064 400 9072 393 9072 344L9072 76C9072 31 9061 31 8994 31Z" stroke="rgb(0,0,0)" stroke-opacity="1" stroke-width="8" fill="rgb(0,0,0)" fill-opacity="1"></path></g></g></g></g><g transform="matrix(6.123233995736766e-17,1,-1,6.123233995736766e-17,666.453125,305.796875)"><g><g><g transform="matrix(1,0,0,1,157.078125,523.1265)"><path transform="matrix(0.09300149999999999,0,0,-0.09300149999999999,0,0)" d="M73 -239C73 -244 75 -250 91 -250C127 -250 190 -242 236 -208C285 -172 284 -130 284 -104L284 114C284 124 284 133 286 143C295 195 342 226 386 235C410 240 425 236 425 250C425 262 407 261 393 263C370 267 284 287 284 383L284 602C284 612 284 621 283 631C273 715 173 750 90 750C81 750 73 746 73 738C73 726 89 727 97 726C160 719 203 680 212 637C214 625 214 613 214 601L214 378C214 352 221 278 333 250C210 219 214 138 214 115L214 -110C214 -133 209 -194 129 -220C97 -230 73 -224 73 -239Z" stroke="rgb(0,0,0)" stroke-opacity="1" stroke-width="8" fill="rgb(0,0,0)" fill-opacity="1"></path></g></g></g></g><g transform="matrix(6.123233995736766e-17,1,-1,6.123233995736766e-17,881.453125,-7.203125)"><g><g><g transform="matrix(1,0,0,1,421.078125,474.12649999999996)"><path transform="matrix(0.09300149999999999,0,0,-0.09300149999999999,0,0)" d="M73 -239C73 -244 75 -250 91 -250C127 -250 190 -242 236 -208C285 -172 284 -130 284 -104L284 114C284 124 284 133 286 143C295 195 342 226 386 235C410 240 425 236 425 250C425 262 407 261 393 263C370 267 284 287 284 383L284 602C284 612 284 621 283 631C273 715 173 750 90 750C81 750 73 746 73 738C73 726 89 727 97 726C160 719 203 680 212 637C214 625 214 613 214 601L214 378C214 352 221 278 333 250C210 219 214 138 214 115L214 -110C214 -133 209 -194 129 -220C97 -230 73 -224 73 -239Z" stroke="rgb(0,0,0)" stroke-opacity="1" stroke-width="8" fill="rgb(0,0,0)" fill-opacity="1"></path></g></g></g></g></svg>
</svg>
