<svg xmlns="http://www.w3.org/2000/svg" xmlns:xlink="http://www.w3.org/1999/xlink" x="0" y="0" width="562" height="468.328125" style="
        width:562px;
        height:468.328125px;
        background: transparent;
        fill: none;
">
        
        
        <svg xmlns="http://www.w3.org/2000/svg" class="role-diagram-draw-area"><g class="shapes-region" style="stroke: black; fill: none;"><g class="composite-shape"><path class="real" d=" M157.55,42.06 C157.55,39.74 159.43,37.85 161.75,37.85 L204.1,37.85 C206.42,37.85 208.31,39.74 208.31,42.06 L208.31,54.66 C208.31,56.98 206.42,58.87 204.1,58.87 L161.75,58.87 C159.43,58.87 157.55,56.98 157.55,54.66 Z" style="stroke-width: 1; stroke: rgb(0, 0, 0); fill: rgb(155, 155, 155); fill-opacity: 0.4;"/></g><g class="composite-shape"><path class="real" d=" M214.5,112.15 C214.5,107.88 217.96,104.42 222.23,104.42 L404.77,104.42 C409.04,104.42 412.5,107.88 412.5,112.15 L412.5,135.34 C412.5,139.6 409.04,143.07 404.77,143.07 L222.23,143.07 C217.96,143.07 214.5,139.6 214.5,135.34 Z" style="stroke-width: 1; stroke: rgb(0, 0, 0); fill: rgb(245, 166, 35); fill-opacity: 0.8;"/></g><g class="arrow-line"><path class="connection real" stroke-dasharray="" d="  M271.5,143.07 L271.45,167.43" style="stroke: rgb(0, 0, 0); stroke-width: 1; fill: none; fill-opacity: 1;"/><g stroke="#000" transform="matrix(0.0020943935712190603,-0.9999978067553793,0.9999978067553793,0.0020943935712190603,271.44446713022444,169.43197187116533)" style="stroke: rgb(0, 0, 0); stroke-width: 1;"><path d=" M10.93,-3.29 Q4.96,-0.45 0,0 Q4.96,0.45 10.93,3.29"/></g></g><g class="arrow-line"><path class="connection real" stroke-dasharray="" d="  M314.16,143.07 L314.16,166.3" style="stroke: rgb(0, 0, 0); stroke-width: 1; fill: none; fill-opacity: 1;"/><g stroke="#000" transform="matrix(-1.8369701987210297e-16,-1,1,-1.8369701987210297e-16,314.15623791168264,168.30375128798096)" style="stroke: rgb(0, 0, 0); stroke-width: 1;"><path d=" M10.93,-3.29 Q4.96,-0.45 0,0 Q4.96,0.45 10.93,3.29"/></g></g><g class="arrow-line"><path class="connection real" stroke-dasharray="" d="  M353.61,143.07 L353.76,167.43" style="stroke: rgb(0, 0, 0); stroke-width: 1; fill: none; fill-opacity: 1;"/><g stroke="#000" transform="matrix(-0.006108614390679053,-0.9999813422410571,0.9999813422410571,-0.006108614390679053,353.7729528394119,169.43197187116527)" style="stroke: rgb(0, 0, 0); stroke-width: 1;"><path d=" M10.93,-3.29 Q4.96,-0.45 0,0 Q4.96,0.45 10.93,3.29"/></g></g><g class="composite-shape"><path class="real" d=" M249.5,223.25 C249.5,221.18 251.18,219.5 253.25,219.5 L328.75,219.5 C330.82,219.5 332.5,221.18 332.5,223.25 L332.5,234.5 C332.5,236.57 330.82,238.25 328.75,238.25 L253.25,238.25 C251.18,238.25 249.5,236.57 249.5,234.5 Z" style="stroke-width: 1; stroke: rgb(0, 0, 0); fill: rgb(184, 233, 134); fill-opacity: 0.8;"/></g><g class="arrow-line"><path class="connection real" stroke-dasharray="" d="  M313.54,187.63 L313.54,210.87" style="stroke: rgb(0, 0, 0); stroke-width: 1; fill: none; fill-opacity: 1;"/><g stroke="#000" transform="matrix(-1.8369701987210297e-16,-1,1,-1.8369701987210297e-16,313.53722674093683,212.86846432376427)" style="stroke: rgb(0, 0, 0); stroke-width: 1;"><path d=" M10.93,-3.29 Q4.96,-0.45 0,0 Q4.96,0.45 10.93,3.29"/></g></g><g class="arrow-line"><path class="connection real" stroke-dasharray="" d="  M270.88,187.07 L270.83,211.43" style="stroke: rgb(0, 0, 0); stroke-width: 1; fill: none; fill-opacity: 1;"/><g stroke="#000" transform="matrix(0.0020943935712190603,-0.9999978067553793,0.9999978067553793,0.0020943935712190603,270.8254559594787,213.43257461535643)" style="stroke: rgb(0, 0, 0); stroke-width: 1;"><path d=" M10.93,-3.29 Q4.96,-0.45 0,0 Q4.96,0.45 10.93,3.29"/></g></g><g class="arrow-line"><path class="connection real" stroke-dasharray="" d="  M288.21,238.4 L288.16,262.77" style="stroke: rgb(0, 0, 0); stroke-width: 1; fill: none; fill-opacity: 1;"/><g stroke="#000" transform="matrix(0.0020943935712190603,-0.9999978067553793,0.9999978067553793,0.0020943935712190603,288.1577687403602,264.76661115024615)" style="stroke: rgb(0, 0, 0); stroke-width: 1;"><path d=" M10.93,-3.29 Q4.96,-0.45 0,0 Q4.96,0.45 10.93,3.29"/></g></g><g class="composite-shape"><path class="real" d=" M261.54,271.2 C261.54,269.13 263.22,267.45 265.29,267.45 L310.41,267.45 C312.48,267.45 314.16,269.13 314.16,271.2 L314.16,282.45 C314.16,284.52 312.48,286.2 310.41,286.2 L265.29,286.2 C263.22,286.2 261.54,284.52 261.54,282.45 Z" style="stroke-width: 1; stroke: rgb(0, 0, 0); fill: rgb(80, 227, 194); fill-opacity: 0.6;"/></g><g class="composite-shape"><path class="real" d=" M260.92,318.58 C260.92,316.51 262.6,314.83 264.67,314.83 L309.79,314.83 C311.86,314.83 313.54,316.51 313.54,318.58 L313.54,329.84 C313.54,331.91 311.86,333.59 309.79,333.59 L264.67,333.59 C262.6,333.59 260.92,331.91 260.92,329.84 Z" style="stroke-width: 1; stroke: rgb(0, 0, 0); fill: rgb(155, 155, 155); fill-opacity: 0.4;"/></g><g class="arrow-line"><path class="connection real" stroke-dasharray="" d="  M287.6,285.79 L287.54,310.15" style="stroke: rgb(0, 0, 0); stroke-width: 1; fill: none; fill-opacity: 1;"/><g stroke="#000" transform="matrix(0.0020943935712190603,-0.9999978067553793,0.9999978067553793,0.0020943935712190603,287.5387575696145,312.1518756439906)" style="stroke: rgb(0, 0, 0); stroke-width: 1;"><path d=" M10.93,-3.29 Q4.96,-0.45 0,0 Q4.96,0.45 10.93,3.29"/></g></g><g class="arrow-line"><path class="connection real" stroke-dasharray="" d="  M182,58.87 L181.07,325.69" style="stroke: rgb(0, 0, 0); stroke-width: 1; fill: none; fill-opacity: 1;"/></g><g class="arrow-line"><path class="connection real" stroke-dasharray="" d="  M181.07,325.69 L259.54,325.14" style="stroke: rgb(0, 0, 0); stroke-width: 1; fill: none; fill-opacity: 1;"/><g stroke="#000" transform="matrix(-0.9999756307053947,0.006981260297961486,-0.006981260297961486,-0.9999756307053947,261.54028839829215,325.12641235061096)" style="stroke: rgb(0, 0, 0); stroke-width: 1;"><path d=" M10.93,-3.29 Q4.96,-0.45 0,0 Q4.96,0.45 10.93,3.29"/></g></g><g class="composite-shape"><path class="real" d=" M245.5,366.53 C245.5,364.46 247.18,362.78 249.25,362.78 L328.75,362.78 C330.82,362.78 332.5,364.46 332.5,366.53 L332.5,377.79 C332.5,379.86 330.82,381.54 328.75,381.54 L249.25,381.54 C247.18,381.54 245.5,379.86 245.5,377.79 Z" style="stroke-width: 1; stroke: rgb(0, 0, 0); fill: rgb(208, 2, 27); fill-opacity: 0.65;"/></g><g class="arrow-line"><path class="connection real" stroke-dasharray="" d="  M287.6,333.73 L287.54,358.1" style="stroke: rgb(0, 0, 0); stroke-width: 1; fill: none; fill-opacity: 1;"/><g stroke="#000" transform="matrix(0.0020943935712190603,-0.9999978067553793,0.9999978067553793,0.0020943935712190603,287.5387575696145,360.101250429327)" style="stroke: rgb(0, 0, 0); stroke-width: 1;"><path d=" M10.93,-3.29 Q4.96,-0.45 0,0 Q4.96,0.45 10.93,3.29"/></g></g><g class="composite-shape"><path class="real" d=" M260.92,414.48 C260.92,412.41 262.6,410.73 264.67,410.73 L372.31,410.73 C374.38,410.73 376.06,412.41 376.06,414.48 L376.06,425.74 C376.06,427.81 374.38,429.49 372.31,429.49 L264.67,429.49 C262.6,429.49 260.92,427.81 260.92,425.74 Z" style="stroke-width: 1; stroke: rgb(0, 0, 0); fill: rgb(184, 233, 134); fill-opacity: 0.8;"/></g><g class="arrow-line"><path class="connection real" stroke-dasharray="" d="  M287.6,381.68 L287.54,406.05" style="stroke: rgb(0, 0, 0); stroke-width: 1; fill: none; fill-opacity: 1;"/><g stroke="#000" transform="matrix(0.0020943935712190603,-0.9999978067553793,0.9999978067553793,0.0020943935712190603,287.5387575696145,408.05062521466357)" style="stroke: rgb(0, 0, 0); stroke-width: 1;"><path d=" M10.93,-3.29 Q4.96,-0.45 0,0 Q4.96,0.45 10.93,3.29"/></g></g><g class="arrow-line"><path class="connection real" stroke-dasharray="" d="  M352.5,188.99 L353.76,408.31" style="stroke: rgb(0, 0, 0); stroke-width: 1; fill: none; fill-opacity: 1;"/><g stroke="#000" transform="matrix(-0.005759554687996382,-0.9999834136273441,0.9999834136273441,-0.005759554687996382,353.7729528394119,410.3070663810323)" style="stroke: rgb(0, 0, 0); stroke-width: 1;"><path d=" M10.93,-3.29 Q4.96,-0.45 0,0 Q4.96,0.45 10.93,3.29"/></g></g><g class="composite-shape"><path class="real" d=" M273.3,38.8 C273.3,36.41 275.24,34.47 277.63,34.47 L283.21,34.47 C285.6,34.47 287.54,36.41 287.54,38.8 L287.54,51.15 C287.54,53.54 285.6,55.48 283.21,55.48 L277.63,55.48 C275.24,55.48 273.3,53.54 273.3,51.15 Z" style="stroke-width: 1; stroke: rgb(0, 0, 0); fill: rgb(248, 231, 28); fill-opacity: 0.7;"/></g><g class="composite-shape"><path class="real" d=" M299.92,38.8 C299.92,36.41 301.86,34.47 304.25,34.47 L309.82,34.47 C312.22,34.47 314.16,36.41 314.16,38.8 L314.16,51.15 C314.16,53.54 312.22,55.48 309.82,55.48 L304.25,55.48 C301.86,55.48 299.92,53.54 299.92,51.15 Z" style="stroke-width: 1; stroke: rgb(0, 0, 0); fill: rgb(208, 2, 27); fill-opacity: 0.45;"/></g><g class="composite-shape"><path class="real" d=" M348.2,38.24 C348.2,35.85 350.14,33.91 352.53,33.91 L358.11,33.91 C360.5,33.91 362.44,35.85 362.44,38.24 L362.44,50.58 C362.44,52.98 360.5,54.92 358.11,54.92 L352.53,54.92 C350.14,54.92 348.2,52.98 348.2,50.58 Z" style="stroke-width: 1; stroke: rgb(0, 0, 0); fill: rgb(139, 87, 42); fill-opacity: 0.35;"/></g><g class="arrow-line"><path class="connection real" stroke-dasharray="" d="  M313.54,59.58 L312.95,100.87" style="stroke: rgb(0, 0, 0); stroke-width: 1; fill: none; fill-opacity: 1;"/><g stroke="#000" transform="matrix(0.014311211306291627,-0.999897589371505,0.999897589371505,0.014311211306291627,312.918215570191,102.86695746328638)" style="stroke: rgb(0, 0, 0); stroke-width: 1;"><path d=" M10.93,-3.29 Q4.96,-0.45 0,0 Q4.96,0.45 10.93,3.29"/></g></g><g class="arrow-line"><path class="connection real" stroke-dasharray="" d="  M317.93,429.63 L317.87,454" style="stroke: rgb(0, 0, 0); stroke-width: 1; fill: none; fill-opacity: 1;"/><g stroke="#000" transform="matrix(0.0020943935712190603,-0.9999978067553793,0.9999978067553793,0.0020943935712190603,317.87030493615725,456)" style="stroke: rgb(0, 0, 0); stroke-width: 1;"><path d=" M10.93,-3.29 Q4.96,-0.45 0,0 Q4.96,0.45 10.93,3.29"/></g></g><g/></g><g/><g/><g/></svg>
        <svg xmlns="http://www.w3.org/2000/svg" xmlns:xlink="http://www.w3.org/1999/xlink" width="560" height="466.328125" style="width:560px;height:466.328125px;font-family:Asana-Math, Asana;background:transparent;"><g><g><g><g transform="matrix(1,0,0,1,156.984375,27.115625)"><path transform="matrix(0.0216,0,0,-0.0216,0,0)" d="M37 0C72 1 121 3 154 3C187 3 236 1 271 0L271 31C168 31 168 78 168 105L168 644L169 644L410 22C415 9 420 0 430 0C441 0 444 8 448 19L694 652L695 652L695 78C695 42 693 31 616 31L592 31L592 0C629 3 697 3 736 3C775 3 842 3 879 0L879 31L855 31C778 31 776 42 776 78L776 605C776 641 778 652 855 652L879 652L879 683L710 683C684 683 684 682 677 664L458 101L241 661C232 683 229 683 206 683L37 683L37 652L61 652C138 652 140 641 140 605L140 105C140 78 140 31 37 31ZM958 95C958 14 1055 -11 1118 -11C1184 -11 1230 29 1249 76C1253 36 1280 -6 1327 -6C1348 -6 1409 8 1409 89L1409 145L1384 145L1384 89C1384 31 1359 25 1348 25C1315 25 1311 70 1311 75L1311 275C1311 317 1311 356 1275 393C1236 432 1186 448 1138 448C1056 448 987 401 987 335C987 305 1007 288 1033 288C1061 288 1079 308 1079 334C1079 346 1074 379 1028 380C1055 415 1104 426 1136 426C1185 426 1242 387 1242 298L1242 261C1191 258 1121 255 1058 225C983 191 958 139 958 95ZM1035 96C1035 151 1077 234 1242 240L1242 140C1242 45 1170 11 1125 11C1076 11 1035 46 1035 96ZM1449 13C1449 -4 1449 -11 1460 -11C1465 -11 1466 -10 1485 9C1487 11 1487 13 1505 32C1549 -10 1594 -11 1615 -11C1730 -11 1776 56 1776 128C1776 181 1746 211 1734 223C1701 255 1662 263 1620 271C1564 282 1497 295 1497 353C1497 388 1523 429 1609 429C1719 429 1724 339 1726 308C1727 299 1736 299 1738 299C1751 299 1751 304 1751 323L1751 424C1751 441 1751 448 1740 448C1735 448 1733 448 1720 436C1717 432 1707 423 1703 420C1665 448 1624 448 1609 448C1487 448 1449 381 1449 325C1449 290 1465 262 1492 240C1524 214 1552 208 1624 194C1646 190 1728 174 1728 102C1728 51 1693 11 1615 11C1531 11 1495 68 1476 153C1473 166 1472 170 1462 170C1449 170 1449 163 1449 145ZM1838 0C1871 1 1918 3 1947 3C1977 3 2017 2 2057 0L2057 31C1990 31 1979 31 1979 76L1979 179L2043 234C2120 128 2162 72 2162 54C2162 35 2145 31 2126 31L2126 0C2154 1 2213 3 2234 3C2263 3 2292 2 2321 0L2321 31C2284 31 2262 31 2224 84L2097 263C2096 265 2091 271 2091 274C2091 278 2162 338 2172 346C2235 397 2277 399 2298 400L2298 431C2269 428 2256 428 2228 428C2192 428 2130 430 2116 431L2116 400C2135 399 2145 388 2145 375C2145 355 2131 343 2123 336L1982 214L1982 694L1838 683L1838 652C1908 652 1916 645 1916 596L1916 76C1916 31 1905 31 1838 31Z" stroke="rgb(0,0,0)" stroke-opacity="1" stroke-width="8" fill="rgb(0,0,0)" fill-opacity="1"></path></g></g></g></g><g><g><g><g transform="matrix(1,0,0,1,275.5390625,26.06875)"><path transform="matrix(0.0216,0,0,-0.0216,0,0)" d="M28 0C63 3 142 3 180 3C219 3 298 3 333 0L333 31L307 31C228 31 225 42 225 78L225 605C225 641 228 652 307 652L333 652L333 683C298 680 219 680 181 680C142 680 63 680 28 683L28 652L54 652C133 652 136 641 136 605L136 78C136 42 133 31 54 31L28 31ZM393 0C428 1 479 3 506 3C532 3 584 1 618 0L618 31C551 31 540 31 540 76L540 260C540 364 611 420 675 420C738 420 749 366 749 309L749 76C749 31 738 31 671 31L671 0C706 1 757 3 784 3C810 3 862 1 896 0L896 31C844 31 819 31 818 61L818 252C818 338 818 369 787 405C773 422 740 442 682 442C609 442 562 399 534 337L534 442L393 431L393 400C463 400 471 393 471 344L471 76C471 31 460 31 393 31ZM944 -163L944 -194C978 -193 1030 -191 1056 -191C1083 -191 1134 -193 1169 -194L1169 -163C1102 -163 1091 -163 1091 -118L1091 50L1091 59C1096 43 1138 -11 1214 -11C1333 -11 1437 87 1437 216C1437 343 1340 442 1228 442C1150 442 1108 398 1088 376L1088 442L944 431L944 400C1015 400 1022 394 1022 350L1022 -118C1022 -163 1011 -163 944 -163ZM1091 114L1091 337C1120 388 1169 417 1220 417C1293 417 1354 329 1354 216C1354 95 1284 11 1210 11C1170 11 1132 31 1105 72C1091 93 1091 94 1091 114ZM1503 400C1581 400 1581 397 1581 308L1581 158C1581 80 1581 -11 1733 -11C1789 -11 1833 17 1862 79L1862 -11L2006 0L2006 31C1936 31 1928 38 1928 87L1928 442L1781 431L1781 400C1851 400 1859 393 1859 344L1859 166C1859 79 1811 11 1738 11C1654 11 1650 58 1650 110L1650 442L1503 431ZM2045 400L2130 400L2130 124C2130 1 2223 -11 2259 -11C2330 -11 2358 60 2358 124L2358 181L2333 181L2333 126C2333 52 2303 14 2266 14C2199 14 2199 105 2199 122L2199 400L2342 400L2342 431L2199 431L2199 615L2174 615C2173 533 2143 426 2045 422ZM2780 13C2780 -4 2780 -11 2791 -11C2796 -11 2797 -10 2816 9C2818 11 2818 13 2836 32C2880 -10 2925 -11 2946 -11C3061 -11 3107 56 3107 128C3107 181 3077 211 3065 223C3032 255 2993 263 2951 271C2895 282 2828 295 2828 353C2828 388 2854 429 2940 429C3050 429 3055 339 3057 308C3058 299 3067 299 3069 299C3082 299 3082 304 3082 323L3082 424C3082 441 3082 448 3071 448C3066 448 3064 448 3051 436C3048 432 3038 423 3034 420C2996 448 2955 448 2940 448C2818 448 2780 381 2780 325C2780 290 2796 262 2823 240C2855 214 2883 208 2955 194C2977 190 3059 174 3059 102C3059 51 3024 11 2946 11C2862 11 2826 68 2807 153C2804 166 2803 170 2793 170C2780 170 2780 163 2780 145ZM3169 220C3169 86 3274 -11 3389 -11C3511 -11 3556 100 3556 119C3556 129 3548 131 3543 131C3534 131 3532 125 3530 117C3495 14 3405 14 3395 14C3345 14 3305 44 3282 81C3252 129 3252 195 3252 231L3531 231C3553 231 3556 231 3556 252C3556 351 3502 448 3377 448C3261 448 3169 345 3169 220ZM3253 252C3259 401 3343 426 3377 426C3480 426 3490 291 3490 252ZM3604 400L3689 400L3689 124C3689 1 3782 -11 3818 -11C3889 -11 3917 60 3917 124L3917 181L3892 181L3892 126C3892 52 3862 14 3825 14C3758 14 3758 105 3758 122L3758 400L3901 400L3901 431L3758 431L3758 615L3733 615C3732 533 3702 426 3604 422Z" stroke="rgb(0,0,0)" stroke-opacity="1" stroke-width="8" fill="rgb(0,0,0)" fill-opacity="1"></path></g></g></g></g><g><g><g><g transform="matrix(1,0,0,1,263,185.81875)"><path transform="matrix(0.0216,0,0,-0.0216,0,0)" d="M56 339C56 137 207 -22 389 -22C420 -22 455 -16 484 -7C499 -102 513 -194 606 -194C708 -194 727 -61 727 -10C727 0 727 11 716 11C707 11 706 3 705 -7C699 -61 657 -91 614 -91C567 -91 542 -57 518 7C636 60 721 188 721 339C721 543 570 705 388 705C209 705 56 545 56 339ZM156 339C156 599 296 680 388 680C485 680 621 594 621 339C621 261 609 120 503 42C481 98 449 148 390 148C339 148 308 105 308 64C308 37 321 18 322 16C268 36 156 109 156 339ZM330 64C330 93 351 126 390 126C444 126 466 84 477 26C443 7 411 3 389 3C338 3 330 49 330 64Z" stroke="rgb(0,0,0)" stroke-opacity="1" stroke-width="8" fill="rgb(0,0,0)" fill-opacity="1"></path></g></g></g></g><g><g><g><g transform="matrix(1,0,0,1,305.640625,185.81875)"><path transform="matrix(0.0216,0,0,-0.0216,0,0)" d="M33 0C68 3 142 3 180 3C218 3 293 3 328 0L328 31L304 31C227 31 225 42 225 78L225 253L341 363L522 95C528 86 537 73 537 61C537 31 498 31 478 31L478 0C513 3 583 3 621 3C656 3 694 2 736 0L736 31C682 31 661 35 631 79L400 419L580 592C588 600 641 651 722 652L722 683C696 680 664 680 637 680C601 680 544 680 510 683L510 652C550 651 556 628 556 619C556 603 546 593 538 586L225 287L225 605C225 641 227 652 304 652L328 652L328 683C293 680 219 680 181 680C143 680 68 680 33 683L33 652L57 652C134 652 136 641 136 605L136 78C136 42 134 31 57 31L33 31Z" stroke="rgb(0,0,0)" stroke-opacity="1" stroke-width="8" fill="rgb(0,0,0)" fill-opacity="1"></path></g></g></g></g><g><g><g><g transform="matrix(1,0,0,1,346.1328125,185.81875)"><path transform="matrix(0.0216,0,0,-0.0216,0,0)" d="M19 652C84 652 103 652 117 614L349 0C356 -19 361 -22 374 -22C391 -22 393 -17 398 -3L621 585C635 622 662 651 730 652L730 683C699 681 659 680 633 680C603 680 545 682 519 683L519 652C571 651 592 625 592 602C592 594 589 588 587 582L404 100L213 605C207 619 207 621 207 623C207 652 264 652 289 652L289 683C253 680 184 680 146 680C98 680 55 682 19 683Z" stroke="rgb(0,0,0)" stroke-opacity="1" stroke-width="8" fill="rgb(0,0,0)" fill-opacity="1"></path></g></g></g></g><g><g><g><g transform="matrix(1,0,0,1,253.2578125,57.85)"><path transform="matrix(0.03735,0,0,-0.03735,0,0)" d="M73 250C73 237 91 239 105 237C127 234 214 212 214 117L214 -102C214 -112 214 -121 215 -131C225 -215 325 -250 408 -250C417 -250 425 -247 425 -239C425 -227 409 -227 401 -226C338 -219 295 -180 286 -137C284 -125 284 -113 284 -101L284 121C284 147 277 222 165 250C287 281 284 363 284 385L284 610C284 633 289 694 369 720C398 729 425 723 425 739C425 744 421 750 407 750C358 750 279 734 239 686C219 662 214 641 214 604L214 386C214 376 214 367 212 357C203 305 155 274 111 265C86 260 73 264 73 250Z" stroke="rgb(0,0,0)" stroke-opacity="1" stroke-width="8" fill="rgb(0,0,0)" fill-opacity="1"></path></g></g></g></g><g><g><g><g transform="matrix(1,0,0,1,362.8203125,56.725)"><path transform="matrix(0.03735,0,0,-0.03735,0,0)" d="M73 -239C73 -244 75 -250 91 -250C127 -250 190 -242 236 -208C285 -172 284 -130 284 -104L284 114C284 124 284 133 286 143C295 195 342 226 386 235C410 240 425 236 425 250C425 262 407 261 393 263C370 267 284 287 284 383L284 602C284 612 284 621 283 631C273 715 173 750 90 750C81 750 73 746 73 738C73 726 89 727 97 726C160 719 203 680 212 637C214 625 214 613 214 601L214 378C214 352 221 278 333 250C210 219 214 138 214 115L214 -110C214 -133 209 -194 129 -220C97 -230 73 -224 73 -239Z" stroke="rgb(0,0,0)" stroke-opacity="1" stroke-width="8" fill="rgb(0,0,0)" fill-opacity="1"></path></g></g></g></g><g><g><g><g transform="matrix(1,0,0,1,317.8359375,53.896875)"><path transform="matrix(0.03735,0,0,-0.03735,0,0)" d="M85 53C85 26 107 0 138 0C164 0 190 22 190 53C190 84 166 105 138 105C107 105 85 80 85 53ZM363 53C363 26 385 0 416 0C442 0 468 22 468 53C468 84 444 105 416 105C385 105 363 80 363 53ZM641 53C641 26 663 0 694 0C720 0 746 22 746 53C746 84 722 105 694 105C663 105 641 80 641 53Z" stroke="rgb(0,0,0)" stroke-opacity="1" stroke-width="8" fill="rgb(0,0,0)" fill-opacity="1"></path></g></g></g></g><g><g><g><g transform="matrix(1,0,0,1,289.65625,58.4125)"><path transform="matrix(0.03735,0,0,-0.03735,0,0)" d="M86 53C86 27 103 0 139 0C155 0 167 6 177 14L179 16C180 16 181 15 181 1C181 -63 153 -124 109 -171C103 -177 102 -178 102 -182C102 -189 107 -193 112 -193C124 -193 203 -114 203 1C203 65 179 106 139 106C104 106 86 79 86 53Z" stroke="rgb(0,0,0)" stroke-opacity="1" stroke-width="8" fill="rgb(0,0,0)" fill-opacity="1"></path></g></g></g></g><g><g><g><g transform="matrix(1,0,0,1,223.265625,129.6275)"><path transform="matrix(0.019440000000000002,0,0,-0.019440000000000002,0,0)" d="M36 452L61 452C75 613 90 646 241 646C259 646 285 646 295 644C316 640 316 629 316 606L316 79C316 45 316 31 211 31L171 31L171 0C212 3 314 3 360 3C406 3 509 3 550 0L550 31L510 31C405 31 405 45 405 79L405 606C405 626 405 640 423 644C434 646 461 646 480 646C631 646 646 613 660 452L685 452L666 677L55 677ZM667 214C667 85 771 -11 888 -11C1009 -11 1110 87 1110 214C1110 342 1010 448 889 448C764 448 667 339 667 214ZM750 222C750 261 750 315 774 359C801 405 848 426 888 426C932 426 975 404 1001 361C1027 318 1027 260 1027 222C1027 186 1027 132 1005 88C983 43 939 14 889 14C846 14 802 35 775 81C750 125 750 186 750 222ZM1528 339C1528 137 1679 -22 1861 -22C1892 -22 1927 -16 1956 -7C1971 -102 1985 -194 2078 -194C2180 -194 2199 -61 2199 -10C2199 0 2199 11 2188 11C2179 11 2178 3 2177 -7C2171 -61 2129 -91 2086 -91C2039 -91 2014 -57 1990 7C2108 60 2193 188 2193 339C2193 543 2042 705 1860 705C1681 705 1528 545 1528 339ZM1628 339C1628 599 1768 680 1860 680C1957 680 2093 594 2093 339C2093 261 2081 120 1975 42C1953 98 1921 148 1862 148C1811 148 1780 105 1780 64C1780 37 1793 18 1794 16C1740 36 1628 109 1628 339ZM1802 64C1802 93 1823 126 1862 126C1916 126 1938 84 1949 26C1915 7 1883 3 1861 3C1810 3 1802 49 1802 64ZM2281 400C2359 400 2359 397 2359 308L2359 158C2359 80 2359 -11 2511 -11C2567 -11 2611 17 2640 79L2640 -11L2784 0L2784 31C2714 31 2706 38 2706 87L2706 442L2559 431L2559 400C2629 400 2637 393 2637 344L2637 166C2637 79 2589 11 2516 11C2432 11 2428 58 2428 110L2428 442L2281 431ZM2832 220C2832 86 2937 -11 3052 -11C3174 -11 3219 100 3219 119C3219 129 3211 131 3206 131C3197 131 3195 125 3193 117C3158 14 3068 14 3058 14C3008 14 2968 44 2945 81C2915 129 2915 195 2915 231L3194 231C3216 231 3219 231 3219 252C3219 351 3165 448 3040 448C2924 448 2832 345 2832 220ZM2916 252C2922 401 3006 426 3040 426C3143 426 3153 291 3153 252ZM3276 0C3315 1 3362 3 3390 3C3430 3 3477 3 3517 0L3517 31L3496 31C3422 31 3420 42 3420 78L3420 232C3420 331 3462 420 3538 420C3545 420 3547 420 3549 419C3546 418 3526 406 3526 380C3526 352 3547 337 3569 337C3587 337 3612 349 3612 381C3612 413 3581 442 3538 442C3465 442 3429 375 3415 332L3415 442L3276 431L3276 400C3346 400 3354 393 3354 344L3354 76C3354 31 3343 31 3276 31ZM3658 -124C3658 -169 3700 -205 3750 -205C3813 -205 3854 -148 3878 -91L4054 336C4080 399 4131 400 4147 400L4147 431C4124 429 4095 428 4072 428C4054 428 4007 430 3985 431L3985 400C4016 399 4032 382 4032 357C4032 347 4031 345 4026 333L3925 87L3814 356C3810 366 3808 370 3808 374C3808 400 3845 400 3864 400L3864 431C3838 430 3772 428 3755 428C3728 428 3688 429 3658 431L3658 400C3706 400 3725 400 3739 365L3889 0C3884 -13 3870 -46 3864 -59C3842 -114 3814 -183 3750 -183C3745 -183 3722 -183 3703 -165C3734 -161 3742 -139 3742 -123C3742 -97 3723 -81 3700 -81C3680 -81 3658 -94 3658 -124ZM4169 53C4169 27 4186 0 4222 0C4238 0 4250 6 4260 14L4262 16C4263 16 4264 15 4264 1C4264 -63 4236 -124 4192 -171C4186 -177 4185 -178 4185 -182C4185 -189 4190 -193 4195 -193C4207 -193 4286 -114 4286 1C4286 65 4262 106 4222 106C4187 106 4169 79 4169 53ZM4726 0C4761 3 4835 3 4873 3C4911 3 4986 3 5021 0L5021 31L4997 31C4920 31 4918 42 4918 78L4918 253L5034 363L5215 95C5221 86 5230 73 5230 61C5230 31 5191 31 5171 31L5171 0C5206 3 5276 3 5314 3C5349 3 5387 2 5429 0L5429 31C5375 31 5354 35 5324 79L5093 419L5273 592C5281 600 5334 651 5415 652L5415 683C5389 680 5357 680 5330 680C5294 680 5237 680 5203 683L5203 652C5243 651 5249 628 5249 619C5249 603 5239 593 5231 586L4918 287L4918 605C4918 641 4920 652 4997 652L5021 652L5021 683C4986 680 4912 680 4874 680C4836 680 4761 680 4726 683L4726 652L4750 652C4827 652 4829 641 4829 605L4829 78C4829 42 4827 31 4750 31L4726 31ZM5498 220C5498 86 5603 -11 5718 -11C5840 -11 5885 100 5885 119C5885 129 5877 131 5872 131C5863 131 5861 125 5859 117C5824 14 5734 14 5724 14C5674 14 5634 44 5611 81C5581 129 5581 195 5581 231L5860 231C5882 231 5885 231 5885 252C5885 351 5831 448 5706 448C5590 448 5498 345 5498 220ZM5582 252C5588 401 5672 426 5706 426C5809 426 5819 291 5819 252ZM5933 -124C5933 -169 5975 -205 6025 -205C6088 -205 6129 -148 6153 -91L6329 336C6355 399 6406 400 6422 400L6422 431C6399 429 6370 428 6347 428C6329 428 6282 430 6260 431L6260 400C6291 399 6307 382 6307 357C6307 347 6306 345 6301 333L6200 87L6089 356C6085 366 6083 370 6083 374C6083 400 6120 400 6139 400L6139 431C6113 430 6047 428 6030 428C6003 428 5963 429 5933 431L5933 400C5981 400 6000 400 6014 365L6164 0C6159 -13 6145 -46 6139 -59C6117 -114 6089 -183 6025 -183C6020 -183 5997 -183 5978 -165C6009 -161 6017 -139 6017 -123C6017 -97 5998 -81 5975 -81C5955 -81 5933 -94 5933 -124ZM6444 53C6444 27 6461 0 6497 0C6513 0 6525 6 6535 14L6537 16C6538 16 6539 15 6539 1C6539 -63 6511 -124 6467 -171C6461 -177 6460 -178 6460 -182C6460 -189 6465 -193 6470 -193C6482 -193 6561 -114 6561 1C6561 65 6537 106 6497 106C6462 106 6444 79 6444 53ZM6987 652C7052 652 7071 652 7085 614L7317 0C7324 -19 7329 -22 7342 -22C7359 -22 7361 -17 7366 -3L7589 585C7603 622 7630 651 7698 652L7698 683C7667 681 7627 680 7601 680C7571 680 7513 682 7487 683L7487 652C7539 651 7560 625 7560 602C7560 594 7557 588 7555 582L7372 100L7181 605C7175 619 7175 621 7175 623C7175 652 7232 652 7257 652L7257 683C7221 680 7152 680 7114 680C7066 680 7023 682 6987 683ZM7677 95C7677 14 7774 -11 7837 -11C7903 -11 7949 29 7968 76C7972 36 7999 -6 8046 -6C8067 -6 8128 8 8128 89L8128 145L8103 145L8103 89C8103 31 8078 25 8067 25C8034 25 8030 70 8030 75L8030 275C8030 317 8030 356 7994 393C7955 432 7905 448 7857 448C7775 448 7706 401 7706 335C7706 305 7726 288 7752 288C7780 288 7798 308 7798 334C7798 346 7793 379 7747 380C7774 415 7823 426 7855 426C7904 426 7961 387 7961 298L7961 261C7910 258 7840 255 7777 225C7702 191 7677 139 7677 95ZM7754 96C7754 151 7796 234 7961 240L7961 140C7961 45 7889 11 7844 11C7795 11 7754 46 7754 96ZM8168 0C8201 1 8254 3 8279 3C8304 3 8353 1 8390 0L8390 31C8323 31 8312 31 8312 76L8312 694L8168 683L8168 652C8238 652 8246 645 8246 596L8246 76C8246 31 8235 31 8168 31ZM8444 400C8522 400 8522 397 8522 308L8522 158C8522 80 8522 -11 8674 -11C8730 -11 8774 17 8803 79L8803 -11L8947 0L8947 31C8877 31 8869 38 8869 87L8869 442L8722 431L8722 400C8792 400 8800 393 8800 344L8800 166C8800 79 8752 11 8679 11C8595 11 8591 58 8591 110L8591 442L8444 431ZM8995 220C8995 86 9100 -11 9215 -11C9337 -11 9382 100 9382 119C9382 129 9374 131 9369 131C9360 131 9358 125 9356 117C9321 14 9231 14 9221 14C9171 14 9131 44 9108 81C9078 129 9078 195 9078 231L9357 231C9379 231 9382 231 9382 252C9382 351 9328 448 9203 448C9087 448 8995 345 8995 220ZM9079 252C9085 401 9169 426 9203 426C9306 426 9316 291 9316 252Z" stroke="rgb(0,0,0)" stroke-opacity="1" stroke-width="8" fill="rgb(0,0,0)" fill-opacity="1"></path></g></g></g></g><g><g><g><g transform="matrix(1,0,0,1,258.2109375,235.049375)"><path transform="matrix(0.019440000000000002,0,0,-0.019440000000000002,0,0)" d="M37 0C72 1 121 3 154 3C187 3 236 1 271 0L271 31C168 31 168 78 168 105L168 644L169 644L410 22C415 9 420 0 430 0C441 0 444 8 448 19L694 652L695 652L695 78C695 42 693 31 616 31L592 31L592 0C629 3 697 3 736 3C775 3 842 3 879 0L879 31L855 31C778 31 776 42 776 78L776 605C776 641 778 652 855 652L879 652L879 683L710 683C684 683 684 682 677 664L458 101L241 661C232 683 229 683 206 683L37 683L37 652L61 652C138 652 140 641 140 605L140 105C140 78 140 31 37 31ZM958 95C958 14 1055 -11 1118 -11C1184 -11 1230 29 1249 76C1253 36 1280 -6 1327 -6C1348 -6 1409 8 1409 89L1409 145L1384 145L1384 89C1384 31 1359 25 1348 25C1315 25 1311 70 1311 75L1311 275C1311 317 1311 356 1275 393C1236 432 1186 448 1138 448C1056 448 987 401 987 335C987 305 1007 288 1033 288C1061 288 1079 308 1079 334C1079 346 1074 379 1028 380C1055 415 1104 426 1136 426C1185 426 1242 387 1242 298L1242 261C1191 258 1121 255 1058 225C983 191 958 139 958 95ZM1035 96C1035 151 1077 234 1242 240L1242 140C1242 45 1170 11 1125 11C1076 11 1035 46 1035 96ZM1435 400L1520 400L1520 124C1520 1 1613 -11 1649 -11C1720 -11 1748 60 1748 124L1748 181L1723 181L1723 126C1723 52 1693 14 1656 14C1589 14 1589 105 1589 122L1589 400L1732 400L1732 431L1589 431L1589 615L1564 615C1563 533 1533 426 1435 422ZM1836 0C1871 1 1922 3 1949 3C1975 3 2027 1 2061 0L2061 31C1994 31 1983 31 1983 76L1983 260C1983 364 2054 420 2118 420C2181 420 2192 366 2192 309L2192 76C2192 31 2181 31 2114 31L2114 0C2149 1 2200 3 2227 3C2253 3 2305 1 2339 0L2339 31C2272 31 2261 31 2261 76L2261 260C2261 364 2332 420 2396 420C2459 420 2470 366 2470 309L2470 76C2470 31 2459 31 2392 31L2392 0C2427 1 2478 3 2505 3C2531 3 2583 1 2617 0L2617 31C2565 31 2540 31 2539 61L2539 252C2539 338 2539 369 2508 405C2494 422 2461 442 2403 442C2319 442 2275 382 2258 344C2244 431 2170 442 2125 442C2052 442 2005 399 1977 337L1977 442L1836 431L1836 400C1906 400 1914 393 1914 344L1914 76C1914 31 1903 31 1836 31ZM2641 400C2719 400 2719 397 2719 308L2719 158C2719 80 2719 -11 2871 -11C2927 -11 2971 17 3000 79L3000 -11L3144 0L3144 31C3074 31 3066 38 3066 87L3066 442L2919 431L2919 400C2989 400 2997 393 2997 344L2997 166C2997 79 2949 11 2876 11C2792 11 2788 58 2788 110L2788 442L2641 431ZM3197 0C3230 1 3283 3 3308 3C3333 3 3382 1 3419 0L3419 31C3352 31 3341 31 3341 76L3341 694L3197 683L3197 652C3267 652 3275 645 3275 596L3275 76C3275 31 3264 31 3197 31Z" stroke="rgb(0,0,0)" stroke-opacity="1" stroke-width="8" fill="rgb(0,0,0)" fill-opacity="1"></path></g></g></g></g><g><g><g><g transform="matrix(1,0,0,1,266.125,283.34625)"><path transform="matrix(0.019440000000000002,0,0,-0.019440000000000002,0,0)" d="M56 2C56 -15 56 -22 67 -22C74 -22 75 -20 82 -9C82 -8 85 -5 118 48C149 14 213 -22 302 -22C419 -22 499 76 499 186C499 286 433 368 349 388L221 419C159 434 120 488 120 546C120 616 174 677 252 677C419 677 441 513 447 468C448 462 448 456 459 456C472 456 472 461 472 480L472 681C472 698 472 705 461 705C454 705 453 704 446 692L411 635C381 664 340 705 251 705C140 705 56 617 56 511C56 428 109 355 187 328C198 324 249 312 319 295C346 288 376 281 404 244C425 218 435 185 435 152C435 81 385 9 301 9C272 9 196 14 143 63C85 117 82 181 81 217C80 227 72 227 69 227C56 227 56 220 56 202ZM589 216C589 88 688 -11 804 -11C938 -11 970 109 970 119C970 129 960 129 957 129C948 129 946 125 944 119C915 26 850 14 813 14C760 14 672 57 672 218C672 381 754 423 807 423C816 423 879 422 914 386C873 383 867 353 867 340C867 314 885 294 913 294C939 294 959 311 959 341C959 409 883 448 806 448C681 448 589 340 589 216ZM1041 95C1041 14 1138 -11 1201 -11C1267 -11 1313 29 1332 76C1336 36 1363 -6 1410 -6C1431 -6 1492 8 1492 89L1492 145L1467 145L1467 89C1467 31 1442 25 1431 25C1398 25 1394 70 1394 75L1394 275C1394 317 1394 356 1358 393C1319 432 1269 448 1221 448C1139 448 1070 401 1070 335C1070 305 1090 288 1116 288C1144 288 1162 308 1162 334C1162 346 1157 379 1111 380C1138 415 1187 426 1219 426C1268 426 1325 387 1325 298L1325 261C1274 258 1204 255 1141 225C1066 191 1041 139 1041 95ZM1118 96C1118 151 1160 234 1325 240L1325 140C1325 45 1253 11 1208 11C1159 11 1118 46 1118 96ZM1532 0C1565 1 1618 3 1643 3C1668 3 1717 1 1754 0L1754 31C1687 31 1676 31 1676 76L1676 694L1532 683L1532 652C1602 652 1610 645 1610 596L1610 76C1610 31 1599 31 1532 31ZM1804 220C1804 86 1909 -11 2024 -11C2146 -11 2191 100 2191 119C2191 129 2183 131 2178 131C2169 131 2167 125 2165 117C2130 14 2040 14 2030 14C1980 14 1940 44 1917 81C1887 129 1887 195 1887 231L2166 231C2188 231 2191 231 2191 252C2191 351 2137 448 2012 448C1896 448 1804 345 1804 220ZM1888 252C1894 401 1978 426 2012 426C2115 426 2125 291 2125 252Z" stroke="rgb(0,0,0)" stroke-opacity="1" stroke-width="8" fill="rgb(0,0,0)" fill-opacity="1"></path></g></g></g></g><g><g><g><g transform="matrix(1,0,0,1,265.75,330.15875)"><path transform="matrix(0.019440000000000002,0,0,-0.019440000000000002,0,0)" d="M37 0C72 1 121 3 154 3C187 3 236 1 271 0L271 31C168 31 168 78 168 105L168 644L169 644L410 22C415 9 420 0 430 0C441 0 444 8 448 19L694 652L695 652L695 78C695 42 693 31 616 31L592 31L592 0C629 3 697 3 736 3C775 3 842 3 879 0L879 31L855 31C778 31 776 42 776 78L776 605C776 641 778 652 855 652L879 652L879 683L710 683C684 683 684 682 677 664L458 101L241 661C232 683 229 683 206 683L37 683L37 652L61 652C138 652 140 641 140 605L140 105C140 78 140 31 37 31ZM958 95C958 14 1055 -11 1118 -11C1184 -11 1230 29 1249 76C1253 36 1280 -6 1327 -6C1348 -6 1409 8 1409 89L1409 145L1384 145L1384 89C1384 31 1359 25 1348 25C1315 25 1311 70 1311 75L1311 275C1311 317 1311 356 1275 393C1236 432 1186 448 1138 448C1056 448 987 401 987 335C987 305 1007 288 1033 288C1061 288 1079 308 1079 334C1079 346 1074 379 1028 380C1055 415 1104 426 1136 426C1185 426 1242 387 1242 298L1242 261C1191 258 1121 255 1058 225C983 191 958 139 958 95ZM1035 96C1035 151 1077 234 1242 240L1242 140C1242 45 1170 11 1125 11C1076 11 1035 46 1035 96ZM1449 13C1449 -4 1449 -11 1460 -11C1465 -11 1466 -10 1485 9C1487 11 1487 13 1505 32C1549 -10 1594 -11 1615 -11C1730 -11 1776 56 1776 128C1776 181 1746 211 1734 223C1701 255 1662 263 1620 271C1564 282 1497 295 1497 353C1497 388 1523 429 1609 429C1719 429 1724 339 1726 308C1727 299 1736 299 1738 299C1751 299 1751 304 1751 323L1751 424C1751 441 1751 448 1740 448C1735 448 1733 448 1720 436C1717 432 1707 423 1703 420C1665 448 1624 448 1609 448C1487 448 1449 381 1449 325C1449 290 1465 262 1492 240C1524 214 1552 208 1624 194C1646 190 1728 174 1728 102C1728 51 1693 11 1615 11C1531 11 1495 68 1476 153C1473 166 1472 170 1462 170C1449 170 1449 163 1449 145ZM1838 0C1871 1 1918 3 1947 3C1977 3 2017 2 2057 0L2057 31C1990 31 1979 31 1979 76L1979 179L2043 234C2120 128 2162 72 2162 54C2162 35 2145 31 2126 31L2126 0C2154 1 2213 3 2234 3C2263 3 2292 2 2321 0L2321 31C2284 31 2262 31 2224 84L2097 263C2096 265 2091 271 2091 274C2091 278 2162 338 2172 346C2235 397 2277 399 2298 400L2298 431C2269 428 2256 428 2228 428C2192 428 2130 430 2116 431L2116 400C2135 399 2145 388 2145 375C2145 355 2131 343 2123 336L1982 214L1982 694L1838 683L1838 652C1908 652 1916 645 1916 596L1916 76C1916 31 1905 31 1838 31Z" stroke="rgb(0,0,0)" stroke-opacity="1" stroke-width="8" fill="rgb(0,0,0)" fill-opacity="1"></path></g></g></g></g><g><g><g><g transform="matrix(1,0,0,1,253.8125,377.8775)"><path transform="matrix(0.019440000000000002,0,0,-0.019440000000000002,0,0)" d="M56 2C56 -15 56 -22 67 -22C74 -22 75 -20 82 -9C82 -8 85 -5 118 48C149 14 213 -22 302 -22C419 -22 499 76 499 186C499 286 433 368 349 388L221 419C159 434 120 488 120 546C120 616 174 677 252 677C419 677 441 513 447 468C448 462 448 456 459 456C472 456 472 461 472 480L472 681C472 698 472 705 461 705C454 705 453 704 446 692L411 635C381 664 340 705 251 705C140 705 56 617 56 511C56 428 109 355 187 328C198 324 249 312 319 295C346 288 376 281 404 244C425 218 435 185 435 152C435 81 385 9 301 9C272 9 196 14 143 63C85 117 82 181 81 217C80 227 72 227 69 227C56 227 56 220 56 202ZM583 214C583 85 687 -11 804 -11C925 -11 1026 87 1026 214C1026 342 926 448 805 448C680 448 583 339 583 214ZM666 222C666 261 666 315 690 359C717 405 764 426 804 426C848 426 891 404 917 361C943 318 943 260 943 222C943 186 943 132 921 88C899 43 855 14 805 14C762 14 718 35 691 81C666 125 666 186 666 222ZM1088 400L1167 400L1167 76C1167 31 1156 31 1089 31L1089 0C1128 1 1175 3 1203 3C1243 3 1290 3 1330 0L1330 31L1309 31C1235 31 1233 42 1233 78L1233 400L1347 400L1347 431L1230 431L1230 547C1230 635 1278 683 1322 683C1325 683 1340 683 1355 676C1343 672 1325 659 1325 634C1325 611 1341 591 1368 591C1397 591 1412 611 1412 635C1412 672 1375 705 1322 705C1252 705 1167 652 1167 546L1167 431L1088 431ZM1379 400L1464 400L1464 124C1464 1 1557 -11 1593 -11C1664 -11 1692 60 1692 124L1692 181L1667 181L1667 126C1667 52 1637 14 1600 14C1533 14 1533 105 1533 122L1533 400L1676 400L1676 431L1533 431L1533 615L1508 615C1507 533 1477 426 1379 422ZM1785 0C1820 1 1869 3 1902 3C1935 3 1984 1 2019 0L2019 31C1916 31 1916 78 1916 105L1916 644L1917 644L2158 22C2163 9 2168 0 2178 0C2189 0 2192 8 2196 19L2442 652L2443 652L2443 78C2443 42 2441 31 2364 31L2340 31L2340 0C2377 3 2445 3 2484 3C2523 3 2590 3 2627 0L2627 31L2603 31C2526 31 2524 42 2524 78L2524 605C2524 641 2526 652 2603 652L2627 652L2627 683L2458 683C2432 683 2432 682 2425 664L2206 101L1989 661C1980 683 1977 683 1954 683L1785 683L1785 652L1809 652C1886 652 1888 641 1888 605L1888 105C1888 78 1888 31 1785 31ZM2706 95C2706 14 2803 -11 2866 -11C2932 -11 2978 29 2997 76C3001 36 3028 -6 3075 -6C3096 -6 3157 8 3157 89L3157 145L3132 145L3132 89C3132 31 3107 25 3096 25C3063 25 3059 70 3059 75L3059 275C3059 317 3059 356 3023 393C2984 432 2934 448 2886 448C2804 448 2735 401 2735 335C2735 305 2755 288 2781 288C2809 288 2827 308 2827 334C2827 346 2822 379 2776 380C2803 415 2852 426 2884 426C2933 426 2990 387 2990 298L2990 261C2939 258 2869 255 2806 225C2731 191 2706 139 2706 95ZM2783 96C2783 151 2825 234 2990 240L2990 140C2990 45 2918 11 2873 11C2824 11 2783 46 2783 96ZM3176 0C3202 2 3233 3 3259 3C3288 3 3330 1 3354 0L3354 31C3332 34 3325 47 3325 62C3325 84 3354 117 3415 189L3491 89C3499 78 3512 62 3512 56C3512 47 3503 32 3476 31L3476 0C3506 1 3562 3 3584 3C3611 3 3650 2 3680 0L3680 31C3626 31 3608 33 3585 62L3451 235C3481 273 3519 322 3543 348C3574 384 3615 399 3662 400L3662 431C3636 429 3606 428 3580 428C3550 428 3497 430 3484 431L3484 400C3505 398 3513 385 3513 369C3513 353 3503 340 3498 334L3436 256L3358 357C3349 367 3349 369 3349 375C3349 390 3364 399 3384 400L3384 431C3358 430 3292 428 3276 428C3255 428 3208 429 3181 431L3181 400C3251 400 3252 399 3299 339L3398 210L3304 91C3256 33 3197 31 3176 31Z" stroke="rgb(0,0,0)" stroke-opacity="1" stroke-width="8" fill="rgb(0,0,0)" fill-opacity="1"></path></g></g></g></g><g><g><g><g transform="matrix(1,0,0,1,285.0703125,427.315)"><path transform="matrix(0.019440000000000002,0,0,-0.019440000000000002,0,0)" d="M37 0C72 1 121 3 154 3C187 3 236 1 271 0L271 31C168 31 168 78 168 105L168 644L169 644L410 22C415 9 420 0 430 0C441 0 444 8 448 19L694 652L695 652L695 78C695 42 693 31 616 31L592 31L592 0C629 3 697 3 736 3C775 3 842 3 879 0L879 31L855 31C778 31 776 42 776 78L776 605C776 641 778 652 855 652L879 652L879 683L710 683C684 683 684 682 677 664L458 101L241 661C232 683 229 683 206 683L37 683L37 652L61 652C138 652 140 641 140 605L140 105C140 78 140 31 37 31ZM958 95C958 14 1055 -11 1118 -11C1184 -11 1230 29 1249 76C1253 36 1280 -6 1327 -6C1348 -6 1409 8 1409 89L1409 145L1384 145L1384 89C1384 31 1359 25 1348 25C1315 25 1311 70 1311 75L1311 275C1311 317 1311 356 1275 393C1236 432 1186 448 1138 448C1056 448 987 401 987 335C987 305 1007 288 1033 288C1061 288 1079 308 1079 334C1079 346 1074 379 1028 380C1055 415 1104 426 1136 426C1185 426 1242 387 1242 298L1242 261C1191 258 1121 255 1058 225C983 191 958 139 958 95ZM1035 96C1035 151 1077 234 1242 240L1242 140C1242 45 1170 11 1125 11C1076 11 1035 46 1035 96ZM1435 400L1520 400L1520 124C1520 1 1613 -11 1649 -11C1720 -11 1748 60 1748 124L1748 181L1723 181L1723 126C1723 52 1693 14 1656 14C1589 14 1589 105 1589 122L1589 400L1732 400L1732 431L1589 431L1589 615L1564 615C1563 533 1533 426 1435 422ZM1836 0C1871 1 1922 3 1949 3C1975 3 2027 1 2061 0L2061 31C1994 31 1983 31 1983 76L1983 260C1983 364 2054 420 2118 420C2181 420 2192 366 2192 309L2192 76C2192 31 2181 31 2114 31L2114 0C2149 1 2200 3 2227 3C2253 3 2305 1 2339 0L2339 31C2272 31 2261 31 2261 76L2261 260C2261 364 2332 420 2396 420C2459 420 2470 366 2470 309L2470 76C2470 31 2459 31 2392 31L2392 0C2427 1 2478 3 2505 3C2531 3 2583 1 2617 0L2617 31C2565 31 2540 31 2539 61L2539 252C2539 338 2539 369 2508 405C2494 422 2461 442 2403 442C2319 442 2275 382 2258 344C2244 431 2170 442 2125 442C2052 442 2005 399 1977 337L1977 442L1836 431L1836 400C1906 400 1914 393 1914 344L1914 76C1914 31 1903 31 1836 31ZM2641 400C2719 400 2719 397 2719 308L2719 158C2719 80 2719 -11 2871 -11C2927 -11 2971 17 3000 79L3000 -11L3144 0L3144 31C3074 31 3066 38 3066 87L3066 442L2919 431L2919 400C2989 400 2997 393 2997 344L2997 166C2997 79 2949 11 2876 11C2792 11 2788 58 2788 110L2788 442L2641 431ZM3197 0C3230 1 3283 3 3308 3C3333 3 3382 1 3419 0L3419 31C3352 31 3341 31 3341 76L3341 694L3197 683L3197 652C3267 652 3275 645 3275 596L3275 76C3275 31 3264 31 3197 31Z" stroke="rgb(0,0,0)" stroke-opacity="1" stroke-width="8" fill="rgb(0,0,0)" fill-opacity="1"></path></g></g></g></g></svg>
</svg>
